%TF.GenerationSoftware,KiCad,Pcbnew,(5.1.6)-1*%
%TF.CreationDate,2021-04-07T20:28:44-04:00*%
%TF.ProjectId,2020-11-09-Browning-Recon-Force-Advantage-White-LED,32303230-2d31-4312-9d30-392d42726f77,rev?*%
%TF.SameCoordinates,Original*%
%TF.FileFunction,Legend,Bot*%
%TF.FilePolarity,Positive*%
%FSLAX46Y46*%
G04 Gerber Fmt 4.6, Leading zero omitted, Abs format (unit mm)*
G04 Created by KiCad (PCBNEW (5.1.6)-1) date 2021-04-07 20:28:44*
%MOMM*%
%LPD*%
G01*
G04 APERTURE LIST*
%ADD10C,0.300000*%
G04 APERTURE END LIST*
D10*
X132778571Y-101707142D02*
X133921428Y-101707142D01*
X133350000Y-102278571D02*
X133350000Y-101135714D01*
X132778571Y-104247142D02*
X133921428Y-104247142D01*
X200321428Y-70392857D02*
X200107142Y-70464285D01*
X200035714Y-70535714D01*
X199964285Y-70678571D01*
X199964285Y-70892857D01*
X200035714Y-71035714D01*
X200107142Y-71107142D01*
X200250000Y-71178571D01*
X200821428Y-71178571D01*
X200821428Y-69678571D01*
X200321428Y-69678571D01*
X200178571Y-69750000D01*
X200107142Y-69821428D01*
X200035714Y-69964285D01*
X200035714Y-70107142D01*
X200107142Y-70250000D01*
X200178571Y-70321428D01*
X200321428Y-70392857D01*
X200821428Y-70392857D01*
X199321428Y-71178571D02*
X199321428Y-70178571D01*
X199321428Y-70464285D02*
X199250000Y-70321428D01*
X199178571Y-70250000D01*
X199035714Y-70178571D01*
X198892857Y-70178571D01*
X198392857Y-70178571D02*
X198392857Y-71178571D01*
X198392857Y-70321428D02*
X198321428Y-70250000D01*
X198178571Y-70178571D01*
X197964285Y-70178571D01*
X197821428Y-70250000D01*
X197750000Y-70392857D01*
X197750000Y-71178571D01*
X195392857Y-70392857D02*
X195178571Y-70464285D01*
X195107142Y-70535714D01*
X195035714Y-70678571D01*
X195035714Y-70892857D01*
X195107142Y-71035714D01*
X195178571Y-71107142D01*
X195321428Y-71178571D01*
X195892857Y-71178571D01*
X195892857Y-69678571D01*
X195392857Y-69678571D01*
X195250000Y-69750000D01*
X195178571Y-69821428D01*
X195107142Y-69964285D01*
X195107142Y-70107142D01*
X195178571Y-70250000D01*
X195250000Y-70321428D01*
X195392857Y-70392857D01*
X195892857Y-70392857D01*
X194607142Y-69678571D02*
X193750000Y-69678571D01*
X194178571Y-71178571D02*
X194178571Y-69678571D01*
X192392857Y-71035714D02*
X192464285Y-71107142D01*
X192678571Y-71178571D01*
X192821428Y-71178571D01*
X193035714Y-71107142D01*
X193178571Y-70964285D01*
X193250000Y-70821428D01*
X193321428Y-70535714D01*
X193321428Y-70321428D01*
X193250000Y-70035714D01*
X193178571Y-69892857D01*
X193035714Y-69750000D01*
X192821428Y-69678571D01*
X192678571Y-69678571D01*
X192464285Y-69750000D01*
X192392857Y-69821428D01*
X191750000Y-70607142D02*
X190607142Y-70607142D01*
X190035714Y-69678571D02*
X189035714Y-69678571D01*
X189678571Y-71178571D01*
X188535714Y-70750000D02*
X187821428Y-70750000D01*
X188678571Y-71178571D02*
X188178571Y-69678571D01*
X187678571Y-71178571D01*
X186178571Y-70178571D02*
X185821428Y-71178571D01*
X185464285Y-70178571D01*
X184607142Y-69678571D02*
X184464285Y-69678571D01*
X184321428Y-69750000D01*
X184250000Y-69821428D01*
X184178571Y-69964285D01*
X184107142Y-70250000D01*
X184107142Y-70607142D01*
X184178571Y-70892857D01*
X184250000Y-71035714D01*
X184321428Y-71107142D01*
X184464285Y-71178571D01*
X184607142Y-71178571D01*
X184750000Y-71107142D01*
X184821428Y-71035714D01*
X184892857Y-70892857D01*
X184964285Y-70607142D01*
X184964285Y-70250000D01*
X184892857Y-69964285D01*
X184821428Y-69821428D01*
X184750000Y-69750000D01*
X184607142Y-69678571D01*
X146785714Y-69678571D02*
X146428571Y-71178571D01*
X146142857Y-70107142D01*
X145857142Y-71178571D01*
X145500000Y-69678571D01*
X144428571Y-70392857D02*
X144214285Y-70464285D01*
X144142857Y-70535714D01*
X144071428Y-70678571D01*
X144071428Y-70892857D01*
X144142857Y-71035714D01*
X144214285Y-71107142D01*
X144357142Y-71178571D01*
X144928571Y-71178571D01*
X144928571Y-69678571D01*
X144428571Y-69678571D01*
X144285714Y-69750000D01*
X144214285Y-69821428D01*
X144142857Y-69964285D01*
X144142857Y-70107142D01*
X144214285Y-70250000D01*
X144285714Y-70321428D01*
X144428571Y-70392857D01*
X144928571Y-70392857D01*
X143571428Y-69678571D02*
X143214285Y-71178571D01*
X142928571Y-70107142D01*
X142642857Y-71178571D01*
X142285714Y-69678571D01*
X141000000Y-71178571D02*
X141714285Y-71178571D01*
X141714285Y-69678571D01*
X139428571Y-69821428D02*
X139357142Y-69750000D01*
X139214285Y-69678571D01*
X138857142Y-69678571D01*
X138714285Y-69750000D01*
X138642857Y-69821428D01*
X138571428Y-69964285D01*
X138571428Y-70107142D01*
X138642857Y-70321428D01*
X139500000Y-71178571D01*
X138571428Y-71178571D01*
X137642857Y-69678571D02*
X137500000Y-69678571D01*
X137357142Y-69750000D01*
X137285714Y-69821428D01*
X137214285Y-69964285D01*
X137142857Y-70250000D01*
X137142857Y-70607142D01*
X137214285Y-70892857D01*
X137285714Y-71035714D01*
X137357142Y-71107142D01*
X137500000Y-71178571D01*
X137642857Y-71178571D01*
X137785714Y-71107142D01*
X137857142Y-71035714D01*
X137928571Y-70892857D01*
X138000000Y-70607142D01*
X138000000Y-70250000D01*
X137928571Y-69964285D01*
X137857142Y-69821428D01*
X137785714Y-69750000D01*
X137642857Y-69678571D01*
X136571428Y-69821428D02*
X136500000Y-69750000D01*
X136357142Y-69678571D01*
X136000000Y-69678571D01*
X135857142Y-69750000D01*
X135785714Y-69821428D01*
X135714285Y-69964285D01*
X135714285Y-70107142D01*
X135785714Y-70321428D01*
X136642857Y-71178571D01*
X135714285Y-71178571D01*
X134785714Y-69678571D02*
X134642857Y-69678571D01*
X134500000Y-69750000D01*
X134428571Y-69821428D01*
X134357142Y-69964285D01*
X134285714Y-70250000D01*
X134285714Y-70607142D01*
X134357142Y-70892857D01*
X134428571Y-71035714D01*
X134500000Y-71107142D01*
X134642857Y-71178571D01*
X134785714Y-71178571D01*
X134928571Y-71107142D01*
X135000000Y-71035714D01*
X135071428Y-70892857D01*
X135142857Y-70607142D01*
X135142857Y-70250000D01*
X135071428Y-69964285D01*
X135000000Y-69821428D01*
X134928571Y-69750000D01*
X134785714Y-69678571D01*
M02*
