M48
; DRILL file {KiCad (5.1.6)-1} date 04/07/21 20:29:10
; FORMAT={-:-/ absolute / inch / decimal}
; #@! TF.CreationDate,2021-04-07T20:29:10-04:00
; #@! TF.GenerationSoftware,Kicad,Pcbnew,(5.1.6)-1
; #@! TF.FileFunction,Plated,1,2,PTH
FMAT,2
INCH
T1C0.0354
T2C0.0394
%
G90
G05
T1
X7.2953Y-3.248
X7.3953Y-3.248
X7.5354Y-3.0118
X7.6354Y-3.0118
X7.7756Y-3.248
X7.8756Y-3.248
X5.6142Y-3.0118
X5.7142Y-3.0118
X6.5748Y-3.4843
X6.6748Y-3.4843
X6.3346Y-3.4843
X6.4346Y-3.4843
X5.374Y-4.1929
X5.474Y-4.1929
X7.7756Y-3.0118
X7.8756Y-3.0118
X7.2953Y-3.0118
X7.3953Y-3.0118
X6.0945Y-3.7205
X6.1945Y-3.7205
X5.8543Y-3.7205
X5.9543Y-3.7205
X6.5748Y-3.7205
X6.6748Y-3.7205
X7.5354Y-3.9567
X7.6354Y-3.9567
X7.7756Y-3.7205
X7.8756Y-3.7205
X7.2953Y-3.4843
X7.3953Y-3.4843
X5.374Y-3.248
X5.474Y-3.248
X5.6142Y-3.248
X5.7142Y-3.248
X6.0945Y-3.4843
X6.1945Y-3.4843
X5.6142Y-3.9567
X5.7142Y-3.9567
X7.7756Y-3.4843
X7.8756Y-3.4843
X5.6142Y-3.4843
X5.7142Y-3.4843
X5.374Y-3.0118
X5.474Y-3.0118
X5.6142Y-3.7205
X5.7142Y-3.7205
X7.0551Y-3.7205
X7.1551Y-3.7205
X7.7756Y-3.9567
X7.8756Y-3.9567
X5.374Y-3.4843
X5.474Y-3.4843
X5.374Y-3.9567
X5.474Y-3.9567
X6.3346Y-3.7205
X6.4346Y-3.7205
X7.7756Y-4.1929
X7.8756Y-4.1929
X7.5354Y-3.248
X7.6354Y-3.248
X5.8543Y-3.0118
X5.9543Y-3.0118
X6.815Y-3.4843
X6.915Y-3.4843
X5.374Y-3.7205
X5.474Y-3.7205
X7.2953Y-3.7205
X7.3953Y-3.7205
X7.5354Y-3.4843
X7.6354Y-3.4843
X7.5354Y-3.7205
X7.6354Y-3.7205
X5.8543Y-3.248
X5.9543Y-3.248
X6.815Y-3.7205
X6.915Y-3.7205
X5.8543Y-3.4843
X5.9543Y-3.4843
X7.0551Y-3.4843
X7.1551Y-3.4843
T2
X5.1575Y-3.9961
X5.1575Y-4.0961
T0
M30
