%TF.GenerationSoftware,KiCad,Pcbnew,(5.1.6)-1*%
%TF.CreationDate,2021-04-07T20:28:44-04:00*%
%TF.ProjectId,2020-11-09-Browning-Recon-Force-Advantage-White-LED,32303230-2d31-4312-9d30-392d42726f77,rev?*%
%TF.SameCoordinates,Original*%
%TF.FileFunction,Soldermask,Bot*%
%TF.FilePolarity,Negative*%
%FSLAX46Y46*%
G04 Gerber Fmt 4.6, Leading zero omitted, Abs format (unit mm)*
G04 Created by KiCad (PCBNEW (5.1.6)-1) date 2021-04-07 20:28:44*
%MOMM*%
%LPD*%
G01*
G04 APERTURE LIST*
%ADD10C,2.200000*%
%ADD11C,2.600000*%
%ADD12C,1.900000*%
%ADD13R,1.900000X1.900000*%
%ADD14R,1.800000X1.800000*%
%ADD15O,1.800000X1.800000*%
G04 APERTURE END LIST*
D10*
%TO.C,REF\u002A\u002A*%
X197500000Y-116500000D03*
%TD*%
%TO.C,REF\u002A\u002A*%
X142500000Y-65500000D03*
%TD*%
D11*
%TO.C,REF\u002A\u002A*%
X200500000Y-116500000D03*
%TD*%
%TO.C,REF\u002A\u002A*%
X146900000Y-113500000D03*
%TD*%
%TO.C,REF\u002A\u002A*%
X138500000Y-65500000D03*
%TD*%
%TO.C,REF\u002A\u002A*%
X197800000Y-65700000D03*
%TD*%
D12*
%TO.C,D1*%
X139040000Y-76500000D03*
D13*
X136500000Y-76500000D03*
%TD*%
%TO.C,D2*%
X136500000Y-82500000D03*
D12*
X139040000Y-82500000D03*
%TD*%
D13*
%TO.C,D3*%
X142600000Y-76500000D03*
D12*
X145140000Y-76500000D03*
%TD*%
%TO.C,D4*%
X151240000Y-76500000D03*
D13*
X148700000Y-76500000D03*
%TD*%
%TO.C,D5*%
X142600000Y-82500000D03*
D12*
X145140000Y-82500000D03*
%TD*%
%TO.C,D6*%
X151240000Y-82500000D03*
D13*
X148700000Y-82500000D03*
%TD*%
%TO.C,D7*%
X136500000Y-88500000D03*
D12*
X139040000Y-88500000D03*
%TD*%
%TO.C,D8*%
X145140000Y-88500000D03*
D13*
X142600000Y-88500000D03*
%TD*%
%TO.C,D9*%
X136500000Y-94500000D03*
D12*
X139040000Y-94500000D03*
%TD*%
%TO.C,D10*%
X139040000Y-100500000D03*
D13*
X136500000Y-100500000D03*
%TD*%
%TO.C,D11*%
X136500000Y-106500000D03*
D12*
X139040000Y-106500000D03*
%TD*%
%TO.C,D12*%
X145140000Y-100500000D03*
D13*
X142600000Y-100500000D03*
%TD*%
%TO.C,D13*%
X142600000Y-94500000D03*
D12*
X145140000Y-94500000D03*
%TD*%
%TO.C,D14*%
X151240000Y-94500000D03*
D13*
X148700000Y-94500000D03*
%TD*%
%TO.C,D15*%
X148700000Y-88500000D03*
D12*
X151240000Y-88500000D03*
%TD*%
%TO.C,D16*%
X157340000Y-88500000D03*
D13*
X154800000Y-88500000D03*
%TD*%
%TO.C,D17*%
X154800000Y-94500000D03*
D12*
X157340000Y-94500000D03*
%TD*%
%TO.C,D18*%
X163440000Y-94500000D03*
D13*
X160900000Y-94500000D03*
%TD*%
%TO.C,D19*%
X160900000Y-88500000D03*
D12*
X163440000Y-88500000D03*
%TD*%
D13*
%TO.C,D20*%
X167000000Y-88500000D03*
D12*
X169540000Y-88500000D03*
%TD*%
%TO.C,D21*%
X169540000Y-94500000D03*
D13*
X167000000Y-94500000D03*
%TD*%
D12*
%TO.C,D22*%
X175640000Y-94500000D03*
D13*
X173100000Y-94500000D03*
%TD*%
%TO.C,D23*%
X173100000Y-88500000D03*
D12*
X175640000Y-88500000D03*
%TD*%
%TO.C,D24*%
X181740000Y-88500000D03*
D13*
X179200000Y-88500000D03*
%TD*%
%TO.C,D25*%
X185300000Y-94500000D03*
D12*
X187840000Y-94500000D03*
%TD*%
%TO.C,D26*%
X181740000Y-94500000D03*
D13*
X179200000Y-94500000D03*
%TD*%
%TO.C,D27*%
X185300000Y-88500000D03*
D12*
X187840000Y-88500000D03*
%TD*%
%TO.C,D28*%
X187840000Y-82500000D03*
D13*
X185300000Y-82500000D03*
%TD*%
%TO.C,D29*%
X185300000Y-76500000D03*
D12*
X187840000Y-76500000D03*
%TD*%
%TO.C,D30*%
X193940000Y-76500000D03*
D13*
X191400000Y-76500000D03*
%TD*%
%TO.C,D31*%
X197500000Y-76500000D03*
D12*
X200040000Y-76500000D03*
%TD*%
%TO.C,D32*%
X200040000Y-82500000D03*
D13*
X197500000Y-82500000D03*
%TD*%
%TO.C,D33*%
X191400000Y-82500000D03*
D12*
X193940000Y-82500000D03*
%TD*%
%TO.C,D34*%
X193940000Y-88500000D03*
D13*
X191400000Y-88500000D03*
%TD*%
%TO.C,D35*%
X197500000Y-88500000D03*
D12*
X200040000Y-88500000D03*
%TD*%
%TO.C,D36*%
X200040000Y-94500000D03*
D13*
X197500000Y-94500000D03*
%TD*%
%TO.C,D37*%
X191400000Y-94500000D03*
D12*
X193940000Y-94500000D03*
%TD*%
%TO.C,D38*%
X193940000Y-100500000D03*
D13*
X191400000Y-100500000D03*
%TD*%
%TO.C,D39*%
X197500000Y-100500000D03*
D12*
X200040000Y-100500000D03*
%TD*%
%TO.C,D40*%
X200040000Y-106500000D03*
D13*
X197500000Y-106500000D03*
%TD*%
D14*
%TO.C,J1*%
X131000000Y-101500000D03*
D15*
X131000000Y-104040000D03*
%TD*%
M02*
