%TF.GenerationSoftware,KiCad,Pcbnew,(5.1.6)-1*%
%TF.CreationDate,2021-04-07T20:28:44-04:00*%
%TF.ProjectId,2020-11-09-Browning-Recon-Force-Advantage-White-LED,32303230-2d31-4312-9d30-392d42726f77,rev?*%
%TF.SameCoordinates,Original*%
%TF.FileFunction,Copper,L1,Top*%
%TF.FilePolarity,Positive*%
%FSLAX46Y46*%
G04 Gerber Fmt 4.6, Leading zero omitted, Abs format (unit mm)*
G04 Created by KiCad (PCBNEW (5.1.6)-1) date 2021-04-07 20:28:44*
%MOMM*%
%LPD*%
G01*
G04 APERTURE LIST*
%TA.AperFunction,ComponentPad*%
%ADD10C,1.800000*%
%TD*%
%TA.AperFunction,ComponentPad*%
%ADD11R,1.800000X1.800000*%
%TD*%
%TA.AperFunction,ComponentPad*%
%ADD12R,1.700000X1.700000*%
%TD*%
%TA.AperFunction,ComponentPad*%
%ADD13O,1.700000X1.700000*%
%TD*%
%TA.AperFunction,Conductor*%
%ADD14C,0.250000*%
%TD*%
%TA.AperFunction,Conductor*%
%ADD15C,0.254000*%
%TD*%
G04 APERTURE END LIST*
D10*
%TO.P,D1,2*%
%TO.N,LED+*%
X139040000Y-76500000D03*
D11*
%TO.P,D1,1*%
%TO.N,Net-(D1-Pad1)*%
X136500000Y-76500000D03*
%TD*%
%TO.P,D2,1*%
%TO.N,LED-*%
X136500000Y-82500000D03*
D10*
%TO.P,D2,2*%
%TO.N,Net-(D1-Pad1)*%
X139040000Y-82500000D03*
%TD*%
D11*
%TO.P,D3,1*%
%TO.N,Net-(D3-Pad1)*%
X142600000Y-76500000D03*
D10*
%TO.P,D3,2*%
%TO.N,LED+*%
X145140000Y-76500000D03*
%TD*%
%TO.P,D4,2*%
%TO.N,Net-(D3-Pad1)*%
X151240000Y-76500000D03*
D11*
%TO.P,D4,1*%
%TO.N,LED-*%
X148700000Y-76500000D03*
%TD*%
%TO.P,D5,1*%
%TO.N,Net-(D5-Pad1)*%
X142600000Y-82500000D03*
D10*
%TO.P,D5,2*%
%TO.N,LED+*%
X145140000Y-82500000D03*
%TD*%
%TO.P,D6,2*%
%TO.N,Net-(D5-Pad1)*%
X151240000Y-82500000D03*
D11*
%TO.P,D6,1*%
%TO.N,LED-*%
X148700000Y-82500000D03*
%TD*%
%TO.P,D7,1*%
%TO.N,Net-(D7-Pad1)*%
X136500000Y-88500000D03*
D10*
%TO.P,D7,2*%
%TO.N,LED+*%
X139040000Y-88500000D03*
%TD*%
%TO.P,D8,2*%
%TO.N,Net-(D7-Pad1)*%
X145140000Y-88500000D03*
D11*
%TO.P,D8,1*%
%TO.N,LED-*%
X142600000Y-88500000D03*
%TD*%
%TO.P,D9,1*%
%TO.N,Net-(D10-Pad2)*%
X136500000Y-94500000D03*
D10*
%TO.P,D9,2*%
%TO.N,LED+*%
X139040000Y-94500000D03*
%TD*%
%TO.P,D10,2*%
%TO.N,Net-(D10-Pad2)*%
X139040000Y-100500000D03*
D11*
%TO.P,D10,1*%
%TO.N,LED-*%
X136500000Y-100500000D03*
%TD*%
%TO.P,D11,1*%
%TO.N,Net-(D11-Pad1)*%
X136500000Y-106500000D03*
D10*
%TO.P,D11,2*%
%TO.N,LED+*%
X139040000Y-106500000D03*
%TD*%
%TO.P,D12,2*%
%TO.N,Net-(D11-Pad1)*%
X145140000Y-100500000D03*
D11*
%TO.P,D12,1*%
%TO.N,LED-*%
X142600000Y-100500000D03*
%TD*%
%TO.P,D13,1*%
%TO.N,Net-(D13-Pad1)*%
X142600000Y-94500000D03*
D10*
%TO.P,D13,2*%
%TO.N,LED+*%
X145140000Y-94500000D03*
%TD*%
%TO.P,D14,2*%
%TO.N,Net-(D13-Pad1)*%
X151240000Y-94500000D03*
D11*
%TO.P,D14,1*%
%TO.N,LED-*%
X148700000Y-94500000D03*
%TD*%
%TO.P,D15,1*%
%TO.N,Net-(D15-Pad1)*%
X148700000Y-88500000D03*
D10*
%TO.P,D15,2*%
%TO.N,LED+*%
X151240000Y-88500000D03*
%TD*%
%TO.P,D16,2*%
%TO.N,Net-(D15-Pad1)*%
X157340000Y-88500000D03*
D11*
%TO.P,D16,1*%
%TO.N,LED-*%
X154800000Y-88500000D03*
%TD*%
%TO.P,D17,1*%
%TO.N,Net-(D17-Pad1)*%
X154800000Y-94500000D03*
D10*
%TO.P,D17,2*%
%TO.N,LED+*%
X157340000Y-94500000D03*
%TD*%
%TO.P,D18,2*%
%TO.N,Net-(D17-Pad1)*%
X163440000Y-94500000D03*
D11*
%TO.P,D18,1*%
%TO.N,LED-*%
X160900000Y-94500000D03*
%TD*%
%TO.P,D19,1*%
%TO.N,Net-(D19-Pad1)*%
X160900000Y-88500000D03*
D10*
%TO.P,D19,2*%
%TO.N,LED+*%
X163440000Y-88500000D03*
%TD*%
D11*
%TO.P,D20,1*%
%TO.N,LED-*%
X167000000Y-88500000D03*
D10*
%TO.P,D20,2*%
%TO.N,Net-(D19-Pad1)*%
X169540000Y-88500000D03*
%TD*%
%TO.P,D21,2*%
%TO.N,LED+*%
X169540000Y-94500000D03*
D11*
%TO.P,D21,1*%
%TO.N,Net-(D21-Pad1)*%
X167000000Y-94500000D03*
%TD*%
D10*
%TO.P,D22,2*%
%TO.N,Net-(D21-Pad1)*%
X175640000Y-94500000D03*
D11*
%TO.P,D22,1*%
%TO.N,LED-*%
X173100000Y-94500000D03*
%TD*%
%TO.P,D23,1*%
%TO.N,Net-(D23-Pad1)*%
X173100000Y-88500000D03*
D10*
%TO.P,D23,2*%
%TO.N,LED+*%
X175640000Y-88500000D03*
%TD*%
%TO.P,D24,2*%
%TO.N,Net-(D23-Pad1)*%
X181740000Y-88500000D03*
D11*
%TO.P,D24,1*%
%TO.N,LED-*%
X179200000Y-88500000D03*
%TD*%
%TO.P,D25,1*%
%TO.N,Net-(D25-Pad1)*%
X185300000Y-94500000D03*
D10*
%TO.P,D25,2*%
%TO.N,LED+*%
X187840000Y-94500000D03*
%TD*%
%TO.P,D26,2*%
%TO.N,Net-(D25-Pad1)*%
X181740000Y-94500000D03*
D11*
%TO.P,D26,1*%
%TO.N,LED-*%
X179200000Y-94500000D03*
%TD*%
%TO.P,D27,1*%
%TO.N,Net-(D27-Pad1)*%
X185300000Y-88500000D03*
D10*
%TO.P,D27,2*%
%TO.N,LED+*%
X187840000Y-88500000D03*
%TD*%
%TO.P,D28,2*%
%TO.N,Net-(D27-Pad1)*%
X187840000Y-82500000D03*
D11*
%TO.P,D28,1*%
%TO.N,LED-*%
X185300000Y-82500000D03*
%TD*%
%TO.P,D29,1*%
%TO.N,Net-(D29-Pad1)*%
X185300000Y-76500000D03*
D10*
%TO.P,D29,2*%
%TO.N,LED+*%
X187840000Y-76500000D03*
%TD*%
%TO.P,D30,2*%
%TO.N,Net-(D29-Pad1)*%
X193940000Y-76500000D03*
D11*
%TO.P,D30,1*%
%TO.N,LED-*%
X191400000Y-76500000D03*
%TD*%
%TO.P,D31,1*%
%TO.N,Net-(D31-Pad1)*%
X197500000Y-76500000D03*
D10*
%TO.P,D31,2*%
%TO.N,LED+*%
X200040000Y-76500000D03*
%TD*%
%TO.P,D32,2*%
%TO.N,Net-(D31-Pad1)*%
X200040000Y-82500000D03*
D11*
%TO.P,D32,1*%
%TO.N,LED-*%
X197500000Y-82500000D03*
%TD*%
%TO.P,D33,1*%
%TO.N,Net-(D33-Pad1)*%
X191400000Y-82500000D03*
D10*
%TO.P,D33,2*%
%TO.N,LED+*%
X193940000Y-82500000D03*
%TD*%
%TO.P,D34,2*%
%TO.N,Net-(D33-Pad1)*%
X193940000Y-88500000D03*
D11*
%TO.P,D34,1*%
%TO.N,LED-*%
X191400000Y-88500000D03*
%TD*%
%TO.P,D35,1*%
%TO.N,Net-(D35-Pad1)*%
X197500000Y-88500000D03*
D10*
%TO.P,D35,2*%
%TO.N,LED+*%
X200040000Y-88500000D03*
%TD*%
%TO.P,D36,2*%
%TO.N,Net-(D35-Pad1)*%
X200040000Y-94500000D03*
D11*
%TO.P,D36,1*%
%TO.N,LED-*%
X197500000Y-94500000D03*
%TD*%
%TO.P,D37,1*%
%TO.N,Net-(D37-Pad1)*%
X191400000Y-94500000D03*
D10*
%TO.P,D37,2*%
%TO.N,LED+*%
X193940000Y-94500000D03*
%TD*%
%TO.P,D38,2*%
%TO.N,Net-(D37-Pad1)*%
X193940000Y-100500000D03*
D11*
%TO.P,D38,1*%
%TO.N,LED-*%
X191400000Y-100500000D03*
%TD*%
%TO.P,D39,1*%
%TO.N,Net-(D39-Pad1)*%
X197500000Y-100500000D03*
D10*
%TO.P,D39,2*%
%TO.N,LED+*%
X200040000Y-100500000D03*
%TD*%
%TO.P,D40,2*%
%TO.N,Net-(D39-Pad1)*%
X200040000Y-106500000D03*
D11*
%TO.P,D40,1*%
%TO.N,LED-*%
X197500000Y-106500000D03*
%TD*%
D12*
%TO.P,J1,1*%
%TO.N,LED+*%
X131000000Y-101500000D03*
D13*
%TO.P,J1,2*%
%TO.N,LED-*%
X131000000Y-104040000D03*
%TD*%
D14*
%TO.N,Net-(D1-Pad1)*%
X139040000Y-82500000D02*
X136500000Y-79960000D01*
X136500000Y-79960000D02*
X136500000Y-76500000D01*
%TO.N,Net-(D3-Pad1)*%
X142600000Y-76500000D02*
X142600000Y-74900000D01*
X142600000Y-74900000D02*
X143000000Y-74500000D01*
X149240000Y-74500000D02*
X151240000Y-76500000D01*
X143000000Y-74500000D02*
X149240000Y-74500000D01*
%TO.N,Net-(D5-Pad1)*%
X151240000Y-82500000D02*
X151240000Y-80740000D01*
X151240000Y-80740000D02*
X151000000Y-80500000D01*
X144600000Y-80500000D02*
X142600000Y-82500000D01*
X151000000Y-80500000D02*
X144600000Y-80500000D01*
%TO.N,Net-(D7-Pad1)*%
X145000000Y-88360000D02*
X145140000Y-88500000D01*
X136500000Y-88500000D02*
X138500000Y-86500000D01*
X145000000Y-86500000D02*
X145000000Y-88360000D01*
X138500000Y-86500000D02*
X145000000Y-86500000D01*
%TO.N,Net-(D10-Pad2)*%
X139040000Y-100500000D02*
X139040000Y-98540000D01*
X136500000Y-96000000D02*
X136500000Y-94500000D01*
X139040000Y-98540000D02*
X136500000Y-96000000D01*
%TO.N,Net-(D11-Pad1)*%
X145140000Y-100500000D02*
X145140000Y-102860000D01*
X145140000Y-102860000D02*
X144500000Y-103500000D01*
X139500000Y-103500000D02*
X136500000Y-106500000D01*
X144500000Y-103500000D02*
X139500000Y-103500000D01*
%TO.N,Net-(D13-Pad1)*%
X151240000Y-94500000D02*
X151240000Y-92740000D01*
X151240000Y-92740000D02*
X150500000Y-92000000D01*
X145100000Y-92000000D02*
X142600000Y-94500000D01*
X150500000Y-92000000D02*
X145100000Y-92000000D01*
%TO.N,Net-(D15-Pad1)*%
X157340000Y-88500000D02*
X157340000Y-86840000D01*
X157340000Y-86840000D02*
X157000000Y-86500000D01*
X150700000Y-86500000D02*
X148700000Y-88500000D01*
X157000000Y-86500000D02*
X150700000Y-86500000D01*
%TO.N,Net-(D17-Pad1)*%
X163440000Y-94500000D02*
X163440000Y-96560000D01*
X163440000Y-96560000D02*
X163380000Y-96500000D01*
X156800000Y-96500000D02*
X154800000Y-94500000D01*
X163380000Y-96500000D02*
X156800000Y-96500000D01*
%TO.N,Net-(D19-Pad1)*%
X169540000Y-88500000D02*
X169540000Y-86540000D01*
X169540000Y-86540000D02*
X169500000Y-86500000D01*
X162900000Y-86500000D02*
X160900000Y-88500000D01*
X169500000Y-86500000D02*
X162900000Y-86500000D01*
%TO.N,Net-(D21-Pad1)*%
X175640000Y-94500000D02*
X175640000Y-96640000D01*
X175640000Y-96640000D02*
X175280000Y-97000000D01*
X169500000Y-97000000D02*
X167000000Y-94500000D01*
X175280000Y-97000000D02*
X169500000Y-97000000D01*
%TO.N,Net-(D23-Pad1)*%
X181740000Y-88500000D02*
X181740000Y-86760000D01*
X181740000Y-86760000D02*
X181480000Y-86500000D01*
X175100000Y-86500000D02*
X173100000Y-88500000D01*
X181480000Y-86500000D02*
X175100000Y-86500000D01*
%TO.N,Net-(D25-Pad1)*%
X185300000Y-94500000D02*
X181740000Y-94500000D01*
%TO.N,Net-(D27-Pad1)*%
X187840000Y-82500000D02*
X187840000Y-84160000D01*
X185300000Y-86700000D02*
X185300000Y-88500000D01*
X187840000Y-84160000D02*
X185300000Y-86700000D01*
%TO.N,Net-(D29-Pad1)*%
X193940000Y-76500000D02*
X193940000Y-74440000D01*
X193940000Y-74440000D02*
X193500000Y-74000000D01*
X187800000Y-74000000D02*
X185300000Y-76500000D01*
X193500000Y-74000000D02*
X187800000Y-74000000D01*
%TO.N,Net-(D31-Pad1)*%
X197500000Y-76500000D02*
X197500000Y-78000000D01*
X200040000Y-80540000D02*
X200040000Y-82500000D01*
X197500000Y-78000000D02*
X200040000Y-80540000D01*
%TO.N,Net-(D33-Pad1)*%
X191400000Y-82500000D02*
X191400000Y-83900000D01*
X193940000Y-86440000D02*
X193940000Y-88500000D01*
X191400000Y-83900000D02*
X193940000Y-86440000D01*
%TO.N,Net-(D35-Pad1)*%
X197500000Y-88500000D02*
X197500000Y-89500000D01*
X200040000Y-92040000D02*
X200040000Y-94500000D01*
X197500000Y-89500000D02*
X200040000Y-92040000D01*
%TO.N,Net-(D37-Pad1)*%
X191400000Y-94500000D02*
X191400000Y-97400000D01*
X193940000Y-99940000D02*
X193940000Y-100500000D01*
X191400000Y-97400000D02*
X193940000Y-99940000D01*
%TO.N,Net-(D39-Pad1)*%
X197500000Y-100500000D02*
X197500000Y-102000000D01*
X200040000Y-104540000D02*
X200040000Y-106500000D01*
X197500000Y-102000000D02*
X200040000Y-104540000D01*
%TD*%
D15*
%TO.N,LED+*%
G36*
X154373000Y-82000000D02*
G01*
X154375440Y-82024776D01*
X154382667Y-82048601D01*
X154394403Y-82070557D01*
X154410197Y-82089803D01*
X154429443Y-82105597D01*
X154451399Y-82117333D01*
X154475224Y-82124560D01*
X154500000Y-82127000D01*
X181000000Y-82127000D01*
X181024776Y-82124560D01*
X181048601Y-82117333D01*
X181070557Y-82105597D01*
X181089803Y-82089803D01*
X181105597Y-82070557D01*
X181117333Y-82048601D01*
X181124560Y-82024776D01*
X181127000Y-82000000D01*
X181127000Y-81600000D01*
X183761928Y-81600000D01*
X183761928Y-83400000D01*
X183774188Y-83524482D01*
X183810498Y-83644180D01*
X183869463Y-83754494D01*
X183948815Y-83851185D01*
X184045506Y-83930537D01*
X184155820Y-83989502D01*
X184275518Y-84025812D01*
X184400000Y-84038072D01*
X186200000Y-84038072D01*
X186324482Y-84025812D01*
X186444180Y-83989502D01*
X186554494Y-83930537D01*
X186651185Y-83851185D01*
X186730537Y-83754494D01*
X186789502Y-83644180D01*
X186795056Y-83625873D01*
X186861495Y-83692312D01*
X187080001Y-83838313D01*
X187080001Y-83845196D01*
X184789003Y-86136196D01*
X184759999Y-86159999D01*
X184723047Y-86205026D01*
X184665026Y-86275724D01*
X184624782Y-86351015D01*
X184594454Y-86407754D01*
X184550997Y-86551015D01*
X184540000Y-86662668D01*
X184540000Y-86662678D01*
X184536324Y-86700000D01*
X184540000Y-86737323D01*
X184540000Y-86961928D01*
X184400000Y-86961928D01*
X184275518Y-86974188D01*
X184155820Y-87010498D01*
X184045506Y-87069463D01*
X183948815Y-87148815D01*
X183869463Y-87245506D01*
X183810498Y-87355820D01*
X183774188Y-87475518D01*
X183761928Y-87600000D01*
X183761928Y-89400000D01*
X183774188Y-89524482D01*
X183810498Y-89644180D01*
X183869463Y-89754494D01*
X183948815Y-89851185D01*
X184045506Y-89930537D01*
X184155820Y-89989502D01*
X184275518Y-90025812D01*
X184400000Y-90038072D01*
X186200000Y-90038072D01*
X186324482Y-90025812D01*
X186444180Y-89989502D01*
X186554494Y-89930537D01*
X186651185Y-89851185D01*
X186730537Y-89754494D01*
X186789502Y-89644180D01*
X186792813Y-89633265D01*
X186839578Y-89680030D01*
X186955526Y-89564082D01*
X187039208Y-89818261D01*
X187311775Y-89949158D01*
X187604642Y-90024365D01*
X187906553Y-90040991D01*
X188205907Y-89998397D01*
X188491199Y-89898222D01*
X188640792Y-89818261D01*
X188724475Y-89564080D01*
X187840000Y-88679605D01*
X187825858Y-88693748D01*
X187646253Y-88514143D01*
X187660395Y-88500000D01*
X188019605Y-88500000D01*
X188904080Y-89384475D01*
X189158261Y-89300792D01*
X189289158Y-89028225D01*
X189364365Y-88735358D01*
X189380991Y-88433447D01*
X189338397Y-88134093D01*
X189238222Y-87848801D01*
X189158261Y-87699208D01*
X188904080Y-87615525D01*
X188019605Y-88500000D01*
X187660395Y-88500000D01*
X187646253Y-88485858D01*
X187825858Y-88306253D01*
X187840000Y-88320395D01*
X188724475Y-87435920D01*
X188640792Y-87181739D01*
X188368225Y-87050842D01*
X188075358Y-86975635D01*
X187773447Y-86959009D01*
X187474093Y-87001603D01*
X187188801Y-87101778D01*
X187039208Y-87181739D01*
X186955526Y-87435918D01*
X186839578Y-87319970D01*
X186792813Y-87366735D01*
X186789502Y-87355820D01*
X186730537Y-87245506D01*
X186651185Y-87148815D01*
X186554494Y-87069463D01*
X186444180Y-87010498D01*
X186324482Y-86974188D01*
X186200000Y-86961928D01*
X186112873Y-86961928D01*
X188351008Y-84723795D01*
X188380001Y-84700001D01*
X188403795Y-84671008D01*
X188403799Y-84671004D01*
X188474973Y-84584277D01*
X188474974Y-84584276D01*
X188545546Y-84452247D01*
X188589003Y-84308986D01*
X188600000Y-84197333D01*
X188600000Y-84197324D01*
X188603676Y-84160001D01*
X188600000Y-84122678D01*
X188600000Y-83838313D01*
X188818505Y-83692312D01*
X189032312Y-83478505D01*
X189200299Y-83227095D01*
X189316011Y-82947743D01*
X189375000Y-82651184D01*
X189375000Y-82348816D01*
X189316011Y-82052257D01*
X189200299Y-81772905D01*
X189084768Y-81600000D01*
X189861928Y-81600000D01*
X189861928Y-83400000D01*
X189874188Y-83524482D01*
X189910498Y-83644180D01*
X189969463Y-83754494D01*
X190048815Y-83851185D01*
X190145506Y-83930537D01*
X190255820Y-83989502D01*
X190375518Y-84025812D01*
X190500000Y-84038072D01*
X190649923Y-84038072D01*
X190650998Y-84048985D01*
X190694454Y-84192246D01*
X190765026Y-84324276D01*
X190836201Y-84411002D01*
X190860000Y-84440001D01*
X190888998Y-84463799D01*
X193180000Y-86754803D01*
X193180000Y-87161687D01*
X192961495Y-87307688D01*
X192895056Y-87374127D01*
X192889502Y-87355820D01*
X192830537Y-87245506D01*
X192751185Y-87148815D01*
X192654494Y-87069463D01*
X192544180Y-87010498D01*
X192424482Y-86974188D01*
X192300000Y-86961928D01*
X190500000Y-86961928D01*
X190375518Y-86974188D01*
X190255820Y-87010498D01*
X190145506Y-87069463D01*
X190048815Y-87148815D01*
X189969463Y-87245506D01*
X189910498Y-87355820D01*
X189874188Y-87475518D01*
X189861928Y-87600000D01*
X189861928Y-89400000D01*
X189874188Y-89524482D01*
X189910498Y-89644180D01*
X189969463Y-89754494D01*
X190048815Y-89851185D01*
X190145506Y-89930537D01*
X190255820Y-89989502D01*
X190375518Y-90025812D01*
X190500000Y-90038072D01*
X192300000Y-90038072D01*
X192424482Y-90025812D01*
X192544180Y-89989502D01*
X192654494Y-89930537D01*
X192751185Y-89851185D01*
X192830537Y-89754494D01*
X192889502Y-89644180D01*
X192895056Y-89625873D01*
X192961495Y-89692312D01*
X193212905Y-89860299D01*
X193492257Y-89976011D01*
X193788816Y-90035000D01*
X194091184Y-90035000D01*
X194387743Y-89976011D01*
X194667095Y-89860299D01*
X194918505Y-89692312D01*
X195132312Y-89478505D01*
X195300299Y-89227095D01*
X195416011Y-88947743D01*
X195475000Y-88651184D01*
X195475000Y-88348816D01*
X195416011Y-88052257D01*
X195300299Y-87772905D01*
X195184768Y-87600000D01*
X195961928Y-87600000D01*
X195961928Y-89400000D01*
X195974188Y-89524482D01*
X196010498Y-89644180D01*
X196069463Y-89754494D01*
X196148815Y-89851185D01*
X196245506Y-89930537D01*
X196355820Y-89989502D01*
X196475518Y-90025812D01*
X196600000Y-90038072D01*
X196958417Y-90038072D01*
X196960000Y-90040001D01*
X196988998Y-90063799D01*
X199280000Y-92354803D01*
X199280000Y-93161687D01*
X199061495Y-93307688D01*
X198995056Y-93374127D01*
X198989502Y-93355820D01*
X198930537Y-93245506D01*
X198851185Y-93148815D01*
X198754494Y-93069463D01*
X198644180Y-93010498D01*
X198524482Y-92974188D01*
X198400000Y-92961928D01*
X196600000Y-92961928D01*
X196475518Y-92974188D01*
X196355820Y-93010498D01*
X196245506Y-93069463D01*
X196148815Y-93148815D01*
X196069463Y-93245506D01*
X196010498Y-93355820D01*
X195974188Y-93475518D01*
X195961928Y-93600000D01*
X195961928Y-95400000D01*
X195974188Y-95524482D01*
X196010498Y-95644180D01*
X196069463Y-95754494D01*
X196148815Y-95851185D01*
X196245506Y-95930537D01*
X196355820Y-95989502D01*
X196475518Y-96025812D01*
X196600000Y-96038072D01*
X198400000Y-96038072D01*
X198524482Y-96025812D01*
X198644180Y-95989502D01*
X198754494Y-95930537D01*
X198851185Y-95851185D01*
X198930537Y-95754494D01*
X198989502Y-95644180D01*
X198995056Y-95625873D01*
X199061495Y-95692312D01*
X199312905Y-95860299D01*
X199592257Y-95976011D01*
X199888816Y-96035000D01*
X200191184Y-96035000D01*
X200487743Y-95976011D01*
X200767095Y-95860299D01*
X201018505Y-95692312D01*
X201232312Y-95478505D01*
X201400299Y-95227095D01*
X201516011Y-94947743D01*
X201575000Y-94651184D01*
X201575000Y-94348816D01*
X201516011Y-94052257D01*
X201400299Y-93772905D01*
X201232312Y-93521495D01*
X201018505Y-93307688D01*
X200800000Y-93161687D01*
X200800000Y-92077322D01*
X200803676Y-92039999D01*
X200800000Y-92002676D01*
X200800000Y-92002667D01*
X200789003Y-91891014D01*
X200745546Y-91747753D01*
X200674974Y-91615724D01*
X200642147Y-91575724D01*
X200603799Y-91528996D01*
X200603795Y-91528992D01*
X200580001Y-91499999D01*
X200551009Y-91476206D01*
X198884902Y-89810100D01*
X198930537Y-89754494D01*
X198989502Y-89644180D01*
X198992813Y-89633265D01*
X199039578Y-89680030D01*
X199155526Y-89564082D01*
X199239208Y-89818261D01*
X199511775Y-89949158D01*
X199804642Y-90024365D01*
X200106553Y-90040991D01*
X200405907Y-89998397D01*
X200691199Y-89898222D01*
X200840792Y-89818261D01*
X200924475Y-89564080D01*
X200040000Y-88679605D01*
X200025858Y-88693748D01*
X199846253Y-88514143D01*
X199860395Y-88500000D01*
X200219605Y-88500000D01*
X201104080Y-89384475D01*
X201358261Y-89300792D01*
X201489158Y-89028225D01*
X201564365Y-88735358D01*
X201580991Y-88433447D01*
X201538397Y-88134093D01*
X201438222Y-87848801D01*
X201358261Y-87699208D01*
X201104080Y-87615525D01*
X200219605Y-88500000D01*
X199860395Y-88500000D01*
X199846253Y-88485858D01*
X200025858Y-88306253D01*
X200040000Y-88320395D01*
X200924475Y-87435920D01*
X200840792Y-87181739D01*
X200568225Y-87050842D01*
X200275358Y-86975635D01*
X199973447Y-86959009D01*
X199674093Y-87001603D01*
X199388801Y-87101778D01*
X199239208Y-87181739D01*
X199155526Y-87435918D01*
X199039578Y-87319970D01*
X198992813Y-87366735D01*
X198989502Y-87355820D01*
X198930537Y-87245506D01*
X198851185Y-87148815D01*
X198754494Y-87069463D01*
X198644180Y-87010498D01*
X198524482Y-86974188D01*
X198400000Y-86961928D01*
X196600000Y-86961928D01*
X196475518Y-86974188D01*
X196355820Y-87010498D01*
X196245506Y-87069463D01*
X196148815Y-87148815D01*
X196069463Y-87245506D01*
X196010498Y-87355820D01*
X195974188Y-87475518D01*
X195961928Y-87600000D01*
X195184768Y-87600000D01*
X195132312Y-87521495D01*
X194918505Y-87307688D01*
X194700000Y-87161687D01*
X194700000Y-86477322D01*
X194703676Y-86439999D01*
X194700000Y-86402676D01*
X194700000Y-86402667D01*
X194689003Y-86291014D01*
X194645546Y-86147753D01*
X194574974Y-86015724D01*
X194521854Y-85950997D01*
X194503799Y-85928996D01*
X194503795Y-85928992D01*
X194480001Y-85899999D01*
X194451009Y-85876206D01*
X192557294Y-83982492D01*
X192654494Y-83930537D01*
X192751185Y-83851185D01*
X192830537Y-83754494D01*
X192889502Y-83644180D01*
X192892813Y-83633265D01*
X192939578Y-83680030D01*
X193055526Y-83564082D01*
X193139208Y-83818261D01*
X193411775Y-83949158D01*
X193704642Y-84024365D01*
X194006553Y-84040991D01*
X194305907Y-83998397D01*
X194591199Y-83898222D01*
X194740792Y-83818261D01*
X194824475Y-83564080D01*
X193940000Y-82679605D01*
X193925858Y-82693748D01*
X193746253Y-82514143D01*
X193760395Y-82500000D01*
X194119605Y-82500000D01*
X195004080Y-83384475D01*
X195258261Y-83300792D01*
X195389158Y-83028225D01*
X195464365Y-82735358D01*
X195480991Y-82433447D01*
X195438397Y-82134093D01*
X195338222Y-81848801D01*
X195258261Y-81699208D01*
X195004080Y-81615525D01*
X194119605Y-82500000D01*
X193760395Y-82500000D01*
X193746253Y-82485858D01*
X193925858Y-82306253D01*
X193940000Y-82320395D01*
X194824475Y-81435920D01*
X194740792Y-81181739D01*
X194468225Y-81050842D01*
X194175358Y-80975635D01*
X193873447Y-80959009D01*
X193574093Y-81001603D01*
X193288801Y-81101778D01*
X193139208Y-81181739D01*
X193055526Y-81435918D01*
X192939578Y-81319970D01*
X192892813Y-81366735D01*
X192889502Y-81355820D01*
X192830537Y-81245506D01*
X192751185Y-81148815D01*
X192654494Y-81069463D01*
X192544180Y-81010498D01*
X192424482Y-80974188D01*
X192300000Y-80961928D01*
X190500000Y-80961928D01*
X190375518Y-80974188D01*
X190255820Y-81010498D01*
X190145506Y-81069463D01*
X190048815Y-81148815D01*
X189969463Y-81245506D01*
X189910498Y-81355820D01*
X189874188Y-81475518D01*
X189861928Y-81600000D01*
X189084768Y-81600000D01*
X189032312Y-81521495D01*
X188818505Y-81307688D01*
X188567095Y-81139701D01*
X188287743Y-81023989D01*
X187991184Y-80965000D01*
X187688816Y-80965000D01*
X187392257Y-81023989D01*
X187112905Y-81139701D01*
X186861495Y-81307688D01*
X186795056Y-81374127D01*
X186789502Y-81355820D01*
X186730537Y-81245506D01*
X186651185Y-81148815D01*
X186554494Y-81069463D01*
X186444180Y-81010498D01*
X186324482Y-80974188D01*
X186200000Y-80961928D01*
X184400000Y-80961928D01*
X184275518Y-80974188D01*
X184155820Y-81010498D01*
X184045506Y-81069463D01*
X183948815Y-81148815D01*
X183869463Y-81245506D01*
X183810498Y-81355820D01*
X183774188Y-81475518D01*
X183761928Y-81600000D01*
X181127000Y-81600000D01*
X181127000Y-75600000D01*
X183761928Y-75600000D01*
X183761928Y-77400000D01*
X183774188Y-77524482D01*
X183810498Y-77644180D01*
X183869463Y-77754494D01*
X183948815Y-77851185D01*
X184045506Y-77930537D01*
X184155820Y-77989502D01*
X184275518Y-78025812D01*
X184400000Y-78038072D01*
X186200000Y-78038072D01*
X186324482Y-78025812D01*
X186444180Y-77989502D01*
X186554494Y-77930537D01*
X186651185Y-77851185D01*
X186730537Y-77754494D01*
X186789502Y-77644180D01*
X186792813Y-77633265D01*
X186839578Y-77680030D01*
X186955526Y-77564082D01*
X187039208Y-77818261D01*
X187311775Y-77949158D01*
X187604642Y-78024365D01*
X187906553Y-78040991D01*
X188205907Y-77998397D01*
X188491199Y-77898222D01*
X188640792Y-77818261D01*
X188724475Y-77564080D01*
X187840000Y-76679605D01*
X187825858Y-76693748D01*
X187646253Y-76514143D01*
X187660395Y-76500000D01*
X188019605Y-76500000D01*
X188904080Y-77384475D01*
X189158261Y-77300792D01*
X189289158Y-77028225D01*
X189364365Y-76735358D01*
X189380991Y-76433447D01*
X189338397Y-76134093D01*
X189238222Y-75848801D01*
X189158261Y-75699208D01*
X188904080Y-75615525D01*
X188019605Y-76500000D01*
X187660395Y-76500000D01*
X187646253Y-76485858D01*
X187825858Y-76306253D01*
X187840000Y-76320395D01*
X188724475Y-75435920D01*
X188640792Y-75181739D01*
X188368225Y-75050842D01*
X188075358Y-74975635D01*
X187908363Y-74966439D01*
X188114802Y-74760000D01*
X193180001Y-74760000D01*
X193180001Y-75161687D01*
X192961495Y-75307688D01*
X192895056Y-75374127D01*
X192889502Y-75355820D01*
X192830537Y-75245506D01*
X192751185Y-75148815D01*
X192654494Y-75069463D01*
X192544180Y-75010498D01*
X192424482Y-74974188D01*
X192300000Y-74961928D01*
X190500000Y-74961928D01*
X190375518Y-74974188D01*
X190255820Y-75010498D01*
X190145506Y-75069463D01*
X190048815Y-75148815D01*
X189969463Y-75245506D01*
X189910498Y-75355820D01*
X189874188Y-75475518D01*
X189861928Y-75600000D01*
X189861928Y-77400000D01*
X189874188Y-77524482D01*
X189910498Y-77644180D01*
X189969463Y-77754494D01*
X190048815Y-77851185D01*
X190145506Y-77930537D01*
X190255820Y-77989502D01*
X190375518Y-78025812D01*
X190500000Y-78038072D01*
X192300000Y-78038072D01*
X192424482Y-78025812D01*
X192544180Y-77989502D01*
X192654494Y-77930537D01*
X192751185Y-77851185D01*
X192830537Y-77754494D01*
X192889502Y-77644180D01*
X192895056Y-77625873D01*
X192961495Y-77692312D01*
X193212905Y-77860299D01*
X193492257Y-77976011D01*
X193788816Y-78035000D01*
X194091184Y-78035000D01*
X194387743Y-77976011D01*
X194667095Y-77860299D01*
X194918505Y-77692312D01*
X195132312Y-77478505D01*
X195300299Y-77227095D01*
X195416011Y-76947743D01*
X195475000Y-76651184D01*
X195475000Y-76348816D01*
X195416011Y-76052257D01*
X195300299Y-75772905D01*
X195184768Y-75600000D01*
X195961928Y-75600000D01*
X195961928Y-77400000D01*
X195974188Y-77524482D01*
X196010498Y-77644180D01*
X196069463Y-77754494D01*
X196148815Y-77851185D01*
X196245506Y-77930537D01*
X196355820Y-77989502D01*
X196475518Y-78025812D01*
X196600000Y-78038072D01*
X196740074Y-78038072D01*
X196750998Y-78148985D01*
X196794454Y-78292246D01*
X196865026Y-78424276D01*
X196882013Y-78444974D01*
X196960000Y-78540001D01*
X196988998Y-78563799D01*
X199280000Y-80854803D01*
X199280000Y-81161687D01*
X199061495Y-81307688D01*
X198995056Y-81374127D01*
X198989502Y-81355820D01*
X198930537Y-81245506D01*
X198851185Y-81148815D01*
X198754494Y-81069463D01*
X198644180Y-81010498D01*
X198524482Y-80974188D01*
X198400000Y-80961928D01*
X196600000Y-80961928D01*
X196475518Y-80974188D01*
X196355820Y-81010498D01*
X196245506Y-81069463D01*
X196148815Y-81148815D01*
X196069463Y-81245506D01*
X196010498Y-81355820D01*
X195974188Y-81475518D01*
X195961928Y-81600000D01*
X195961928Y-83400000D01*
X195974188Y-83524482D01*
X196010498Y-83644180D01*
X196069463Y-83754494D01*
X196148815Y-83851185D01*
X196245506Y-83930537D01*
X196355820Y-83989502D01*
X196475518Y-84025812D01*
X196600000Y-84038072D01*
X198400000Y-84038072D01*
X198524482Y-84025812D01*
X198644180Y-83989502D01*
X198754494Y-83930537D01*
X198851185Y-83851185D01*
X198930537Y-83754494D01*
X198989502Y-83644180D01*
X198995056Y-83625873D01*
X199061495Y-83692312D01*
X199312905Y-83860299D01*
X199592257Y-83976011D01*
X199888816Y-84035000D01*
X200191184Y-84035000D01*
X200487743Y-83976011D01*
X200767095Y-83860299D01*
X201018505Y-83692312D01*
X201232312Y-83478505D01*
X201400299Y-83227095D01*
X201516011Y-82947743D01*
X201575000Y-82651184D01*
X201575000Y-82348816D01*
X201516011Y-82052257D01*
X201400299Y-81772905D01*
X201232312Y-81521495D01*
X201018505Y-81307688D01*
X200800000Y-81161687D01*
X200800000Y-80577322D01*
X200803676Y-80539999D01*
X200800000Y-80502676D01*
X200800000Y-80502667D01*
X200789003Y-80391014D01*
X200745546Y-80247753D01*
X200674974Y-80115724D01*
X200642147Y-80075724D01*
X200603799Y-80028996D01*
X200603795Y-80028992D01*
X200580001Y-79999999D01*
X200551009Y-79976206D01*
X198582894Y-78008093D01*
X198644180Y-77989502D01*
X198754494Y-77930537D01*
X198851185Y-77851185D01*
X198930537Y-77754494D01*
X198989502Y-77644180D01*
X198992813Y-77633265D01*
X199039578Y-77680030D01*
X199155526Y-77564082D01*
X199239208Y-77818261D01*
X199511775Y-77949158D01*
X199804642Y-78024365D01*
X200106553Y-78040991D01*
X200405907Y-77998397D01*
X200691199Y-77898222D01*
X200840792Y-77818261D01*
X200924475Y-77564080D01*
X200040000Y-76679605D01*
X200025858Y-76693748D01*
X199846253Y-76514143D01*
X199860395Y-76500000D01*
X200219605Y-76500000D01*
X201104080Y-77384475D01*
X201358261Y-77300792D01*
X201489158Y-77028225D01*
X201564365Y-76735358D01*
X201580991Y-76433447D01*
X201538397Y-76134093D01*
X201438222Y-75848801D01*
X201358261Y-75699208D01*
X201104080Y-75615525D01*
X200219605Y-76500000D01*
X199860395Y-76500000D01*
X199846253Y-76485858D01*
X200025858Y-76306253D01*
X200040000Y-76320395D01*
X200924475Y-75435920D01*
X200840792Y-75181739D01*
X200568225Y-75050842D01*
X200275358Y-74975635D01*
X199973447Y-74959009D01*
X199674093Y-75001603D01*
X199388801Y-75101778D01*
X199239208Y-75181739D01*
X199155526Y-75435918D01*
X199039578Y-75319970D01*
X198992813Y-75366735D01*
X198989502Y-75355820D01*
X198930537Y-75245506D01*
X198851185Y-75148815D01*
X198754494Y-75069463D01*
X198644180Y-75010498D01*
X198524482Y-74974188D01*
X198400000Y-74961928D01*
X196600000Y-74961928D01*
X196475518Y-74974188D01*
X196355820Y-75010498D01*
X196245506Y-75069463D01*
X196148815Y-75148815D01*
X196069463Y-75245506D01*
X196010498Y-75355820D01*
X195974188Y-75475518D01*
X195961928Y-75600000D01*
X195184768Y-75600000D01*
X195132312Y-75521495D01*
X194918505Y-75307688D01*
X194700000Y-75161687D01*
X194700000Y-74477323D01*
X194703676Y-74440000D01*
X194700000Y-74402677D01*
X194700000Y-74402667D01*
X194689003Y-74291014D01*
X194645546Y-74147753D01*
X194579941Y-74025016D01*
X194574974Y-74015723D01*
X194540031Y-73973146D01*
X194480001Y-73899999D01*
X194450997Y-73876196D01*
X194063804Y-73489003D01*
X194040001Y-73459999D01*
X193924276Y-73365026D01*
X193792247Y-73294454D01*
X193648986Y-73250997D01*
X193537333Y-73240000D01*
X193537322Y-73240000D01*
X193500000Y-73236324D01*
X193462678Y-73240000D01*
X187837323Y-73240000D01*
X187800000Y-73236324D01*
X187762677Y-73240000D01*
X187762667Y-73240000D01*
X187651014Y-73250997D01*
X187507753Y-73294454D01*
X187375723Y-73365026D01*
X187334324Y-73399002D01*
X187259999Y-73459999D01*
X187236201Y-73488997D01*
X185763271Y-74961928D01*
X184400000Y-74961928D01*
X184275518Y-74974188D01*
X184155820Y-75010498D01*
X184045506Y-75069463D01*
X183948815Y-75148815D01*
X183869463Y-75245506D01*
X183810498Y-75355820D01*
X183774188Y-75475518D01*
X183761928Y-75600000D01*
X181127000Y-75600000D01*
X181127000Y-72127000D01*
X204373000Y-72127000D01*
X204373000Y-109447394D01*
X201947394Y-111873000D01*
X195551030Y-111873000D01*
X183587872Y-100408307D01*
X183568295Y-100392926D01*
X183546094Y-100381660D01*
X183522121Y-100374941D01*
X183500000Y-100373000D01*
X153000000Y-100373000D01*
X152975224Y-100375440D01*
X152951399Y-100382667D01*
X152932690Y-100392304D01*
X148932690Y-102892304D01*
X148912973Y-102907505D01*
X148896600Y-102926260D01*
X148884201Y-102947850D01*
X148876252Y-102971443D01*
X148873000Y-103000000D01*
X148873000Y-110373000D01*
X130052606Y-110373000D01*
X129627000Y-109947394D01*
X129627000Y-105600000D01*
X134961928Y-105600000D01*
X134961928Y-107400000D01*
X134974188Y-107524482D01*
X135010498Y-107644180D01*
X135069463Y-107754494D01*
X135148815Y-107851185D01*
X135245506Y-107930537D01*
X135355820Y-107989502D01*
X135475518Y-108025812D01*
X135600000Y-108038072D01*
X137400000Y-108038072D01*
X137524482Y-108025812D01*
X137644180Y-107989502D01*
X137754494Y-107930537D01*
X137851185Y-107851185D01*
X137930537Y-107754494D01*
X137989502Y-107644180D01*
X137992813Y-107633265D01*
X138039578Y-107680030D01*
X138155526Y-107564082D01*
X138239208Y-107818261D01*
X138511775Y-107949158D01*
X138804642Y-108024365D01*
X139106553Y-108040991D01*
X139405907Y-107998397D01*
X139691199Y-107898222D01*
X139840792Y-107818261D01*
X139924475Y-107564080D01*
X139040000Y-106679605D01*
X139025858Y-106693748D01*
X138846253Y-106514143D01*
X138860395Y-106500000D01*
X139219605Y-106500000D01*
X140104080Y-107384475D01*
X140358261Y-107300792D01*
X140489158Y-107028225D01*
X140564365Y-106735358D01*
X140580991Y-106433447D01*
X140538397Y-106134093D01*
X140438222Y-105848801D01*
X140358261Y-105699208D01*
X140104080Y-105615525D01*
X139219605Y-106500000D01*
X138860395Y-106500000D01*
X138846253Y-106485858D01*
X139025858Y-106306253D01*
X139040000Y-106320395D01*
X139924475Y-105435920D01*
X139840792Y-105181739D01*
X139568225Y-105050842D01*
X139275358Y-104975635D01*
X139108363Y-104966439D01*
X139814802Y-104260000D01*
X144462678Y-104260000D01*
X144500000Y-104263676D01*
X144537322Y-104260000D01*
X144537333Y-104260000D01*
X144648986Y-104249003D01*
X144792247Y-104205546D01*
X144924276Y-104134974D01*
X145040001Y-104040001D01*
X145063803Y-104010998D01*
X145651002Y-103423800D01*
X145680001Y-103400001D01*
X145774974Y-103284276D01*
X145845546Y-103152247D01*
X145889003Y-103008986D01*
X145900000Y-102897333D01*
X145900000Y-102897325D01*
X145903676Y-102860000D01*
X145900000Y-102822675D01*
X145900000Y-101838313D01*
X146118505Y-101692312D01*
X146332312Y-101478505D01*
X146500299Y-101227095D01*
X146616011Y-100947743D01*
X146675000Y-100651184D01*
X146675000Y-100348816D01*
X146616011Y-100052257D01*
X146500299Y-99772905D01*
X146332312Y-99521495D01*
X146118505Y-99307688D01*
X145867095Y-99139701D01*
X145587743Y-99023989D01*
X145291184Y-98965000D01*
X144988816Y-98965000D01*
X144692257Y-99023989D01*
X144412905Y-99139701D01*
X144161495Y-99307688D01*
X144095056Y-99374127D01*
X144089502Y-99355820D01*
X144030537Y-99245506D01*
X143951185Y-99148815D01*
X143854494Y-99069463D01*
X143744180Y-99010498D01*
X143624482Y-98974188D01*
X143500000Y-98961928D01*
X141700000Y-98961928D01*
X141575518Y-98974188D01*
X141455820Y-99010498D01*
X141345506Y-99069463D01*
X141248815Y-99148815D01*
X141169463Y-99245506D01*
X141110498Y-99355820D01*
X141074188Y-99475518D01*
X141061928Y-99600000D01*
X141061928Y-101400000D01*
X141074188Y-101524482D01*
X141110498Y-101644180D01*
X141169463Y-101754494D01*
X141248815Y-101851185D01*
X141345506Y-101930537D01*
X141455820Y-101989502D01*
X141575518Y-102025812D01*
X141700000Y-102038072D01*
X143500000Y-102038072D01*
X143624482Y-102025812D01*
X143744180Y-101989502D01*
X143854494Y-101930537D01*
X143951185Y-101851185D01*
X144030537Y-101754494D01*
X144089502Y-101644180D01*
X144095056Y-101625873D01*
X144161495Y-101692312D01*
X144380001Y-101838313D01*
X144380001Y-102545198D01*
X144185199Y-102740000D01*
X139537325Y-102740000D01*
X139500000Y-102736324D01*
X139462675Y-102740000D01*
X139462667Y-102740000D01*
X139351014Y-102750997D01*
X139207753Y-102794454D01*
X139075724Y-102865026D01*
X138959999Y-102959999D01*
X138936201Y-102988997D01*
X136963271Y-104961928D01*
X135600000Y-104961928D01*
X135475518Y-104974188D01*
X135355820Y-105010498D01*
X135245506Y-105069463D01*
X135148815Y-105148815D01*
X135069463Y-105245506D01*
X135010498Y-105355820D01*
X134974188Y-105475518D01*
X134961928Y-105600000D01*
X129627000Y-105600000D01*
X129627000Y-104605776D01*
X129684010Y-104743411D01*
X129846525Y-104986632D01*
X130053368Y-105193475D01*
X130296589Y-105355990D01*
X130566842Y-105467932D01*
X130853740Y-105525000D01*
X131146260Y-105525000D01*
X131433158Y-105467932D01*
X131703411Y-105355990D01*
X131946632Y-105193475D01*
X132153475Y-104986632D01*
X132315990Y-104743411D01*
X132427932Y-104473158D01*
X132485000Y-104186260D01*
X132485000Y-103893740D01*
X132427932Y-103606842D01*
X132315990Y-103336589D01*
X132153475Y-103093368D01*
X132021620Y-102961513D01*
X132094180Y-102939502D01*
X132204494Y-102880537D01*
X132301185Y-102801185D01*
X132380537Y-102704494D01*
X132439502Y-102594180D01*
X132475812Y-102474482D01*
X132488072Y-102350000D01*
X132485000Y-101785750D01*
X132326250Y-101627000D01*
X131127000Y-101627000D01*
X131127000Y-101647000D01*
X130873000Y-101647000D01*
X130873000Y-101627000D01*
X130853000Y-101627000D01*
X130853000Y-101373000D01*
X130873000Y-101373000D01*
X130873000Y-100173750D01*
X131127000Y-100173750D01*
X131127000Y-101373000D01*
X132326250Y-101373000D01*
X132485000Y-101214250D01*
X132488072Y-100650000D01*
X132475812Y-100525518D01*
X132439502Y-100405820D01*
X132380537Y-100295506D01*
X132301185Y-100198815D01*
X132204494Y-100119463D01*
X132094180Y-100060498D01*
X131974482Y-100024188D01*
X131850000Y-100011928D01*
X131285750Y-100015000D01*
X131127000Y-100173750D01*
X130873000Y-100173750D01*
X130714250Y-100015000D01*
X130150000Y-100011928D01*
X130025518Y-100024188D01*
X129905820Y-100060498D01*
X129795506Y-100119463D01*
X129698815Y-100198815D01*
X129627000Y-100286322D01*
X129627000Y-93600000D01*
X134961928Y-93600000D01*
X134961928Y-95400000D01*
X134974188Y-95524482D01*
X135010498Y-95644180D01*
X135069463Y-95754494D01*
X135148815Y-95851185D01*
X135245506Y-95930537D01*
X135355820Y-95989502D01*
X135475518Y-96025812D01*
X135600000Y-96038072D01*
X135740073Y-96038072D01*
X135750997Y-96148985D01*
X135787025Y-96267754D01*
X135794454Y-96292246D01*
X135865026Y-96424276D01*
X135904871Y-96472826D01*
X135959999Y-96540001D01*
X135989003Y-96563804D01*
X138280001Y-98854804D01*
X138280001Y-99161687D01*
X138061495Y-99307688D01*
X137995056Y-99374127D01*
X137989502Y-99355820D01*
X137930537Y-99245506D01*
X137851185Y-99148815D01*
X137754494Y-99069463D01*
X137644180Y-99010498D01*
X137524482Y-98974188D01*
X137400000Y-98961928D01*
X135600000Y-98961928D01*
X135475518Y-98974188D01*
X135355820Y-99010498D01*
X135245506Y-99069463D01*
X135148815Y-99148815D01*
X135069463Y-99245506D01*
X135010498Y-99355820D01*
X134974188Y-99475518D01*
X134961928Y-99600000D01*
X134961928Y-101400000D01*
X134974188Y-101524482D01*
X135010498Y-101644180D01*
X135069463Y-101754494D01*
X135148815Y-101851185D01*
X135245506Y-101930537D01*
X135355820Y-101989502D01*
X135475518Y-102025812D01*
X135600000Y-102038072D01*
X137400000Y-102038072D01*
X137524482Y-102025812D01*
X137644180Y-101989502D01*
X137754494Y-101930537D01*
X137851185Y-101851185D01*
X137930537Y-101754494D01*
X137989502Y-101644180D01*
X137995056Y-101625873D01*
X138061495Y-101692312D01*
X138312905Y-101860299D01*
X138592257Y-101976011D01*
X138888816Y-102035000D01*
X139191184Y-102035000D01*
X139487743Y-101976011D01*
X139767095Y-101860299D01*
X140018505Y-101692312D01*
X140232312Y-101478505D01*
X140400299Y-101227095D01*
X140516011Y-100947743D01*
X140575000Y-100651184D01*
X140575000Y-100348816D01*
X140516011Y-100052257D01*
X140400299Y-99772905D01*
X140232312Y-99521495D01*
X140018505Y-99307688D01*
X139800000Y-99161687D01*
X139800000Y-98577322D01*
X139803676Y-98539999D01*
X139800000Y-98502676D01*
X139800000Y-98502667D01*
X139789003Y-98391014D01*
X139745546Y-98247753D01*
X139674974Y-98115724D01*
X139661811Y-98099685D01*
X139603799Y-98028996D01*
X139603795Y-98028992D01*
X139580001Y-97999999D01*
X139551008Y-97976205D01*
X137582894Y-96008093D01*
X137644180Y-95989502D01*
X137754494Y-95930537D01*
X137851185Y-95851185D01*
X137930537Y-95754494D01*
X137989502Y-95644180D01*
X137992813Y-95633265D01*
X138039578Y-95680030D01*
X138155526Y-95564082D01*
X138239208Y-95818261D01*
X138511775Y-95949158D01*
X138804642Y-96024365D01*
X139106553Y-96040991D01*
X139405907Y-95998397D01*
X139691199Y-95898222D01*
X139840792Y-95818261D01*
X139924475Y-95564080D01*
X139040000Y-94679605D01*
X139025858Y-94693748D01*
X138846253Y-94514143D01*
X138860395Y-94500000D01*
X139219605Y-94500000D01*
X140104080Y-95384475D01*
X140358261Y-95300792D01*
X140489158Y-95028225D01*
X140564365Y-94735358D01*
X140580991Y-94433447D01*
X140538397Y-94134093D01*
X140438222Y-93848801D01*
X140358261Y-93699208D01*
X140104080Y-93615525D01*
X139219605Y-94500000D01*
X138860395Y-94500000D01*
X138846253Y-94485858D01*
X139025858Y-94306253D01*
X139040000Y-94320395D01*
X139760395Y-93600000D01*
X141061928Y-93600000D01*
X141061928Y-95400000D01*
X141074188Y-95524482D01*
X141110498Y-95644180D01*
X141169463Y-95754494D01*
X141248815Y-95851185D01*
X141345506Y-95930537D01*
X141455820Y-95989502D01*
X141575518Y-96025812D01*
X141700000Y-96038072D01*
X143500000Y-96038072D01*
X143624482Y-96025812D01*
X143744180Y-95989502D01*
X143854494Y-95930537D01*
X143951185Y-95851185D01*
X144030537Y-95754494D01*
X144089502Y-95644180D01*
X144092813Y-95633265D01*
X144139578Y-95680030D01*
X144255526Y-95564082D01*
X144339208Y-95818261D01*
X144611775Y-95949158D01*
X144904642Y-96024365D01*
X145206553Y-96040991D01*
X145505907Y-95998397D01*
X145791199Y-95898222D01*
X145940792Y-95818261D01*
X146024475Y-95564080D01*
X145140000Y-94679605D01*
X145125858Y-94693748D01*
X144946253Y-94514143D01*
X144960395Y-94500000D01*
X145319605Y-94500000D01*
X146204080Y-95384475D01*
X146458261Y-95300792D01*
X146589158Y-95028225D01*
X146664365Y-94735358D01*
X146680991Y-94433447D01*
X146638397Y-94134093D01*
X146538222Y-93848801D01*
X146458261Y-93699208D01*
X146204080Y-93615525D01*
X145319605Y-94500000D01*
X144960395Y-94500000D01*
X144946253Y-94485858D01*
X145125858Y-94306253D01*
X145140000Y-94320395D01*
X146024475Y-93435920D01*
X145940792Y-93181739D01*
X145668225Y-93050842D01*
X145375358Y-92975635D01*
X145208363Y-92966439D01*
X145414802Y-92760000D01*
X150185199Y-92760000D01*
X150480001Y-93054802D01*
X150480001Y-93161687D01*
X150261495Y-93307688D01*
X150195056Y-93374127D01*
X150189502Y-93355820D01*
X150130537Y-93245506D01*
X150051185Y-93148815D01*
X149954494Y-93069463D01*
X149844180Y-93010498D01*
X149724482Y-92974188D01*
X149600000Y-92961928D01*
X147800000Y-92961928D01*
X147675518Y-92974188D01*
X147555820Y-93010498D01*
X147445506Y-93069463D01*
X147348815Y-93148815D01*
X147269463Y-93245506D01*
X147210498Y-93355820D01*
X147174188Y-93475518D01*
X147161928Y-93600000D01*
X147161928Y-95400000D01*
X147174188Y-95524482D01*
X147210498Y-95644180D01*
X147269463Y-95754494D01*
X147348815Y-95851185D01*
X147445506Y-95930537D01*
X147555820Y-95989502D01*
X147675518Y-96025812D01*
X147800000Y-96038072D01*
X149600000Y-96038072D01*
X149724482Y-96025812D01*
X149844180Y-95989502D01*
X149954494Y-95930537D01*
X150051185Y-95851185D01*
X150130537Y-95754494D01*
X150189502Y-95644180D01*
X150195056Y-95625873D01*
X150261495Y-95692312D01*
X150512905Y-95860299D01*
X150792257Y-95976011D01*
X151088816Y-96035000D01*
X151391184Y-96035000D01*
X151687743Y-95976011D01*
X151967095Y-95860299D01*
X152218505Y-95692312D01*
X152432312Y-95478505D01*
X152600299Y-95227095D01*
X152716011Y-94947743D01*
X152775000Y-94651184D01*
X152775000Y-94348816D01*
X152716011Y-94052257D01*
X152600299Y-93772905D01*
X152484768Y-93600000D01*
X153261928Y-93600000D01*
X153261928Y-95400000D01*
X153274188Y-95524482D01*
X153310498Y-95644180D01*
X153369463Y-95754494D01*
X153448815Y-95851185D01*
X153545506Y-95930537D01*
X153655820Y-95989502D01*
X153775518Y-96025812D01*
X153900000Y-96038072D01*
X155263270Y-96038072D01*
X156236200Y-97011002D01*
X156259999Y-97040001D01*
X156288997Y-97063799D01*
X156375723Y-97134974D01*
X156459962Y-97180001D01*
X156507753Y-97205546D01*
X156651014Y-97249003D01*
X156762667Y-97260000D01*
X156762676Y-97260000D01*
X156799999Y-97263676D01*
X156837322Y-97260000D01*
X163137378Y-97260000D01*
X163147754Y-97265546D01*
X163291015Y-97309003D01*
X163440000Y-97323677D01*
X163588986Y-97309003D01*
X163732247Y-97265546D01*
X163864276Y-97194974D01*
X163980001Y-97100001D01*
X164074974Y-96984276D01*
X164145546Y-96852247D01*
X164189003Y-96708986D01*
X164200000Y-96597333D01*
X164200000Y-96597323D01*
X164203676Y-96560000D01*
X164200000Y-96522678D01*
X164200000Y-95838313D01*
X164418505Y-95692312D01*
X164632312Y-95478505D01*
X164800299Y-95227095D01*
X164916011Y-94947743D01*
X164975000Y-94651184D01*
X164975000Y-94348816D01*
X164916011Y-94052257D01*
X164800299Y-93772905D01*
X164684768Y-93600000D01*
X165461928Y-93600000D01*
X165461928Y-95400000D01*
X165474188Y-95524482D01*
X165510498Y-95644180D01*
X165569463Y-95754494D01*
X165648815Y-95851185D01*
X165745506Y-95930537D01*
X165855820Y-95989502D01*
X165975518Y-96025812D01*
X166100000Y-96038072D01*
X167463271Y-96038072D01*
X168936201Y-97511003D01*
X168959999Y-97540001D01*
X168988997Y-97563799D01*
X169075723Y-97634974D01*
X169207753Y-97705546D01*
X169351014Y-97749003D01*
X169462667Y-97760000D01*
X169462677Y-97760000D01*
X169500000Y-97763676D01*
X169537323Y-97760000D01*
X175242678Y-97760000D01*
X175280000Y-97763676D01*
X175317322Y-97760000D01*
X175317333Y-97760000D01*
X175428986Y-97749003D01*
X175572247Y-97705546D01*
X175704276Y-97634974D01*
X175820001Y-97540001D01*
X175843804Y-97510997D01*
X176150997Y-97203804D01*
X176180001Y-97180001D01*
X176274974Y-97064276D01*
X176345546Y-96932247D01*
X176389003Y-96788986D01*
X176400000Y-96677333D01*
X176400000Y-96677323D01*
X176403676Y-96640000D01*
X176400000Y-96602677D01*
X176400000Y-95838313D01*
X176618505Y-95692312D01*
X176832312Y-95478505D01*
X177000299Y-95227095D01*
X177116011Y-94947743D01*
X177175000Y-94651184D01*
X177175000Y-94348816D01*
X177116011Y-94052257D01*
X177000299Y-93772905D01*
X176884768Y-93600000D01*
X177661928Y-93600000D01*
X177661928Y-95400000D01*
X177674188Y-95524482D01*
X177710498Y-95644180D01*
X177769463Y-95754494D01*
X177848815Y-95851185D01*
X177945506Y-95930537D01*
X178055820Y-95989502D01*
X178175518Y-96025812D01*
X178300000Y-96038072D01*
X180100000Y-96038072D01*
X180224482Y-96025812D01*
X180344180Y-95989502D01*
X180454494Y-95930537D01*
X180551185Y-95851185D01*
X180630537Y-95754494D01*
X180689502Y-95644180D01*
X180695056Y-95625873D01*
X180761495Y-95692312D01*
X181012905Y-95860299D01*
X181292257Y-95976011D01*
X181588816Y-96035000D01*
X181891184Y-96035000D01*
X182187743Y-95976011D01*
X182467095Y-95860299D01*
X182718505Y-95692312D01*
X182932312Y-95478505D01*
X183078313Y-95260000D01*
X183761928Y-95260000D01*
X183761928Y-95400000D01*
X183774188Y-95524482D01*
X183810498Y-95644180D01*
X183869463Y-95754494D01*
X183948815Y-95851185D01*
X184045506Y-95930537D01*
X184155820Y-95989502D01*
X184275518Y-96025812D01*
X184400000Y-96038072D01*
X186200000Y-96038072D01*
X186324482Y-96025812D01*
X186444180Y-95989502D01*
X186554494Y-95930537D01*
X186651185Y-95851185D01*
X186730537Y-95754494D01*
X186789502Y-95644180D01*
X186792813Y-95633265D01*
X186839578Y-95680030D01*
X186955526Y-95564082D01*
X187039208Y-95818261D01*
X187311775Y-95949158D01*
X187604642Y-96024365D01*
X187906553Y-96040991D01*
X188205907Y-95998397D01*
X188491199Y-95898222D01*
X188640792Y-95818261D01*
X188724475Y-95564080D01*
X187840000Y-94679605D01*
X187825858Y-94693748D01*
X187646253Y-94514143D01*
X187660395Y-94500000D01*
X188019605Y-94500000D01*
X188904080Y-95384475D01*
X189158261Y-95300792D01*
X189289158Y-95028225D01*
X189364365Y-94735358D01*
X189380991Y-94433447D01*
X189338397Y-94134093D01*
X189238222Y-93848801D01*
X189158261Y-93699208D01*
X188904080Y-93615525D01*
X188019605Y-94500000D01*
X187660395Y-94500000D01*
X187646253Y-94485858D01*
X187825858Y-94306253D01*
X187840000Y-94320395D01*
X188560395Y-93600000D01*
X189861928Y-93600000D01*
X189861928Y-95400000D01*
X189874188Y-95524482D01*
X189910498Y-95644180D01*
X189969463Y-95754494D01*
X190048815Y-95851185D01*
X190145506Y-95930537D01*
X190255820Y-95989502D01*
X190375518Y-96025812D01*
X190500000Y-96038072D01*
X190640001Y-96038072D01*
X190640001Y-97362668D01*
X190636324Y-97400000D01*
X190640001Y-97437333D01*
X190650998Y-97548986D01*
X190664180Y-97592442D01*
X190694454Y-97692246D01*
X190765026Y-97824276D01*
X190831297Y-97905026D01*
X190860000Y-97940001D01*
X190888998Y-97963799D01*
X191887126Y-98961928D01*
X190500000Y-98961928D01*
X190375518Y-98974188D01*
X190255820Y-99010498D01*
X190145506Y-99069463D01*
X190048815Y-99148815D01*
X189969463Y-99245506D01*
X189910498Y-99355820D01*
X189874188Y-99475518D01*
X189861928Y-99600000D01*
X189861928Y-101400000D01*
X189874188Y-101524482D01*
X189910498Y-101644180D01*
X189969463Y-101754494D01*
X190048815Y-101851185D01*
X190145506Y-101930537D01*
X190255820Y-101989502D01*
X190375518Y-102025812D01*
X190500000Y-102038072D01*
X192300000Y-102038072D01*
X192424482Y-102025812D01*
X192544180Y-101989502D01*
X192654494Y-101930537D01*
X192751185Y-101851185D01*
X192830537Y-101754494D01*
X192889502Y-101644180D01*
X192895056Y-101625873D01*
X192961495Y-101692312D01*
X193212905Y-101860299D01*
X193492257Y-101976011D01*
X193788816Y-102035000D01*
X194091184Y-102035000D01*
X194387743Y-101976011D01*
X194667095Y-101860299D01*
X194918505Y-101692312D01*
X195132312Y-101478505D01*
X195300299Y-101227095D01*
X195416011Y-100947743D01*
X195475000Y-100651184D01*
X195475000Y-100348816D01*
X195416011Y-100052257D01*
X195300299Y-99772905D01*
X195184768Y-99600000D01*
X195961928Y-99600000D01*
X195961928Y-101400000D01*
X195974188Y-101524482D01*
X196010498Y-101644180D01*
X196069463Y-101754494D01*
X196148815Y-101851185D01*
X196245506Y-101930537D01*
X196355820Y-101989502D01*
X196475518Y-102025812D01*
X196600000Y-102038072D01*
X196740074Y-102038072D01*
X196750998Y-102148986D01*
X196752657Y-102154454D01*
X196794454Y-102292246D01*
X196865026Y-102424276D01*
X196931759Y-102505589D01*
X196960000Y-102540001D01*
X196988998Y-102563799D01*
X199280000Y-104854803D01*
X199280000Y-105161687D01*
X199061495Y-105307688D01*
X198995056Y-105374127D01*
X198989502Y-105355820D01*
X198930537Y-105245506D01*
X198851185Y-105148815D01*
X198754494Y-105069463D01*
X198644180Y-105010498D01*
X198524482Y-104974188D01*
X198400000Y-104961928D01*
X196600000Y-104961928D01*
X196475518Y-104974188D01*
X196355820Y-105010498D01*
X196245506Y-105069463D01*
X196148815Y-105148815D01*
X196069463Y-105245506D01*
X196010498Y-105355820D01*
X195974188Y-105475518D01*
X195961928Y-105600000D01*
X195961928Y-107400000D01*
X195974188Y-107524482D01*
X196010498Y-107644180D01*
X196069463Y-107754494D01*
X196148815Y-107851185D01*
X196245506Y-107930537D01*
X196355820Y-107989502D01*
X196475518Y-108025812D01*
X196600000Y-108038072D01*
X198400000Y-108038072D01*
X198524482Y-108025812D01*
X198644180Y-107989502D01*
X198754494Y-107930537D01*
X198851185Y-107851185D01*
X198930537Y-107754494D01*
X198989502Y-107644180D01*
X198995056Y-107625873D01*
X199061495Y-107692312D01*
X199312905Y-107860299D01*
X199592257Y-107976011D01*
X199888816Y-108035000D01*
X200191184Y-108035000D01*
X200487743Y-107976011D01*
X200767095Y-107860299D01*
X201018505Y-107692312D01*
X201232312Y-107478505D01*
X201400299Y-107227095D01*
X201516011Y-106947743D01*
X201575000Y-106651184D01*
X201575000Y-106348816D01*
X201516011Y-106052257D01*
X201400299Y-105772905D01*
X201232312Y-105521495D01*
X201018505Y-105307688D01*
X200800000Y-105161687D01*
X200800000Y-104577322D01*
X200803676Y-104539999D01*
X200800000Y-104502676D01*
X200800000Y-104502667D01*
X200789003Y-104391014D01*
X200745546Y-104247753D01*
X200674974Y-104115724D01*
X200632858Y-104064405D01*
X200603799Y-104028996D01*
X200603795Y-104028992D01*
X200580001Y-103999999D01*
X200551009Y-103976206D01*
X198582894Y-102008093D01*
X198644180Y-101989502D01*
X198754494Y-101930537D01*
X198851185Y-101851185D01*
X198930537Y-101754494D01*
X198989502Y-101644180D01*
X198992813Y-101633265D01*
X199039578Y-101680030D01*
X199155526Y-101564082D01*
X199239208Y-101818261D01*
X199511775Y-101949158D01*
X199804642Y-102024365D01*
X200106553Y-102040991D01*
X200405907Y-101998397D01*
X200691199Y-101898222D01*
X200840792Y-101818261D01*
X200924475Y-101564080D01*
X200040000Y-100679605D01*
X200025858Y-100693748D01*
X199846253Y-100514143D01*
X199860395Y-100500000D01*
X200219605Y-100500000D01*
X201104080Y-101384475D01*
X201358261Y-101300792D01*
X201489158Y-101028225D01*
X201564365Y-100735358D01*
X201580991Y-100433447D01*
X201538397Y-100134093D01*
X201438222Y-99848801D01*
X201358261Y-99699208D01*
X201104080Y-99615525D01*
X200219605Y-100500000D01*
X199860395Y-100500000D01*
X199846253Y-100485858D01*
X200025858Y-100306253D01*
X200040000Y-100320395D01*
X200924475Y-99435920D01*
X200840792Y-99181739D01*
X200568225Y-99050842D01*
X200275358Y-98975635D01*
X199973447Y-98959009D01*
X199674093Y-99001603D01*
X199388801Y-99101778D01*
X199239208Y-99181739D01*
X199155526Y-99435918D01*
X199039578Y-99319970D01*
X198992813Y-99366735D01*
X198989502Y-99355820D01*
X198930537Y-99245506D01*
X198851185Y-99148815D01*
X198754494Y-99069463D01*
X198644180Y-99010498D01*
X198524482Y-98974188D01*
X198400000Y-98961928D01*
X196600000Y-98961928D01*
X196475518Y-98974188D01*
X196355820Y-99010498D01*
X196245506Y-99069463D01*
X196148815Y-99148815D01*
X196069463Y-99245506D01*
X196010498Y-99355820D01*
X195974188Y-99475518D01*
X195961928Y-99600000D01*
X195184768Y-99600000D01*
X195132312Y-99521495D01*
X194918505Y-99307688D01*
X194667095Y-99139701D01*
X194387743Y-99023989D01*
X194091184Y-98965000D01*
X194039803Y-98965000D01*
X192160000Y-97085199D01*
X192160000Y-96038072D01*
X192300000Y-96038072D01*
X192424482Y-96025812D01*
X192544180Y-95989502D01*
X192654494Y-95930537D01*
X192751185Y-95851185D01*
X192830537Y-95754494D01*
X192889502Y-95644180D01*
X192892813Y-95633265D01*
X192939578Y-95680030D01*
X193055526Y-95564082D01*
X193139208Y-95818261D01*
X193411775Y-95949158D01*
X193704642Y-96024365D01*
X194006553Y-96040991D01*
X194305907Y-95998397D01*
X194591199Y-95898222D01*
X194740792Y-95818261D01*
X194824475Y-95564080D01*
X193940000Y-94679605D01*
X193925858Y-94693748D01*
X193746253Y-94514143D01*
X193760395Y-94500000D01*
X194119605Y-94500000D01*
X195004080Y-95384475D01*
X195258261Y-95300792D01*
X195389158Y-95028225D01*
X195464365Y-94735358D01*
X195480991Y-94433447D01*
X195438397Y-94134093D01*
X195338222Y-93848801D01*
X195258261Y-93699208D01*
X195004080Y-93615525D01*
X194119605Y-94500000D01*
X193760395Y-94500000D01*
X193746253Y-94485858D01*
X193925858Y-94306253D01*
X193940000Y-94320395D01*
X194824475Y-93435920D01*
X194740792Y-93181739D01*
X194468225Y-93050842D01*
X194175358Y-92975635D01*
X193873447Y-92959009D01*
X193574093Y-93001603D01*
X193288801Y-93101778D01*
X193139208Y-93181739D01*
X193055526Y-93435918D01*
X192939578Y-93319970D01*
X192892813Y-93366735D01*
X192889502Y-93355820D01*
X192830537Y-93245506D01*
X192751185Y-93148815D01*
X192654494Y-93069463D01*
X192544180Y-93010498D01*
X192424482Y-92974188D01*
X192300000Y-92961928D01*
X190500000Y-92961928D01*
X190375518Y-92974188D01*
X190255820Y-93010498D01*
X190145506Y-93069463D01*
X190048815Y-93148815D01*
X189969463Y-93245506D01*
X189910498Y-93355820D01*
X189874188Y-93475518D01*
X189861928Y-93600000D01*
X188560395Y-93600000D01*
X188724475Y-93435920D01*
X188640792Y-93181739D01*
X188368225Y-93050842D01*
X188075358Y-92975635D01*
X187773447Y-92959009D01*
X187474093Y-93001603D01*
X187188801Y-93101778D01*
X187039208Y-93181739D01*
X186955526Y-93435918D01*
X186839578Y-93319970D01*
X186792813Y-93366735D01*
X186789502Y-93355820D01*
X186730537Y-93245506D01*
X186651185Y-93148815D01*
X186554494Y-93069463D01*
X186444180Y-93010498D01*
X186324482Y-92974188D01*
X186200000Y-92961928D01*
X184400000Y-92961928D01*
X184275518Y-92974188D01*
X184155820Y-93010498D01*
X184045506Y-93069463D01*
X183948815Y-93148815D01*
X183869463Y-93245506D01*
X183810498Y-93355820D01*
X183774188Y-93475518D01*
X183761928Y-93600000D01*
X183761928Y-93740000D01*
X183078313Y-93740000D01*
X182932312Y-93521495D01*
X182718505Y-93307688D01*
X182467095Y-93139701D01*
X182187743Y-93023989D01*
X181891184Y-92965000D01*
X181588816Y-92965000D01*
X181292257Y-93023989D01*
X181012905Y-93139701D01*
X180761495Y-93307688D01*
X180695056Y-93374127D01*
X180689502Y-93355820D01*
X180630537Y-93245506D01*
X180551185Y-93148815D01*
X180454494Y-93069463D01*
X180344180Y-93010498D01*
X180224482Y-92974188D01*
X180100000Y-92961928D01*
X178300000Y-92961928D01*
X178175518Y-92974188D01*
X178055820Y-93010498D01*
X177945506Y-93069463D01*
X177848815Y-93148815D01*
X177769463Y-93245506D01*
X177710498Y-93355820D01*
X177674188Y-93475518D01*
X177661928Y-93600000D01*
X176884768Y-93600000D01*
X176832312Y-93521495D01*
X176618505Y-93307688D01*
X176367095Y-93139701D01*
X176087743Y-93023989D01*
X175791184Y-92965000D01*
X175488816Y-92965000D01*
X175192257Y-93023989D01*
X174912905Y-93139701D01*
X174661495Y-93307688D01*
X174595056Y-93374127D01*
X174589502Y-93355820D01*
X174530537Y-93245506D01*
X174451185Y-93148815D01*
X174354494Y-93069463D01*
X174244180Y-93010498D01*
X174124482Y-92974188D01*
X174000000Y-92961928D01*
X172200000Y-92961928D01*
X172075518Y-92974188D01*
X171955820Y-93010498D01*
X171845506Y-93069463D01*
X171748815Y-93148815D01*
X171669463Y-93245506D01*
X171610498Y-93355820D01*
X171574188Y-93475518D01*
X171561928Y-93600000D01*
X171561928Y-95400000D01*
X171574188Y-95524482D01*
X171610498Y-95644180D01*
X171669463Y-95754494D01*
X171748815Y-95851185D01*
X171845506Y-95930537D01*
X171955820Y-95989502D01*
X172075518Y-96025812D01*
X172200000Y-96038072D01*
X174000000Y-96038072D01*
X174124482Y-96025812D01*
X174244180Y-95989502D01*
X174354494Y-95930537D01*
X174451185Y-95851185D01*
X174530537Y-95754494D01*
X174589502Y-95644180D01*
X174595056Y-95625873D01*
X174661495Y-95692312D01*
X174880001Y-95838313D01*
X174880001Y-96240000D01*
X169814802Y-96240000D01*
X169614642Y-96039840D01*
X169905907Y-95998397D01*
X170191199Y-95898222D01*
X170340792Y-95818261D01*
X170424475Y-95564080D01*
X169540000Y-94679605D01*
X169525858Y-94693748D01*
X169346253Y-94514143D01*
X169360395Y-94500000D01*
X169719605Y-94500000D01*
X170604080Y-95384475D01*
X170858261Y-95300792D01*
X170989158Y-95028225D01*
X171064365Y-94735358D01*
X171080991Y-94433447D01*
X171038397Y-94134093D01*
X170938222Y-93848801D01*
X170858261Y-93699208D01*
X170604080Y-93615525D01*
X169719605Y-94500000D01*
X169360395Y-94500000D01*
X169346253Y-94485858D01*
X169525858Y-94306253D01*
X169540000Y-94320395D01*
X170424475Y-93435920D01*
X170340792Y-93181739D01*
X170068225Y-93050842D01*
X169775358Y-92975635D01*
X169473447Y-92959009D01*
X169174093Y-93001603D01*
X168888801Y-93101778D01*
X168739208Y-93181739D01*
X168655526Y-93435918D01*
X168539578Y-93319970D01*
X168492813Y-93366735D01*
X168489502Y-93355820D01*
X168430537Y-93245506D01*
X168351185Y-93148815D01*
X168254494Y-93069463D01*
X168144180Y-93010498D01*
X168024482Y-92974188D01*
X167900000Y-92961928D01*
X166100000Y-92961928D01*
X165975518Y-92974188D01*
X165855820Y-93010498D01*
X165745506Y-93069463D01*
X165648815Y-93148815D01*
X165569463Y-93245506D01*
X165510498Y-93355820D01*
X165474188Y-93475518D01*
X165461928Y-93600000D01*
X164684768Y-93600000D01*
X164632312Y-93521495D01*
X164418505Y-93307688D01*
X164167095Y-93139701D01*
X163887743Y-93023989D01*
X163591184Y-92965000D01*
X163288816Y-92965000D01*
X162992257Y-93023989D01*
X162712905Y-93139701D01*
X162461495Y-93307688D01*
X162395056Y-93374127D01*
X162389502Y-93355820D01*
X162330537Y-93245506D01*
X162251185Y-93148815D01*
X162154494Y-93069463D01*
X162044180Y-93010498D01*
X161924482Y-92974188D01*
X161800000Y-92961928D01*
X160000000Y-92961928D01*
X159875518Y-92974188D01*
X159755820Y-93010498D01*
X159645506Y-93069463D01*
X159548815Y-93148815D01*
X159469463Y-93245506D01*
X159410498Y-93355820D01*
X159374188Y-93475518D01*
X159361928Y-93600000D01*
X159361928Y-95400000D01*
X159374188Y-95524482D01*
X159410498Y-95644180D01*
X159461716Y-95740000D01*
X158166558Y-95740000D01*
X158224475Y-95564080D01*
X157340000Y-94679605D01*
X157325858Y-94693748D01*
X157146253Y-94514143D01*
X157160395Y-94500000D01*
X157519605Y-94500000D01*
X158404080Y-95384475D01*
X158658261Y-95300792D01*
X158789158Y-95028225D01*
X158864365Y-94735358D01*
X158880991Y-94433447D01*
X158838397Y-94134093D01*
X158738222Y-93848801D01*
X158658261Y-93699208D01*
X158404080Y-93615525D01*
X157519605Y-94500000D01*
X157160395Y-94500000D01*
X157146253Y-94485858D01*
X157325858Y-94306253D01*
X157340000Y-94320395D01*
X158224475Y-93435920D01*
X158140792Y-93181739D01*
X157868225Y-93050842D01*
X157575358Y-92975635D01*
X157273447Y-92959009D01*
X156974093Y-93001603D01*
X156688801Y-93101778D01*
X156539208Y-93181739D01*
X156455526Y-93435918D01*
X156339578Y-93319970D01*
X156292813Y-93366735D01*
X156289502Y-93355820D01*
X156230537Y-93245506D01*
X156151185Y-93148815D01*
X156054494Y-93069463D01*
X155944180Y-93010498D01*
X155824482Y-92974188D01*
X155700000Y-92961928D01*
X153900000Y-92961928D01*
X153775518Y-92974188D01*
X153655820Y-93010498D01*
X153545506Y-93069463D01*
X153448815Y-93148815D01*
X153369463Y-93245506D01*
X153310498Y-93355820D01*
X153274188Y-93475518D01*
X153261928Y-93600000D01*
X152484768Y-93600000D01*
X152432312Y-93521495D01*
X152218505Y-93307688D01*
X152000000Y-93161687D01*
X152000000Y-92777322D01*
X152003676Y-92739999D01*
X152000000Y-92702676D01*
X152000000Y-92702667D01*
X151989003Y-92591014D01*
X151945546Y-92447753D01*
X151932997Y-92424276D01*
X151874974Y-92315723D01*
X151803799Y-92228997D01*
X151780001Y-92199999D01*
X151751002Y-92176201D01*
X151063803Y-91489002D01*
X151040001Y-91459999D01*
X150924276Y-91365026D01*
X150792247Y-91294454D01*
X150648986Y-91250997D01*
X150537333Y-91240000D01*
X150537322Y-91240000D01*
X150500000Y-91236324D01*
X150462678Y-91240000D01*
X145137323Y-91240000D01*
X145100000Y-91236324D01*
X145062677Y-91240000D01*
X145062667Y-91240000D01*
X144951014Y-91250997D01*
X144807753Y-91294454D01*
X144675723Y-91365026D01*
X144592083Y-91433668D01*
X144559999Y-91459999D01*
X144536201Y-91488997D01*
X143063271Y-92961928D01*
X141700000Y-92961928D01*
X141575518Y-92974188D01*
X141455820Y-93010498D01*
X141345506Y-93069463D01*
X141248815Y-93148815D01*
X141169463Y-93245506D01*
X141110498Y-93355820D01*
X141074188Y-93475518D01*
X141061928Y-93600000D01*
X139760395Y-93600000D01*
X139924475Y-93435920D01*
X139840792Y-93181739D01*
X139568225Y-93050842D01*
X139275358Y-92975635D01*
X138973447Y-92959009D01*
X138674093Y-93001603D01*
X138388801Y-93101778D01*
X138239208Y-93181739D01*
X138155526Y-93435918D01*
X138039578Y-93319970D01*
X137992813Y-93366735D01*
X137989502Y-93355820D01*
X137930537Y-93245506D01*
X137851185Y-93148815D01*
X137754494Y-93069463D01*
X137644180Y-93010498D01*
X137524482Y-92974188D01*
X137400000Y-92961928D01*
X135600000Y-92961928D01*
X135475518Y-92974188D01*
X135355820Y-93010498D01*
X135245506Y-93069463D01*
X135148815Y-93148815D01*
X135069463Y-93245506D01*
X135010498Y-93355820D01*
X134974188Y-93475518D01*
X134961928Y-93600000D01*
X129627000Y-93600000D01*
X129627000Y-87600000D01*
X134961928Y-87600000D01*
X134961928Y-89400000D01*
X134974188Y-89524482D01*
X135010498Y-89644180D01*
X135069463Y-89754494D01*
X135148815Y-89851185D01*
X135245506Y-89930537D01*
X135355820Y-89989502D01*
X135475518Y-90025812D01*
X135600000Y-90038072D01*
X137400000Y-90038072D01*
X137524482Y-90025812D01*
X137644180Y-89989502D01*
X137754494Y-89930537D01*
X137851185Y-89851185D01*
X137930537Y-89754494D01*
X137989502Y-89644180D01*
X137992813Y-89633265D01*
X138039578Y-89680030D01*
X138155526Y-89564082D01*
X138239208Y-89818261D01*
X138511775Y-89949158D01*
X138804642Y-90024365D01*
X139106553Y-90040991D01*
X139405907Y-89998397D01*
X139691199Y-89898222D01*
X139840792Y-89818261D01*
X139924475Y-89564080D01*
X139040000Y-88679605D01*
X139025858Y-88693748D01*
X138846253Y-88514143D01*
X138860395Y-88500000D01*
X139219605Y-88500000D01*
X140104080Y-89384475D01*
X140358261Y-89300792D01*
X140489158Y-89028225D01*
X140564365Y-88735358D01*
X140580991Y-88433447D01*
X140538397Y-88134093D01*
X140438222Y-87848801D01*
X140358261Y-87699208D01*
X140104080Y-87615525D01*
X139219605Y-88500000D01*
X138860395Y-88500000D01*
X138846253Y-88485858D01*
X139025858Y-88306253D01*
X139040000Y-88320395D01*
X139924475Y-87435920D01*
X139866558Y-87260000D01*
X141161716Y-87260000D01*
X141110498Y-87355820D01*
X141074188Y-87475518D01*
X141061928Y-87600000D01*
X141061928Y-89400000D01*
X141074188Y-89524482D01*
X141110498Y-89644180D01*
X141169463Y-89754494D01*
X141248815Y-89851185D01*
X141345506Y-89930537D01*
X141455820Y-89989502D01*
X141575518Y-90025812D01*
X141700000Y-90038072D01*
X143500000Y-90038072D01*
X143624482Y-90025812D01*
X143744180Y-89989502D01*
X143854494Y-89930537D01*
X143951185Y-89851185D01*
X144030537Y-89754494D01*
X144089502Y-89644180D01*
X144095056Y-89625873D01*
X144161495Y-89692312D01*
X144412905Y-89860299D01*
X144692257Y-89976011D01*
X144988816Y-90035000D01*
X145291184Y-90035000D01*
X145587743Y-89976011D01*
X145867095Y-89860299D01*
X146118505Y-89692312D01*
X146332312Y-89478505D01*
X146500299Y-89227095D01*
X146616011Y-88947743D01*
X146675000Y-88651184D01*
X146675000Y-88348816D01*
X146616011Y-88052257D01*
X146500299Y-87772905D01*
X146384768Y-87600000D01*
X147161928Y-87600000D01*
X147161928Y-89400000D01*
X147174188Y-89524482D01*
X147210498Y-89644180D01*
X147269463Y-89754494D01*
X147348815Y-89851185D01*
X147445506Y-89930537D01*
X147555820Y-89989502D01*
X147675518Y-90025812D01*
X147800000Y-90038072D01*
X149600000Y-90038072D01*
X149724482Y-90025812D01*
X149844180Y-89989502D01*
X149954494Y-89930537D01*
X150051185Y-89851185D01*
X150130537Y-89754494D01*
X150189502Y-89644180D01*
X150192813Y-89633265D01*
X150239578Y-89680030D01*
X150355526Y-89564082D01*
X150439208Y-89818261D01*
X150711775Y-89949158D01*
X151004642Y-90024365D01*
X151306553Y-90040991D01*
X151605907Y-89998397D01*
X151891199Y-89898222D01*
X152040792Y-89818261D01*
X152124475Y-89564080D01*
X151240000Y-88679605D01*
X151225858Y-88693748D01*
X151046253Y-88514143D01*
X151060395Y-88500000D01*
X151419605Y-88500000D01*
X152304080Y-89384475D01*
X152558261Y-89300792D01*
X152689158Y-89028225D01*
X152764365Y-88735358D01*
X152780991Y-88433447D01*
X152738397Y-88134093D01*
X152638222Y-87848801D01*
X152558261Y-87699208D01*
X152304080Y-87615525D01*
X151419605Y-88500000D01*
X151060395Y-88500000D01*
X151046253Y-88485858D01*
X151225858Y-88306253D01*
X151240000Y-88320395D01*
X152124475Y-87435920D01*
X152066558Y-87260000D01*
X153361716Y-87260000D01*
X153310498Y-87355820D01*
X153274188Y-87475518D01*
X153261928Y-87600000D01*
X153261928Y-89400000D01*
X153274188Y-89524482D01*
X153310498Y-89644180D01*
X153369463Y-89754494D01*
X153448815Y-89851185D01*
X153545506Y-89930537D01*
X153655820Y-89989502D01*
X153775518Y-90025812D01*
X153900000Y-90038072D01*
X155700000Y-90038072D01*
X155824482Y-90025812D01*
X155944180Y-89989502D01*
X156054494Y-89930537D01*
X156151185Y-89851185D01*
X156230537Y-89754494D01*
X156289502Y-89644180D01*
X156295056Y-89625873D01*
X156361495Y-89692312D01*
X156612905Y-89860299D01*
X156892257Y-89976011D01*
X157188816Y-90035000D01*
X157491184Y-90035000D01*
X157787743Y-89976011D01*
X158067095Y-89860299D01*
X158318505Y-89692312D01*
X158532312Y-89478505D01*
X158700299Y-89227095D01*
X158816011Y-88947743D01*
X158875000Y-88651184D01*
X158875000Y-88348816D01*
X158816011Y-88052257D01*
X158700299Y-87772905D01*
X158584768Y-87600000D01*
X159361928Y-87600000D01*
X159361928Y-89400000D01*
X159374188Y-89524482D01*
X159410498Y-89644180D01*
X159469463Y-89754494D01*
X159548815Y-89851185D01*
X159645506Y-89930537D01*
X159755820Y-89989502D01*
X159875518Y-90025812D01*
X160000000Y-90038072D01*
X161800000Y-90038072D01*
X161924482Y-90025812D01*
X162044180Y-89989502D01*
X162154494Y-89930537D01*
X162251185Y-89851185D01*
X162330537Y-89754494D01*
X162389502Y-89644180D01*
X162392813Y-89633265D01*
X162439578Y-89680030D01*
X162555526Y-89564082D01*
X162639208Y-89818261D01*
X162911775Y-89949158D01*
X163204642Y-90024365D01*
X163506553Y-90040991D01*
X163805907Y-89998397D01*
X164091199Y-89898222D01*
X164240792Y-89818261D01*
X164324475Y-89564080D01*
X163440000Y-88679605D01*
X163425858Y-88693748D01*
X163246253Y-88514143D01*
X163260395Y-88500000D01*
X163619605Y-88500000D01*
X164504080Y-89384475D01*
X164758261Y-89300792D01*
X164889158Y-89028225D01*
X164964365Y-88735358D01*
X164980991Y-88433447D01*
X164938397Y-88134093D01*
X164838222Y-87848801D01*
X164758261Y-87699208D01*
X164504080Y-87615525D01*
X163619605Y-88500000D01*
X163260395Y-88500000D01*
X163246253Y-88485858D01*
X163425858Y-88306253D01*
X163440000Y-88320395D01*
X164324475Y-87435920D01*
X164266558Y-87260000D01*
X165561716Y-87260000D01*
X165510498Y-87355820D01*
X165474188Y-87475518D01*
X165461928Y-87600000D01*
X165461928Y-89400000D01*
X165474188Y-89524482D01*
X165510498Y-89644180D01*
X165569463Y-89754494D01*
X165648815Y-89851185D01*
X165745506Y-89930537D01*
X165855820Y-89989502D01*
X165975518Y-90025812D01*
X166100000Y-90038072D01*
X167900000Y-90038072D01*
X168024482Y-90025812D01*
X168144180Y-89989502D01*
X168254494Y-89930537D01*
X168351185Y-89851185D01*
X168430537Y-89754494D01*
X168489502Y-89644180D01*
X168495056Y-89625873D01*
X168561495Y-89692312D01*
X168812905Y-89860299D01*
X169092257Y-89976011D01*
X169388816Y-90035000D01*
X169691184Y-90035000D01*
X169987743Y-89976011D01*
X170267095Y-89860299D01*
X170518505Y-89692312D01*
X170732312Y-89478505D01*
X170900299Y-89227095D01*
X171016011Y-88947743D01*
X171075000Y-88651184D01*
X171075000Y-88348816D01*
X171016011Y-88052257D01*
X170900299Y-87772905D01*
X170784768Y-87600000D01*
X171561928Y-87600000D01*
X171561928Y-89400000D01*
X171574188Y-89524482D01*
X171610498Y-89644180D01*
X171669463Y-89754494D01*
X171748815Y-89851185D01*
X171845506Y-89930537D01*
X171955820Y-89989502D01*
X172075518Y-90025812D01*
X172200000Y-90038072D01*
X174000000Y-90038072D01*
X174124482Y-90025812D01*
X174244180Y-89989502D01*
X174354494Y-89930537D01*
X174451185Y-89851185D01*
X174530537Y-89754494D01*
X174589502Y-89644180D01*
X174592813Y-89633265D01*
X174639578Y-89680030D01*
X174755526Y-89564082D01*
X174839208Y-89818261D01*
X175111775Y-89949158D01*
X175404642Y-90024365D01*
X175706553Y-90040991D01*
X176005907Y-89998397D01*
X176291199Y-89898222D01*
X176440792Y-89818261D01*
X176524475Y-89564080D01*
X175640000Y-88679605D01*
X175625858Y-88693748D01*
X175446253Y-88514143D01*
X175460395Y-88500000D01*
X175819605Y-88500000D01*
X176704080Y-89384475D01*
X176958261Y-89300792D01*
X177089158Y-89028225D01*
X177164365Y-88735358D01*
X177180991Y-88433447D01*
X177138397Y-88134093D01*
X177038222Y-87848801D01*
X176958261Y-87699208D01*
X176704080Y-87615525D01*
X175819605Y-88500000D01*
X175460395Y-88500000D01*
X175446253Y-88485858D01*
X175625858Y-88306253D01*
X175640000Y-88320395D01*
X176524475Y-87435920D01*
X176466558Y-87260000D01*
X177761716Y-87260000D01*
X177710498Y-87355820D01*
X177674188Y-87475518D01*
X177661928Y-87600000D01*
X177661928Y-89400000D01*
X177674188Y-89524482D01*
X177710498Y-89644180D01*
X177769463Y-89754494D01*
X177848815Y-89851185D01*
X177945506Y-89930537D01*
X178055820Y-89989502D01*
X178175518Y-90025812D01*
X178300000Y-90038072D01*
X180100000Y-90038072D01*
X180224482Y-90025812D01*
X180344180Y-89989502D01*
X180454494Y-89930537D01*
X180551185Y-89851185D01*
X180630537Y-89754494D01*
X180689502Y-89644180D01*
X180695056Y-89625873D01*
X180761495Y-89692312D01*
X181012905Y-89860299D01*
X181292257Y-89976011D01*
X181588816Y-90035000D01*
X181891184Y-90035000D01*
X182187743Y-89976011D01*
X182467095Y-89860299D01*
X182718505Y-89692312D01*
X182932312Y-89478505D01*
X183100299Y-89227095D01*
X183216011Y-88947743D01*
X183275000Y-88651184D01*
X183275000Y-88348816D01*
X183216011Y-88052257D01*
X183100299Y-87772905D01*
X182932312Y-87521495D01*
X182718505Y-87307688D01*
X182500000Y-87161687D01*
X182500000Y-86797333D01*
X182503677Y-86760000D01*
X182489003Y-86611014D01*
X182470803Y-86551015D01*
X182445546Y-86467753D01*
X182374974Y-86335724D01*
X182280001Y-86219999D01*
X182250997Y-86196196D01*
X182043804Y-85989003D01*
X182020001Y-85959999D01*
X181904276Y-85865026D01*
X181772247Y-85794454D01*
X181628986Y-85750997D01*
X181517333Y-85740000D01*
X181517322Y-85740000D01*
X181480000Y-85736324D01*
X181442678Y-85740000D01*
X175137322Y-85740000D01*
X175099999Y-85736324D01*
X175062676Y-85740000D01*
X175062667Y-85740000D01*
X174951014Y-85750997D01*
X174807753Y-85794454D01*
X174675723Y-85865026D01*
X174597776Y-85928996D01*
X174559999Y-85959999D01*
X174536201Y-85988997D01*
X173563270Y-86961928D01*
X172200000Y-86961928D01*
X172075518Y-86974188D01*
X171955820Y-87010498D01*
X171845506Y-87069463D01*
X171748815Y-87148815D01*
X171669463Y-87245506D01*
X171610498Y-87355820D01*
X171574188Y-87475518D01*
X171561928Y-87600000D01*
X170784768Y-87600000D01*
X170732312Y-87521495D01*
X170518505Y-87307688D01*
X170300000Y-87161687D01*
X170300000Y-86577333D01*
X170303677Y-86540000D01*
X170289003Y-86391015D01*
X170289003Y-86391014D01*
X170245546Y-86247753D01*
X170174974Y-86115724D01*
X170080001Y-85999999D01*
X170058031Y-85981969D01*
X170040001Y-85959999D01*
X169924276Y-85865026D01*
X169792247Y-85794454D01*
X169648986Y-85750997D01*
X169537333Y-85740000D01*
X169537322Y-85740000D01*
X169500000Y-85736324D01*
X169462678Y-85740000D01*
X162937322Y-85740000D01*
X162899999Y-85736324D01*
X162862676Y-85740000D01*
X162862667Y-85740000D01*
X162751014Y-85750997D01*
X162607753Y-85794454D01*
X162475723Y-85865026D01*
X162397776Y-85928996D01*
X162359999Y-85959999D01*
X162336201Y-85988997D01*
X161363270Y-86961928D01*
X160000000Y-86961928D01*
X159875518Y-86974188D01*
X159755820Y-87010498D01*
X159645506Y-87069463D01*
X159548815Y-87148815D01*
X159469463Y-87245506D01*
X159410498Y-87355820D01*
X159374188Y-87475518D01*
X159361928Y-87600000D01*
X158584768Y-87600000D01*
X158532312Y-87521495D01*
X158318505Y-87307688D01*
X158100000Y-87161687D01*
X158100000Y-86877333D01*
X158103677Y-86840000D01*
X158089003Y-86691014D01*
X158045546Y-86547753D01*
X158041402Y-86540000D01*
X157974974Y-86415724D01*
X157880001Y-86299999D01*
X157850997Y-86276196D01*
X157563804Y-85989003D01*
X157540001Y-85959999D01*
X157424276Y-85865026D01*
X157292247Y-85794454D01*
X157148986Y-85750997D01*
X157037333Y-85740000D01*
X157037322Y-85740000D01*
X157000000Y-85736324D01*
X156962678Y-85740000D01*
X150737322Y-85740000D01*
X150699999Y-85736324D01*
X150662676Y-85740000D01*
X150662667Y-85740000D01*
X150551014Y-85750997D01*
X150407753Y-85794454D01*
X150275723Y-85865026D01*
X150197776Y-85928996D01*
X150159999Y-85959999D01*
X150136201Y-85988997D01*
X149163270Y-86961928D01*
X147800000Y-86961928D01*
X147675518Y-86974188D01*
X147555820Y-87010498D01*
X147445506Y-87069463D01*
X147348815Y-87148815D01*
X147269463Y-87245506D01*
X147210498Y-87355820D01*
X147174188Y-87475518D01*
X147161928Y-87600000D01*
X146384768Y-87600000D01*
X146332312Y-87521495D01*
X146118505Y-87307688D01*
X145867095Y-87139701D01*
X145760000Y-87095341D01*
X145760000Y-86537333D01*
X145763677Y-86500000D01*
X145749003Y-86351014D01*
X145705546Y-86207753D01*
X145634974Y-86075724D01*
X145540001Y-85959999D01*
X145424276Y-85865026D01*
X145292247Y-85794454D01*
X145148986Y-85750997D01*
X145037333Y-85740000D01*
X145000000Y-85736323D01*
X144962667Y-85740000D01*
X138537322Y-85740000D01*
X138499999Y-85736324D01*
X138462676Y-85740000D01*
X138462667Y-85740000D01*
X138351014Y-85750997D01*
X138207753Y-85794454D01*
X138075723Y-85865026D01*
X137997776Y-85928996D01*
X137959999Y-85959999D01*
X137936201Y-85988997D01*
X136963270Y-86961928D01*
X135600000Y-86961928D01*
X135475518Y-86974188D01*
X135355820Y-87010498D01*
X135245506Y-87069463D01*
X135148815Y-87148815D01*
X135069463Y-87245506D01*
X135010498Y-87355820D01*
X134974188Y-87475518D01*
X134961928Y-87600000D01*
X129627000Y-87600000D01*
X129627000Y-75600000D01*
X134961928Y-75600000D01*
X134961928Y-77400000D01*
X134974188Y-77524482D01*
X135010498Y-77644180D01*
X135069463Y-77754494D01*
X135148815Y-77851185D01*
X135245506Y-77930537D01*
X135355820Y-77989502D01*
X135475518Y-78025812D01*
X135600000Y-78038072D01*
X135740001Y-78038072D01*
X135740000Y-79922677D01*
X135736324Y-79960000D01*
X135740000Y-79997322D01*
X135740000Y-79997332D01*
X135750997Y-80108985D01*
X135780958Y-80207754D01*
X135794454Y-80252246D01*
X135865026Y-80384276D01*
X135884604Y-80408131D01*
X135959999Y-80500001D01*
X135989003Y-80523804D01*
X136427127Y-80961928D01*
X135600000Y-80961928D01*
X135475518Y-80974188D01*
X135355820Y-81010498D01*
X135245506Y-81069463D01*
X135148815Y-81148815D01*
X135069463Y-81245506D01*
X135010498Y-81355820D01*
X134974188Y-81475518D01*
X134961928Y-81600000D01*
X134961928Y-83400000D01*
X134974188Y-83524482D01*
X135010498Y-83644180D01*
X135069463Y-83754494D01*
X135148815Y-83851185D01*
X135245506Y-83930537D01*
X135355820Y-83989502D01*
X135475518Y-84025812D01*
X135600000Y-84038072D01*
X137400000Y-84038072D01*
X137524482Y-84025812D01*
X137644180Y-83989502D01*
X137754494Y-83930537D01*
X137851185Y-83851185D01*
X137930537Y-83754494D01*
X137989502Y-83644180D01*
X137995056Y-83625873D01*
X138061495Y-83692312D01*
X138312905Y-83860299D01*
X138592257Y-83976011D01*
X138888816Y-84035000D01*
X139191184Y-84035000D01*
X139487743Y-83976011D01*
X139767095Y-83860299D01*
X140018505Y-83692312D01*
X140232312Y-83478505D01*
X140400299Y-83227095D01*
X140516011Y-82947743D01*
X140575000Y-82651184D01*
X140575000Y-82348816D01*
X140516011Y-82052257D01*
X140400299Y-81772905D01*
X140284768Y-81600000D01*
X141061928Y-81600000D01*
X141061928Y-83400000D01*
X141074188Y-83524482D01*
X141110498Y-83644180D01*
X141169463Y-83754494D01*
X141248815Y-83851185D01*
X141345506Y-83930537D01*
X141455820Y-83989502D01*
X141575518Y-84025812D01*
X141700000Y-84038072D01*
X143500000Y-84038072D01*
X143624482Y-84025812D01*
X143744180Y-83989502D01*
X143854494Y-83930537D01*
X143951185Y-83851185D01*
X144030537Y-83754494D01*
X144089502Y-83644180D01*
X144092813Y-83633265D01*
X144139578Y-83680030D01*
X144255526Y-83564082D01*
X144339208Y-83818261D01*
X144611775Y-83949158D01*
X144904642Y-84024365D01*
X145206553Y-84040991D01*
X145505907Y-83998397D01*
X145791199Y-83898222D01*
X145940792Y-83818261D01*
X146024475Y-83564080D01*
X145140000Y-82679605D01*
X145125858Y-82693748D01*
X144946253Y-82514143D01*
X144960395Y-82500000D01*
X145319605Y-82500000D01*
X146204080Y-83384475D01*
X146458261Y-83300792D01*
X146589158Y-83028225D01*
X146664365Y-82735358D01*
X146680991Y-82433447D01*
X146638397Y-82134093D01*
X146538222Y-81848801D01*
X146458261Y-81699208D01*
X146204080Y-81615525D01*
X145319605Y-82500000D01*
X144960395Y-82500000D01*
X144946253Y-82485858D01*
X145125858Y-82306253D01*
X145140000Y-82320395D01*
X146024475Y-81435920D01*
X145966558Y-81260000D01*
X147261716Y-81260000D01*
X147210498Y-81355820D01*
X147174188Y-81475518D01*
X147161928Y-81600000D01*
X147161928Y-83400000D01*
X147174188Y-83524482D01*
X147210498Y-83644180D01*
X147269463Y-83754494D01*
X147348815Y-83851185D01*
X147445506Y-83930537D01*
X147555820Y-83989502D01*
X147675518Y-84025812D01*
X147800000Y-84038072D01*
X149600000Y-84038072D01*
X149724482Y-84025812D01*
X149844180Y-83989502D01*
X149954494Y-83930537D01*
X150051185Y-83851185D01*
X150130537Y-83754494D01*
X150189502Y-83644180D01*
X150195056Y-83625873D01*
X150261495Y-83692312D01*
X150512905Y-83860299D01*
X150792257Y-83976011D01*
X151088816Y-84035000D01*
X151391184Y-84035000D01*
X151687743Y-83976011D01*
X151967095Y-83860299D01*
X152218505Y-83692312D01*
X152432312Y-83478505D01*
X152600299Y-83227095D01*
X152716011Y-82947743D01*
X152775000Y-82651184D01*
X152775000Y-82348816D01*
X152716011Y-82052257D01*
X152600299Y-81772905D01*
X152432312Y-81521495D01*
X152218505Y-81307688D01*
X152000000Y-81161687D01*
X152000000Y-80777322D01*
X152003676Y-80739999D01*
X152000000Y-80702676D01*
X152000000Y-80702667D01*
X151989003Y-80591014D01*
X151945546Y-80447753D01*
X151874974Y-80315724D01*
X151780001Y-80199999D01*
X151750997Y-80176196D01*
X151563804Y-79989003D01*
X151540001Y-79959999D01*
X151424276Y-79865026D01*
X151292247Y-79794454D01*
X151148986Y-79750997D01*
X151037333Y-79740000D01*
X151037322Y-79740000D01*
X151000000Y-79736324D01*
X150962678Y-79740000D01*
X144637322Y-79740000D01*
X144599999Y-79736324D01*
X144562676Y-79740000D01*
X144562667Y-79740000D01*
X144451014Y-79750997D01*
X144307753Y-79794454D01*
X144175723Y-79865026D01*
X144102961Y-79924741D01*
X144059999Y-79959999D01*
X144036201Y-79988997D01*
X143063270Y-80961928D01*
X141700000Y-80961928D01*
X141575518Y-80974188D01*
X141455820Y-81010498D01*
X141345506Y-81069463D01*
X141248815Y-81148815D01*
X141169463Y-81245506D01*
X141110498Y-81355820D01*
X141074188Y-81475518D01*
X141061928Y-81600000D01*
X140284768Y-81600000D01*
X140232312Y-81521495D01*
X140018505Y-81307688D01*
X139767095Y-81139701D01*
X139487743Y-81023989D01*
X139191184Y-80965000D01*
X138888816Y-80965000D01*
X138631071Y-81016268D01*
X137260000Y-79645199D01*
X137260000Y-78038072D01*
X137400000Y-78038072D01*
X137524482Y-78025812D01*
X137644180Y-77989502D01*
X137754494Y-77930537D01*
X137851185Y-77851185D01*
X137930537Y-77754494D01*
X137989502Y-77644180D01*
X137992813Y-77633265D01*
X138039578Y-77680030D01*
X138155526Y-77564082D01*
X138239208Y-77818261D01*
X138511775Y-77949158D01*
X138804642Y-78024365D01*
X139106553Y-78040991D01*
X139405907Y-77998397D01*
X139691199Y-77898222D01*
X139840792Y-77818261D01*
X139924475Y-77564080D01*
X139040000Y-76679605D01*
X139025858Y-76693748D01*
X138846253Y-76514143D01*
X138860395Y-76500000D01*
X139219605Y-76500000D01*
X140104080Y-77384475D01*
X140358261Y-77300792D01*
X140489158Y-77028225D01*
X140564365Y-76735358D01*
X140580991Y-76433447D01*
X140538397Y-76134093D01*
X140438222Y-75848801D01*
X140358261Y-75699208D01*
X140104080Y-75615525D01*
X139219605Y-76500000D01*
X138860395Y-76500000D01*
X138846253Y-76485858D01*
X139025858Y-76306253D01*
X139040000Y-76320395D01*
X139760395Y-75600000D01*
X141061928Y-75600000D01*
X141061928Y-77400000D01*
X141074188Y-77524482D01*
X141110498Y-77644180D01*
X141169463Y-77754494D01*
X141248815Y-77851185D01*
X141345506Y-77930537D01*
X141455820Y-77989502D01*
X141575518Y-78025812D01*
X141700000Y-78038072D01*
X143500000Y-78038072D01*
X143624482Y-78025812D01*
X143744180Y-77989502D01*
X143854494Y-77930537D01*
X143951185Y-77851185D01*
X144030537Y-77754494D01*
X144089502Y-77644180D01*
X144092813Y-77633265D01*
X144139578Y-77680030D01*
X144255526Y-77564082D01*
X144339208Y-77818261D01*
X144611775Y-77949158D01*
X144904642Y-78024365D01*
X145206553Y-78040991D01*
X145505907Y-77998397D01*
X145791199Y-77898222D01*
X145940792Y-77818261D01*
X146024475Y-77564080D01*
X145140000Y-76679605D01*
X145125858Y-76693748D01*
X144946253Y-76514143D01*
X144960395Y-76500000D01*
X145319605Y-76500000D01*
X146204080Y-77384475D01*
X146458261Y-77300792D01*
X146589158Y-77028225D01*
X146664365Y-76735358D01*
X146680991Y-76433447D01*
X146638397Y-76134093D01*
X146538222Y-75848801D01*
X146458261Y-75699208D01*
X146204080Y-75615525D01*
X145319605Y-76500000D01*
X144960395Y-76500000D01*
X144946253Y-76485858D01*
X145125858Y-76306253D01*
X145140000Y-76320395D01*
X146024475Y-75435920D01*
X145966558Y-75260000D01*
X147261716Y-75260000D01*
X147210498Y-75355820D01*
X147174188Y-75475518D01*
X147161928Y-75600000D01*
X147161928Y-77400000D01*
X147174188Y-77524482D01*
X147210498Y-77644180D01*
X147269463Y-77754494D01*
X147348815Y-77851185D01*
X147445506Y-77930537D01*
X147555820Y-77989502D01*
X147675518Y-78025812D01*
X147800000Y-78038072D01*
X149600000Y-78038072D01*
X149724482Y-78025812D01*
X149844180Y-77989502D01*
X149954494Y-77930537D01*
X150051185Y-77851185D01*
X150130537Y-77754494D01*
X150189502Y-77644180D01*
X150195056Y-77625873D01*
X150261495Y-77692312D01*
X150512905Y-77860299D01*
X150792257Y-77976011D01*
X151088816Y-78035000D01*
X151391184Y-78035000D01*
X151687743Y-77976011D01*
X151967095Y-77860299D01*
X152218505Y-77692312D01*
X152432312Y-77478505D01*
X152600299Y-77227095D01*
X152716011Y-76947743D01*
X152775000Y-76651184D01*
X152775000Y-76348816D01*
X152716011Y-76052257D01*
X152600299Y-75772905D01*
X152432312Y-75521495D01*
X152218505Y-75307688D01*
X151967095Y-75139701D01*
X151687743Y-75023989D01*
X151391184Y-74965000D01*
X151088816Y-74965000D01*
X150831070Y-75016269D01*
X149803804Y-73989003D01*
X149780001Y-73959999D01*
X149664276Y-73865026D01*
X149532247Y-73794454D01*
X149388986Y-73750997D01*
X149277333Y-73740000D01*
X149277322Y-73740000D01*
X149240000Y-73736324D01*
X149202678Y-73740000D01*
X143037322Y-73740000D01*
X142999999Y-73736324D01*
X142962676Y-73740000D01*
X142962667Y-73740000D01*
X142851014Y-73750997D01*
X142707753Y-73794454D01*
X142575724Y-73865026D01*
X142459999Y-73959999D01*
X142436200Y-73988998D01*
X142088998Y-74336201D01*
X142060000Y-74359999D01*
X142036202Y-74388997D01*
X142036201Y-74388998D01*
X141965026Y-74475724D01*
X141894454Y-74607754D01*
X141881947Y-74648986D01*
X141850998Y-74751014D01*
X141847425Y-74787290D01*
X141836324Y-74900000D01*
X141840001Y-74937332D01*
X141840001Y-74961928D01*
X141700000Y-74961928D01*
X141575518Y-74974188D01*
X141455820Y-75010498D01*
X141345506Y-75069463D01*
X141248815Y-75148815D01*
X141169463Y-75245506D01*
X141110498Y-75355820D01*
X141074188Y-75475518D01*
X141061928Y-75600000D01*
X139760395Y-75600000D01*
X139924475Y-75435920D01*
X139840792Y-75181739D01*
X139568225Y-75050842D01*
X139275358Y-74975635D01*
X138973447Y-74959009D01*
X138674093Y-75001603D01*
X138388801Y-75101778D01*
X138239208Y-75181739D01*
X138155526Y-75435918D01*
X138039578Y-75319970D01*
X137992813Y-75366735D01*
X137989502Y-75355820D01*
X137930537Y-75245506D01*
X137851185Y-75148815D01*
X137754494Y-75069463D01*
X137644180Y-75010498D01*
X137524482Y-74974188D01*
X137400000Y-74961928D01*
X135600000Y-74961928D01*
X135475518Y-74974188D01*
X135355820Y-75010498D01*
X135245506Y-75069463D01*
X135148815Y-75148815D01*
X135069463Y-75245506D01*
X135010498Y-75355820D01*
X134974188Y-75475518D01*
X134961928Y-75600000D01*
X129627000Y-75600000D01*
X129627000Y-72127000D01*
X154373000Y-72127000D01*
X154373000Y-82000000D01*
G37*
X154373000Y-82000000D02*
X154375440Y-82024776D01*
X154382667Y-82048601D01*
X154394403Y-82070557D01*
X154410197Y-82089803D01*
X154429443Y-82105597D01*
X154451399Y-82117333D01*
X154475224Y-82124560D01*
X154500000Y-82127000D01*
X181000000Y-82127000D01*
X181024776Y-82124560D01*
X181048601Y-82117333D01*
X181070557Y-82105597D01*
X181089803Y-82089803D01*
X181105597Y-82070557D01*
X181117333Y-82048601D01*
X181124560Y-82024776D01*
X181127000Y-82000000D01*
X181127000Y-81600000D01*
X183761928Y-81600000D01*
X183761928Y-83400000D01*
X183774188Y-83524482D01*
X183810498Y-83644180D01*
X183869463Y-83754494D01*
X183948815Y-83851185D01*
X184045506Y-83930537D01*
X184155820Y-83989502D01*
X184275518Y-84025812D01*
X184400000Y-84038072D01*
X186200000Y-84038072D01*
X186324482Y-84025812D01*
X186444180Y-83989502D01*
X186554494Y-83930537D01*
X186651185Y-83851185D01*
X186730537Y-83754494D01*
X186789502Y-83644180D01*
X186795056Y-83625873D01*
X186861495Y-83692312D01*
X187080001Y-83838313D01*
X187080001Y-83845196D01*
X184789003Y-86136196D01*
X184759999Y-86159999D01*
X184723047Y-86205026D01*
X184665026Y-86275724D01*
X184624782Y-86351015D01*
X184594454Y-86407754D01*
X184550997Y-86551015D01*
X184540000Y-86662668D01*
X184540000Y-86662678D01*
X184536324Y-86700000D01*
X184540000Y-86737323D01*
X184540000Y-86961928D01*
X184400000Y-86961928D01*
X184275518Y-86974188D01*
X184155820Y-87010498D01*
X184045506Y-87069463D01*
X183948815Y-87148815D01*
X183869463Y-87245506D01*
X183810498Y-87355820D01*
X183774188Y-87475518D01*
X183761928Y-87600000D01*
X183761928Y-89400000D01*
X183774188Y-89524482D01*
X183810498Y-89644180D01*
X183869463Y-89754494D01*
X183948815Y-89851185D01*
X184045506Y-89930537D01*
X184155820Y-89989502D01*
X184275518Y-90025812D01*
X184400000Y-90038072D01*
X186200000Y-90038072D01*
X186324482Y-90025812D01*
X186444180Y-89989502D01*
X186554494Y-89930537D01*
X186651185Y-89851185D01*
X186730537Y-89754494D01*
X186789502Y-89644180D01*
X186792813Y-89633265D01*
X186839578Y-89680030D01*
X186955526Y-89564082D01*
X187039208Y-89818261D01*
X187311775Y-89949158D01*
X187604642Y-90024365D01*
X187906553Y-90040991D01*
X188205907Y-89998397D01*
X188491199Y-89898222D01*
X188640792Y-89818261D01*
X188724475Y-89564080D01*
X187840000Y-88679605D01*
X187825858Y-88693748D01*
X187646253Y-88514143D01*
X187660395Y-88500000D01*
X188019605Y-88500000D01*
X188904080Y-89384475D01*
X189158261Y-89300792D01*
X189289158Y-89028225D01*
X189364365Y-88735358D01*
X189380991Y-88433447D01*
X189338397Y-88134093D01*
X189238222Y-87848801D01*
X189158261Y-87699208D01*
X188904080Y-87615525D01*
X188019605Y-88500000D01*
X187660395Y-88500000D01*
X187646253Y-88485858D01*
X187825858Y-88306253D01*
X187840000Y-88320395D01*
X188724475Y-87435920D01*
X188640792Y-87181739D01*
X188368225Y-87050842D01*
X188075358Y-86975635D01*
X187773447Y-86959009D01*
X187474093Y-87001603D01*
X187188801Y-87101778D01*
X187039208Y-87181739D01*
X186955526Y-87435918D01*
X186839578Y-87319970D01*
X186792813Y-87366735D01*
X186789502Y-87355820D01*
X186730537Y-87245506D01*
X186651185Y-87148815D01*
X186554494Y-87069463D01*
X186444180Y-87010498D01*
X186324482Y-86974188D01*
X186200000Y-86961928D01*
X186112873Y-86961928D01*
X188351008Y-84723795D01*
X188380001Y-84700001D01*
X188403795Y-84671008D01*
X188403799Y-84671004D01*
X188474973Y-84584277D01*
X188474974Y-84584276D01*
X188545546Y-84452247D01*
X188589003Y-84308986D01*
X188600000Y-84197333D01*
X188600000Y-84197324D01*
X188603676Y-84160001D01*
X188600000Y-84122678D01*
X188600000Y-83838313D01*
X188818505Y-83692312D01*
X189032312Y-83478505D01*
X189200299Y-83227095D01*
X189316011Y-82947743D01*
X189375000Y-82651184D01*
X189375000Y-82348816D01*
X189316011Y-82052257D01*
X189200299Y-81772905D01*
X189084768Y-81600000D01*
X189861928Y-81600000D01*
X189861928Y-83400000D01*
X189874188Y-83524482D01*
X189910498Y-83644180D01*
X189969463Y-83754494D01*
X190048815Y-83851185D01*
X190145506Y-83930537D01*
X190255820Y-83989502D01*
X190375518Y-84025812D01*
X190500000Y-84038072D01*
X190649923Y-84038072D01*
X190650998Y-84048985D01*
X190694454Y-84192246D01*
X190765026Y-84324276D01*
X190836201Y-84411002D01*
X190860000Y-84440001D01*
X190888998Y-84463799D01*
X193180000Y-86754803D01*
X193180000Y-87161687D01*
X192961495Y-87307688D01*
X192895056Y-87374127D01*
X192889502Y-87355820D01*
X192830537Y-87245506D01*
X192751185Y-87148815D01*
X192654494Y-87069463D01*
X192544180Y-87010498D01*
X192424482Y-86974188D01*
X192300000Y-86961928D01*
X190500000Y-86961928D01*
X190375518Y-86974188D01*
X190255820Y-87010498D01*
X190145506Y-87069463D01*
X190048815Y-87148815D01*
X189969463Y-87245506D01*
X189910498Y-87355820D01*
X189874188Y-87475518D01*
X189861928Y-87600000D01*
X189861928Y-89400000D01*
X189874188Y-89524482D01*
X189910498Y-89644180D01*
X189969463Y-89754494D01*
X190048815Y-89851185D01*
X190145506Y-89930537D01*
X190255820Y-89989502D01*
X190375518Y-90025812D01*
X190500000Y-90038072D01*
X192300000Y-90038072D01*
X192424482Y-90025812D01*
X192544180Y-89989502D01*
X192654494Y-89930537D01*
X192751185Y-89851185D01*
X192830537Y-89754494D01*
X192889502Y-89644180D01*
X192895056Y-89625873D01*
X192961495Y-89692312D01*
X193212905Y-89860299D01*
X193492257Y-89976011D01*
X193788816Y-90035000D01*
X194091184Y-90035000D01*
X194387743Y-89976011D01*
X194667095Y-89860299D01*
X194918505Y-89692312D01*
X195132312Y-89478505D01*
X195300299Y-89227095D01*
X195416011Y-88947743D01*
X195475000Y-88651184D01*
X195475000Y-88348816D01*
X195416011Y-88052257D01*
X195300299Y-87772905D01*
X195184768Y-87600000D01*
X195961928Y-87600000D01*
X195961928Y-89400000D01*
X195974188Y-89524482D01*
X196010498Y-89644180D01*
X196069463Y-89754494D01*
X196148815Y-89851185D01*
X196245506Y-89930537D01*
X196355820Y-89989502D01*
X196475518Y-90025812D01*
X196600000Y-90038072D01*
X196958417Y-90038072D01*
X196960000Y-90040001D01*
X196988998Y-90063799D01*
X199280000Y-92354803D01*
X199280000Y-93161687D01*
X199061495Y-93307688D01*
X198995056Y-93374127D01*
X198989502Y-93355820D01*
X198930537Y-93245506D01*
X198851185Y-93148815D01*
X198754494Y-93069463D01*
X198644180Y-93010498D01*
X198524482Y-92974188D01*
X198400000Y-92961928D01*
X196600000Y-92961928D01*
X196475518Y-92974188D01*
X196355820Y-93010498D01*
X196245506Y-93069463D01*
X196148815Y-93148815D01*
X196069463Y-93245506D01*
X196010498Y-93355820D01*
X195974188Y-93475518D01*
X195961928Y-93600000D01*
X195961928Y-95400000D01*
X195974188Y-95524482D01*
X196010498Y-95644180D01*
X196069463Y-95754494D01*
X196148815Y-95851185D01*
X196245506Y-95930537D01*
X196355820Y-95989502D01*
X196475518Y-96025812D01*
X196600000Y-96038072D01*
X198400000Y-96038072D01*
X198524482Y-96025812D01*
X198644180Y-95989502D01*
X198754494Y-95930537D01*
X198851185Y-95851185D01*
X198930537Y-95754494D01*
X198989502Y-95644180D01*
X198995056Y-95625873D01*
X199061495Y-95692312D01*
X199312905Y-95860299D01*
X199592257Y-95976011D01*
X199888816Y-96035000D01*
X200191184Y-96035000D01*
X200487743Y-95976011D01*
X200767095Y-95860299D01*
X201018505Y-95692312D01*
X201232312Y-95478505D01*
X201400299Y-95227095D01*
X201516011Y-94947743D01*
X201575000Y-94651184D01*
X201575000Y-94348816D01*
X201516011Y-94052257D01*
X201400299Y-93772905D01*
X201232312Y-93521495D01*
X201018505Y-93307688D01*
X200800000Y-93161687D01*
X200800000Y-92077322D01*
X200803676Y-92039999D01*
X200800000Y-92002676D01*
X200800000Y-92002667D01*
X200789003Y-91891014D01*
X200745546Y-91747753D01*
X200674974Y-91615724D01*
X200642147Y-91575724D01*
X200603799Y-91528996D01*
X200603795Y-91528992D01*
X200580001Y-91499999D01*
X200551009Y-91476206D01*
X198884902Y-89810100D01*
X198930537Y-89754494D01*
X198989502Y-89644180D01*
X198992813Y-89633265D01*
X199039578Y-89680030D01*
X199155526Y-89564082D01*
X199239208Y-89818261D01*
X199511775Y-89949158D01*
X199804642Y-90024365D01*
X200106553Y-90040991D01*
X200405907Y-89998397D01*
X200691199Y-89898222D01*
X200840792Y-89818261D01*
X200924475Y-89564080D01*
X200040000Y-88679605D01*
X200025858Y-88693748D01*
X199846253Y-88514143D01*
X199860395Y-88500000D01*
X200219605Y-88500000D01*
X201104080Y-89384475D01*
X201358261Y-89300792D01*
X201489158Y-89028225D01*
X201564365Y-88735358D01*
X201580991Y-88433447D01*
X201538397Y-88134093D01*
X201438222Y-87848801D01*
X201358261Y-87699208D01*
X201104080Y-87615525D01*
X200219605Y-88500000D01*
X199860395Y-88500000D01*
X199846253Y-88485858D01*
X200025858Y-88306253D01*
X200040000Y-88320395D01*
X200924475Y-87435920D01*
X200840792Y-87181739D01*
X200568225Y-87050842D01*
X200275358Y-86975635D01*
X199973447Y-86959009D01*
X199674093Y-87001603D01*
X199388801Y-87101778D01*
X199239208Y-87181739D01*
X199155526Y-87435918D01*
X199039578Y-87319970D01*
X198992813Y-87366735D01*
X198989502Y-87355820D01*
X198930537Y-87245506D01*
X198851185Y-87148815D01*
X198754494Y-87069463D01*
X198644180Y-87010498D01*
X198524482Y-86974188D01*
X198400000Y-86961928D01*
X196600000Y-86961928D01*
X196475518Y-86974188D01*
X196355820Y-87010498D01*
X196245506Y-87069463D01*
X196148815Y-87148815D01*
X196069463Y-87245506D01*
X196010498Y-87355820D01*
X195974188Y-87475518D01*
X195961928Y-87600000D01*
X195184768Y-87600000D01*
X195132312Y-87521495D01*
X194918505Y-87307688D01*
X194700000Y-87161687D01*
X194700000Y-86477322D01*
X194703676Y-86439999D01*
X194700000Y-86402676D01*
X194700000Y-86402667D01*
X194689003Y-86291014D01*
X194645546Y-86147753D01*
X194574974Y-86015724D01*
X194521854Y-85950997D01*
X194503799Y-85928996D01*
X194503795Y-85928992D01*
X194480001Y-85899999D01*
X194451009Y-85876206D01*
X192557294Y-83982492D01*
X192654494Y-83930537D01*
X192751185Y-83851185D01*
X192830537Y-83754494D01*
X192889502Y-83644180D01*
X192892813Y-83633265D01*
X192939578Y-83680030D01*
X193055526Y-83564082D01*
X193139208Y-83818261D01*
X193411775Y-83949158D01*
X193704642Y-84024365D01*
X194006553Y-84040991D01*
X194305907Y-83998397D01*
X194591199Y-83898222D01*
X194740792Y-83818261D01*
X194824475Y-83564080D01*
X193940000Y-82679605D01*
X193925858Y-82693748D01*
X193746253Y-82514143D01*
X193760395Y-82500000D01*
X194119605Y-82500000D01*
X195004080Y-83384475D01*
X195258261Y-83300792D01*
X195389158Y-83028225D01*
X195464365Y-82735358D01*
X195480991Y-82433447D01*
X195438397Y-82134093D01*
X195338222Y-81848801D01*
X195258261Y-81699208D01*
X195004080Y-81615525D01*
X194119605Y-82500000D01*
X193760395Y-82500000D01*
X193746253Y-82485858D01*
X193925858Y-82306253D01*
X193940000Y-82320395D01*
X194824475Y-81435920D01*
X194740792Y-81181739D01*
X194468225Y-81050842D01*
X194175358Y-80975635D01*
X193873447Y-80959009D01*
X193574093Y-81001603D01*
X193288801Y-81101778D01*
X193139208Y-81181739D01*
X193055526Y-81435918D01*
X192939578Y-81319970D01*
X192892813Y-81366735D01*
X192889502Y-81355820D01*
X192830537Y-81245506D01*
X192751185Y-81148815D01*
X192654494Y-81069463D01*
X192544180Y-81010498D01*
X192424482Y-80974188D01*
X192300000Y-80961928D01*
X190500000Y-80961928D01*
X190375518Y-80974188D01*
X190255820Y-81010498D01*
X190145506Y-81069463D01*
X190048815Y-81148815D01*
X189969463Y-81245506D01*
X189910498Y-81355820D01*
X189874188Y-81475518D01*
X189861928Y-81600000D01*
X189084768Y-81600000D01*
X189032312Y-81521495D01*
X188818505Y-81307688D01*
X188567095Y-81139701D01*
X188287743Y-81023989D01*
X187991184Y-80965000D01*
X187688816Y-80965000D01*
X187392257Y-81023989D01*
X187112905Y-81139701D01*
X186861495Y-81307688D01*
X186795056Y-81374127D01*
X186789502Y-81355820D01*
X186730537Y-81245506D01*
X186651185Y-81148815D01*
X186554494Y-81069463D01*
X186444180Y-81010498D01*
X186324482Y-80974188D01*
X186200000Y-80961928D01*
X184400000Y-80961928D01*
X184275518Y-80974188D01*
X184155820Y-81010498D01*
X184045506Y-81069463D01*
X183948815Y-81148815D01*
X183869463Y-81245506D01*
X183810498Y-81355820D01*
X183774188Y-81475518D01*
X183761928Y-81600000D01*
X181127000Y-81600000D01*
X181127000Y-75600000D01*
X183761928Y-75600000D01*
X183761928Y-77400000D01*
X183774188Y-77524482D01*
X183810498Y-77644180D01*
X183869463Y-77754494D01*
X183948815Y-77851185D01*
X184045506Y-77930537D01*
X184155820Y-77989502D01*
X184275518Y-78025812D01*
X184400000Y-78038072D01*
X186200000Y-78038072D01*
X186324482Y-78025812D01*
X186444180Y-77989502D01*
X186554494Y-77930537D01*
X186651185Y-77851185D01*
X186730537Y-77754494D01*
X186789502Y-77644180D01*
X186792813Y-77633265D01*
X186839578Y-77680030D01*
X186955526Y-77564082D01*
X187039208Y-77818261D01*
X187311775Y-77949158D01*
X187604642Y-78024365D01*
X187906553Y-78040991D01*
X188205907Y-77998397D01*
X188491199Y-77898222D01*
X188640792Y-77818261D01*
X188724475Y-77564080D01*
X187840000Y-76679605D01*
X187825858Y-76693748D01*
X187646253Y-76514143D01*
X187660395Y-76500000D01*
X188019605Y-76500000D01*
X188904080Y-77384475D01*
X189158261Y-77300792D01*
X189289158Y-77028225D01*
X189364365Y-76735358D01*
X189380991Y-76433447D01*
X189338397Y-76134093D01*
X189238222Y-75848801D01*
X189158261Y-75699208D01*
X188904080Y-75615525D01*
X188019605Y-76500000D01*
X187660395Y-76500000D01*
X187646253Y-76485858D01*
X187825858Y-76306253D01*
X187840000Y-76320395D01*
X188724475Y-75435920D01*
X188640792Y-75181739D01*
X188368225Y-75050842D01*
X188075358Y-74975635D01*
X187908363Y-74966439D01*
X188114802Y-74760000D01*
X193180001Y-74760000D01*
X193180001Y-75161687D01*
X192961495Y-75307688D01*
X192895056Y-75374127D01*
X192889502Y-75355820D01*
X192830537Y-75245506D01*
X192751185Y-75148815D01*
X192654494Y-75069463D01*
X192544180Y-75010498D01*
X192424482Y-74974188D01*
X192300000Y-74961928D01*
X190500000Y-74961928D01*
X190375518Y-74974188D01*
X190255820Y-75010498D01*
X190145506Y-75069463D01*
X190048815Y-75148815D01*
X189969463Y-75245506D01*
X189910498Y-75355820D01*
X189874188Y-75475518D01*
X189861928Y-75600000D01*
X189861928Y-77400000D01*
X189874188Y-77524482D01*
X189910498Y-77644180D01*
X189969463Y-77754494D01*
X190048815Y-77851185D01*
X190145506Y-77930537D01*
X190255820Y-77989502D01*
X190375518Y-78025812D01*
X190500000Y-78038072D01*
X192300000Y-78038072D01*
X192424482Y-78025812D01*
X192544180Y-77989502D01*
X192654494Y-77930537D01*
X192751185Y-77851185D01*
X192830537Y-77754494D01*
X192889502Y-77644180D01*
X192895056Y-77625873D01*
X192961495Y-77692312D01*
X193212905Y-77860299D01*
X193492257Y-77976011D01*
X193788816Y-78035000D01*
X194091184Y-78035000D01*
X194387743Y-77976011D01*
X194667095Y-77860299D01*
X194918505Y-77692312D01*
X195132312Y-77478505D01*
X195300299Y-77227095D01*
X195416011Y-76947743D01*
X195475000Y-76651184D01*
X195475000Y-76348816D01*
X195416011Y-76052257D01*
X195300299Y-75772905D01*
X195184768Y-75600000D01*
X195961928Y-75600000D01*
X195961928Y-77400000D01*
X195974188Y-77524482D01*
X196010498Y-77644180D01*
X196069463Y-77754494D01*
X196148815Y-77851185D01*
X196245506Y-77930537D01*
X196355820Y-77989502D01*
X196475518Y-78025812D01*
X196600000Y-78038072D01*
X196740074Y-78038072D01*
X196750998Y-78148985D01*
X196794454Y-78292246D01*
X196865026Y-78424276D01*
X196882013Y-78444974D01*
X196960000Y-78540001D01*
X196988998Y-78563799D01*
X199280000Y-80854803D01*
X199280000Y-81161687D01*
X199061495Y-81307688D01*
X198995056Y-81374127D01*
X198989502Y-81355820D01*
X198930537Y-81245506D01*
X198851185Y-81148815D01*
X198754494Y-81069463D01*
X198644180Y-81010498D01*
X198524482Y-80974188D01*
X198400000Y-80961928D01*
X196600000Y-80961928D01*
X196475518Y-80974188D01*
X196355820Y-81010498D01*
X196245506Y-81069463D01*
X196148815Y-81148815D01*
X196069463Y-81245506D01*
X196010498Y-81355820D01*
X195974188Y-81475518D01*
X195961928Y-81600000D01*
X195961928Y-83400000D01*
X195974188Y-83524482D01*
X196010498Y-83644180D01*
X196069463Y-83754494D01*
X196148815Y-83851185D01*
X196245506Y-83930537D01*
X196355820Y-83989502D01*
X196475518Y-84025812D01*
X196600000Y-84038072D01*
X198400000Y-84038072D01*
X198524482Y-84025812D01*
X198644180Y-83989502D01*
X198754494Y-83930537D01*
X198851185Y-83851185D01*
X198930537Y-83754494D01*
X198989502Y-83644180D01*
X198995056Y-83625873D01*
X199061495Y-83692312D01*
X199312905Y-83860299D01*
X199592257Y-83976011D01*
X199888816Y-84035000D01*
X200191184Y-84035000D01*
X200487743Y-83976011D01*
X200767095Y-83860299D01*
X201018505Y-83692312D01*
X201232312Y-83478505D01*
X201400299Y-83227095D01*
X201516011Y-82947743D01*
X201575000Y-82651184D01*
X201575000Y-82348816D01*
X201516011Y-82052257D01*
X201400299Y-81772905D01*
X201232312Y-81521495D01*
X201018505Y-81307688D01*
X200800000Y-81161687D01*
X200800000Y-80577322D01*
X200803676Y-80539999D01*
X200800000Y-80502676D01*
X200800000Y-80502667D01*
X200789003Y-80391014D01*
X200745546Y-80247753D01*
X200674974Y-80115724D01*
X200642147Y-80075724D01*
X200603799Y-80028996D01*
X200603795Y-80028992D01*
X200580001Y-79999999D01*
X200551009Y-79976206D01*
X198582894Y-78008093D01*
X198644180Y-77989502D01*
X198754494Y-77930537D01*
X198851185Y-77851185D01*
X198930537Y-77754494D01*
X198989502Y-77644180D01*
X198992813Y-77633265D01*
X199039578Y-77680030D01*
X199155526Y-77564082D01*
X199239208Y-77818261D01*
X199511775Y-77949158D01*
X199804642Y-78024365D01*
X200106553Y-78040991D01*
X200405907Y-77998397D01*
X200691199Y-77898222D01*
X200840792Y-77818261D01*
X200924475Y-77564080D01*
X200040000Y-76679605D01*
X200025858Y-76693748D01*
X199846253Y-76514143D01*
X199860395Y-76500000D01*
X200219605Y-76500000D01*
X201104080Y-77384475D01*
X201358261Y-77300792D01*
X201489158Y-77028225D01*
X201564365Y-76735358D01*
X201580991Y-76433447D01*
X201538397Y-76134093D01*
X201438222Y-75848801D01*
X201358261Y-75699208D01*
X201104080Y-75615525D01*
X200219605Y-76500000D01*
X199860395Y-76500000D01*
X199846253Y-76485858D01*
X200025858Y-76306253D01*
X200040000Y-76320395D01*
X200924475Y-75435920D01*
X200840792Y-75181739D01*
X200568225Y-75050842D01*
X200275358Y-74975635D01*
X199973447Y-74959009D01*
X199674093Y-75001603D01*
X199388801Y-75101778D01*
X199239208Y-75181739D01*
X199155526Y-75435918D01*
X199039578Y-75319970D01*
X198992813Y-75366735D01*
X198989502Y-75355820D01*
X198930537Y-75245506D01*
X198851185Y-75148815D01*
X198754494Y-75069463D01*
X198644180Y-75010498D01*
X198524482Y-74974188D01*
X198400000Y-74961928D01*
X196600000Y-74961928D01*
X196475518Y-74974188D01*
X196355820Y-75010498D01*
X196245506Y-75069463D01*
X196148815Y-75148815D01*
X196069463Y-75245506D01*
X196010498Y-75355820D01*
X195974188Y-75475518D01*
X195961928Y-75600000D01*
X195184768Y-75600000D01*
X195132312Y-75521495D01*
X194918505Y-75307688D01*
X194700000Y-75161687D01*
X194700000Y-74477323D01*
X194703676Y-74440000D01*
X194700000Y-74402677D01*
X194700000Y-74402667D01*
X194689003Y-74291014D01*
X194645546Y-74147753D01*
X194579941Y-74025016D01*
X194574974Y-74015723D01*
X194540031Y-73973146D01*
X194480001Y-73899999D01*
X194450997Y-73876196D01*
X194063804Y-73489003D01*
X194040001Y-73459999D01*
X193924276Y-73365026D01*
X193792247Y-73294454D01*
X193648986Y-73250997D01*
X193537333Y-73240000D01*
X193537322Y-73240000D01*
X193500000Y-73236324D01*
X193462678Y-73240000D01*
X187837323Y-73240000D01*
X187800000Y-73236324D01*
X187762677Y-73240000D01*
X187762667Y-73240000D01*
X187651014Y-73250997D01*
X187507753Y-73294454D01*
X187375723Y-73365026D01*
X187334324Y-73399002D01*
X187259999Y-73459999D01*
X187236201Y-73488997D01*
X185763271Y-74961928D01*
X184400000Y-74961928D01*
X184275518Y-74974188D01*
X184155820Y-75010498D01*
X184045506Y-75069463D01*
X183948815Y-75148815D01*
X183869463Y-75245506D01*
X183810498Y-75355820D01*
X183774188Y-75475518D01*
X183761928Y-75600000D01*
X181127000Y-75600000D01*
X181127000Y-72127000D01*
X204373000Y-72127000D01*
X204373000Y-109447394D01*
X201947394Y-111873000D01*
X195551030Y-111873000D01*
X183587872Y-100408307D01*
X183568295Y-100392926D01*
X183546094Y-100381660D01*
X183522121Y-100374941D01*
X183500000Y-100373000D01*
X153000000Y-100373000D01*
X152975224Y-100375440D01*
X152951399Y-100382667D01*
X152932690Y-100392304D01*
X148932690Y-102892304D01*
X148912973Y-102907505D01*
X148896600Y-102926260D01*
X148884201Y-102947850D01*
X148876252Y-102971443D01*
X148873000Y-103000000D01*
X148873000Y-110373000D01*
X130052606Y-110373000D01*
X129627000Y-109947394D01*
X129627000Y-105600000D01*
X134961928Y-105600000D01*
X134961928Y-107400000D01*
X134974188Y-107524482D01*
X135010498Y-107644180D01*
X135069463Y-107754494D01*
X135148815Y-107851185D01*
X135245506Y-107930537D01*
X135355820Y-107989502D01*
X135475518Y-108025812D01*
X135600000Y-108038072D01*
X137400000Y-108038072D01*
X137524482Y-108025812D01*
X137644180Y-107989502D01*
X137754494Y-107930537D01*
X137851185Y-107851185D01*
X137930537Y-107754494D01*
X137989502Y-107644180D01*
X137992813Y-107633265D01*
X138039578Y-107680030D01*
X138155526Y-107564082D01*
X138239208Y-107818261D01*
X138511775Y-107949158D01*
X138804642Y-108024365D01*
X139106553Y-108040991D01*
X139405907Y-107998397D01*
X139691199Y-107898222D01*
X139840792Y-107818261D01*
X139924475Y-107564080D01*
X139040000Y-106679605D01*
X139025858Y-106693748D01*
X138846253Y-106514143D01*
X138860395Y-106500000D01*
X139219605Y-106500000D01*
X140104080Y-107384475D01*
X140358261Y-107300792D01*
X140489158Y-107028225D01*
X140564365Y-106735358D01*
X140580991Y-106433447D01*
X140538397Y-106134093D01*
X140438222Y-105848801D01*
X140358261Y-105699208D01*
X140104080Y-105615525D01*
X139219605Y-106500000D01*
X138860395Y-106500000D01*
X138846253Y-106485858D01*
X139025858Y-106306253D01*
X139040000Y-106320395D01*
X139924475Y-105435920D01*
X139840792Y-105181739D01*
X139568225Y-105050842D01*
X139275358Y-104975635D01*
X139108363Y-104966439D01*
X139814802Y-104260000D01*
X144462678Y-104260000D01*
X144500000Y-104263676D01*
X144537322Y-104260000D01*
X144537333Y-104260000D01*
X144648986Y-104249003D01*
X144792247Y-104205546D01*
X144924276Y-104134974D01*
X145040001Y-104040001D01*
X145063803Y-104010998D01*
X145651002Y-103423800D01*
X145680001Y-103400001D01*
X145774974Y-103284276D01*
X145845546Y-103152247D01*
X145889003Y-103008986D01*
X145900000Y-102897333D01*
X145900000Y-102897325D01*
X145903676Y-102860000D01*
X145900000Y-102822675D01*
X145900000Y-101838313D01*
X146118505Y-101692312D01*
X146332312Y-101478505D01*
X146500299Y-101227095D01*
X146616011Y-100947743D01*
X146675000Y-100651184D01*
X146675000Y-100348816D01*
X146616011Y-100052257D01*
X146500299Y-99772905D01*
X146332312Y-99521495D01*
X146118505Y-99307688D01*
X145867095Y-99139701D01*
X145587743Y-99023989D01*
X145291184Y-98965000D01*
X144988816Y-98965000D01*
X144692257Y-99023989D01*
X144412905Y-99139701D01*
X144161495Y-99307688D01*
X144095056Y-99374127D01*
X144089502Y-99355820D01*
X144030537Y-99245506D01*
X143951185Y-99148815D01*
X143854494Y-99069463D01*
X143744180Y-99010498D01*
X143624482Y-98974188D01*
X143500000Y-98961928D01*
X141700000Y-98961928D01*
X141575518Y-98974188D01*
X141455820Y-99010498D01*
X141345506Y-99069463D01*
X141248815Y-99148815D01*
X141169463Y-99245506D01*
X141110498Y-99355820D01*
X141074188Y-99475518D01*
X141061928Y-99600000D01*
X141061928Y-101400000D01*
X141074188Y-101524482D01*
X141110498Y-101644180D01*
X141169463Y-101754494D01*
X141248815Y-101851185D01*
X141345506Y-101930537D01*
X141455820Y-101989502D01*
X141575518Y-102025812D01*
X141700000Y-102038072D01*
X143500000Y-102038072D01*
X143624482Y-102025812D01*
X143744180Y-101989502D01*
X143854494Y-101930537D01*
X143951185Y-101851185D01*
X144030537Y-101754494D01*
X144089502Y-101644180D01*
X144095056Y-101625873D01*
X144161495Y-101692312D01*
X144380001Y-101838313D01*
X144380001Y-102545198D01*
X144185199Y-102740000D01*
X139537325Y-102740000D01*
X139500000Y-102736324D01*
X139462675Y-102740000D01*
X139462667Y-102740000D01*
X139351014Y-102750997D01*
X139207753Y-102794454D01*
X139075724Y-102865026D01*
X138959999Y-102959999D01*
X138936201Y-102988997D01*
X136963271Y-104961928D01*
X135600000Y-104961928D01*
X135475518Y-104974188D01*
X135355820Y-105010498D01*
X135245506Y-105069463D01*
X135148815Y-105148815D01*
X135069463Y-105245506D01*
X135010498Y-105355820D01*
X134974188Y-105475518D01*
X134961928Y-105600000D01*
X129627000Y-105600000D01*
X129627000Y-104605776D01*
X129684010Y-104743411D01*
X129846525Y-104986632D01*
X130053368Y-105193475D01*
X130296589Y-105355990D01*
X130566842Y-105467932D01*
X130853740Y-105525000D01*
X131146260Y-105525000D01*
X131433158Y-105467932D01*
X131703411Y-105355990D01*
X131946632Y-105193475D01*
X132153475Y-104986632D01*
X132315990Y-104743411D01*
X132427932Y-104473158D01*
X132485000Y-104186260D01*
X132485000Y-103893740D01*
X132427932Y-103606842D01*
X132315990Y-103336589D01*
X132153475Y-103093368D01*
X132021620Y-102961513D01*
X132094180Y-102939502D01*
X132204494Y-102880537D01*
X132301185Y-102801185D01*
X132380537Y-102704494D01*
X132439502Y-102594180D01*
X132475812Y-102474482D01*
X132488072Y-102350000D01*
X132485000Y-101785750D01*
X132326250Y-101627000D01*
X131127000Y-101627000D01*
X131127000Y-101647000D01*
X130873000Y-101647000D01*
X130873000Y-101627000D01*
X130853000Y-101627000D01*
X130853000Y-101373000D01*
X130873000Y-101373000D01*
X130873000Y-100173750D01*
X131127000Y-100173750D01*
X131127000Y-101373000D01*
X132326250Y-101373000D01*
X132485000Y-101214250D01*
X132488072Y-100650000D01*
X132475812Y-100525518D01*
X132439502Y-100405820D01*
X132380537Y-100295506D01*
X132301185Y-100198815D01*
X132204494Y-100119463D01*
X132094180Y-100060498D01*
X131974482Y-100024188D01*
X131850000Y-100011928D01*
X131285750Y-100015000D01*
X131127000Y-100173750D01*
X130873000Y-100173750D01*
X130714250Y-100015000D01*
X130150000Y-100011928D01*
X130025518Y-100024188D01*
X129905820Y-100060498D01*
X129795506Y-100119463D01*
X129698815Y-100198815D01*
X129627000Y-100286322D01*
X129627000Y-93600000D01*
X134961928Y-93600000D01*
X134961928Y-95400000D01*
X134974188Y-95524482D01*
X135010498Y-95644180D01*
X135069463Y-95754494D01*
X135148815Y-95851185D01*
X135245506Y-95930537D01*
X135355820Y-95989502D01*
X135475518Y-96025812D01*
X135600000Y-96038072D01*
X135740073Y-96038072D01*
X135750997Y-96148985D01*
X135787025Y-96267754D01*
X135794454Y-96292246D01*
X135865026Y-96424276D01*
X135904871Y-96472826D01*
X135959999Y-96540001D01*
X135989003Y-96563804D01*
X138280001Y-98854804D01*
X138280001Y-99161687D01*
X138061495Y-99307688D01*
X137995056Y-99374127D01*
X137989502Y-99355820D01*
X137930537Y-99245506D01*
X137851185Y-99148815D01*
X137754494Y-99069463D01*
X137644180Y-99010498D01*
X137524482Y-98974188D01*
X137400000Y-98961928D01*
X135600000Y-98961928D01*
X135475518Y-98974188D01*
X135355820Y-99010498D01*
X135245506Y-99069463D01*
X135148815Y-99148815D01*
X135069463Y-99245506D01*
X135010498Y-99355820D01*
X134974188Y-99475518D01*
X134961928Y-99600000D01*
X134961928Y-101400000D01*
X134974188Y-101524482D01*
X135010498Y-101644180D01*
X135069463Y-101754494D01*
X135148815Y-101851185D01*
X135245506Y-101930537D01*
X135355820Y-101989502D01*
X135475518Y-102025812D01*
X135600000Y-102038072D01*
X137400000Y-102038072D01*
X137524482Y-102025812D01*
X137644180Y-101989502D01*
X137754494Y-101930537D01*
X137851185Y-101851185D01*
X137930537Y-101754494D01*
X137989502Y-101644180D01*
X137995056Y-101625873D01*
X138061495Y-101692312D01*
X138312905Y-101860299D01*
X138592257Y-101976011D01*
X138888816Y-102035000D01*
X139191184Y-102035000D01*
X139487743Y-101976011D01*
X139767095Y-101860299D01*
X140018505Y-101692312D01*
X140232312Y-101478505D01*
X140400299Y-101227095D01*
X140516011Y-100947743D01*
X140575000Y-100651184D01*
X140575000Y-100348816D01*
X140516011Y-100052257D01*
X140400299Y-99772905D01*
X140232312Y-99521495D01*
X140018505Y-99307688D01*
X139800000Y-99161687D01*
X139800000Y-98577322D01*
X139803676Y-98539999D01*
X139800000Y-98502676D01*
X139800000Y-98502667D01*
X139789003Y-98391014D01*
X139745546Y-98247753D01*
X139674974Y-98115724D01*
X139661811Y-98099685D01*
X139603799Y-98028996D01*
X139603795Y-98028992D01*
X139580001Y-97999999D01*
X139551008Y-97976205D01*
X137582894Y-96008093D01*
X137644180Y-95989502D01*
X137754494Y-95930537D01*
X137851185Y-95851185D01*
X137930537Y-95754494D01*
X137989502Y-95644180D01*
X137992813Y-95633265D01*
X138039578Y-95680030D01*
X138155526Y-95564082D01*
X138239208Y-95818261D01*
X138511775Y-95949158D01*
X138804642Y-96024365D01*
X139106553Y-96040991D01*
X139405907Y-95998397D01*
X139691199Y-95898222D01*
X139840792Y-95818261D01*
X139924475Y-95564080D01*
X139040000Y-94679605D01*
X139025858Y-94693748D01*
X138846253Y-94514143D01*
X138860395Y-94500000D01*
X139219605Y-94500000D01*
X140104080Y-95384475D01*
X140358261Y-95300792D01*
X140489158Y-95028225D01*
X140564365Y-94735358D01*
X140580991Y-94433447D01*
X140538397Y-94134093D01*
X140438222Y-93848801D01*
X140358261Y-93699208D01*
X140104080Y-93615525D01*
X139219605Y-94500000D01*
X138860395Y-94500000D01*
X138846253Y-94485858D01*
X139025858Y-94306253D01*
X139040000Y-94320395D01*
X139760395Y-93600000D01*
X141061928Y-93600000D01*
X141061928Y-95400000D01*
X141074188Y-95524482D01*
X141110498Y-95644180D01*
X141169463Y-95754494D01*
X141248815Y-95851185D01*
X141345506Y-95930537D01*
X141455820Y-95989502D01*
X141575518Y-96025812D01*
X141700000Y-96038072D01*
X143500000Y-96038072D01*
X143624482Y-96025812D01*
X143744180Y-95989502D01*
X143854494Y-95930537D01*
X143951185Y-95851185D01*
X144030537Y-95754494D01*
X144089502Y-95644180D01*
X144092813Y-95633265D01*
X144139578Y-95680030D01*
X144255526Y-95564082D01*
X144339208Y-95818261D01*
X144611775Y-95949158D01*
X144904642Y-96024365D01*
X145206553Y-96040991D01*
X145505907Y-95998397D01*
X145791199Y-95898222D01*
X145940792Y-95818261D01*
X146024475Y-95564080D01*
X145140000Y-94679605D01*
X145125858Y-94693748D01*
X144946253Y-94514143D01*
X144960395Y-94500000D01*
X145319605Y-94500000D01*
X146204080Y-95384475D01*
X146458261Y-95300792D01*
X146589158Y-95028225D01*
X146664365Y-94735358D01*
X146680991Y-94433447D01*
X146638397Y-94134093D01*
X146538222Y-93848801D01*
X146458261Y-93699208D01*
X146204080Y-93615525D01*
X145319605Y-94500000D01*
X144960395Y-94500000D01*
X144946253Y-94485858D01*
X145125858Y-94306253D01*
X145140000Y-94320395D01*
X146024475Y-93435920D01*
X145940792Y-93181739D01*
X145668225Y-93050842D01*
X145375358Y-92975635D01*
X145208363Y-92966439D01*
X145414802Y-92760000D01*
X150185199Y-92760000D01*
X150480001Y-93054802D01*
X150480001Y-93161687D01*
X150261495Y-93307688D01*
X150195056Y-93374127D01*
X150189502Y-93355820D01*
X150130537Y-93245506D01*
X150051185Y-93148815D01*
X149954494Y-93069463D01*
X149844180Y-93010498D01*
X149724482Y-92974188D01*
X149600000Y-92961928D01*
X147800000Y-92961928D01*
X147675518Y-92974188D01*
X147555820Y-93010498D01*
X147445506Y-93069463D01*
X147348815Y-93148815D01*
X147269463Y-93245506D01*
X147210498Y-93355820D01*
X147174188Y-93475518D01*
X147161928Y-93600000D01*
X147161928Y-95400000D01*
X147174188Y-95524482D01*
X147210498Y-95644180D01*
X147269463Y-95754494D01*
X147348815Y-95851185D01*
X147445506Y-95930537D01*
X147555820Y-95989502D01*
X147675518Y-96025812D01*
X147800000Y-96038072D01*
X149600000Y-96038072D01*
X149724482Y-96025812D01*
X149844180Y-95989502D01*
X149954494Y-95930537D01*
X150051185Y-95851185D01*
X150130537Y-95754494D01*
X150189502Y-95644180D01*
X150195056Y-95625873D01*
X150261495Y-95692312D01*
X150512905Y-95860299D01*
X150792257Y-95976011D01*
X151088816Y-96035000D01*
X151391184Y-96035000D01*
X151687743Y-95976011D01*
X151967095Y-95860299D01*
X152218505Y-95692312D01*
X152432312Y-95478505D01*
X152600299Y-95227095D01*
X152716011Y-94947743D01*
X152775000Y-94651184D01*
X152775000Y-94348816D01*
X152716011Y-94052257D01*
X152600299Y-93772905D01*
X152484768Y-93600000D01*
X153261928Y-93600000D01*
X153261928Y-95400000D01*
X153274188Y-95524482D01*
X153310498Y-95644180D01*
X153369463Y-95754494D01*
X153448815Y-95851185D01*
X153545506Y-95930537D01*
X153655820Y-95989502D01*
X153775518Y-96025812D01*
X153900000Y-96038072D01*
X155263270Y-96038072D01*
X156236200Y-97011002D01*
X156259999Y-97040001D01*
X156288997Y-97063799D01*
X156375723Y-97134974D01*
X156459962Y-97180001D01*
X156507753Y-97205546D01*
X156651014Y-97249003D01*
X156762667Y-97260000D01*
X156762676Y-97260000D01*
X156799999Y-97263676D01*
X156837322Y-97260000D01*
X163137378Y-97260000D01*
X163147754Y-97265546D01*
X163291015Y-97309003D01*
X163440000Y-97323677D01*
X163588986Y-97309003D01*
X163732247Y-97265546D01*
X163864276Y-97194974D01*
X163980001Y-97100001D01*
X164074974Y-96984276D01*
X164145546Y-96852247D01*
X164189003Y-96708986D01*
X164200000Y-96597333D01*
X164200000Y-96597323D01*
X164203676Y-96560000D01*
X164200000Y-96522678D01*
X164200000Y-95838313D01*
X164418505Y-95692312D01*
X164632312Y-95478505D01*
X164800299Y-95227095D01*
X164916011Y-94947743D01*
X164975000Y-94651184D01*
X164975000Y-94348816D01*
X164916011Y-94052257D01*
X164800299Y-93772905D01*
X164684768Y-93600000D01*
X165461928Y-93600000D01*
X165461928Y-95400000D01*
X165474188Y-95524482D01*
X165510498Y-95644180D01*
X165569463Y-95754494D01*
X165648815Y-95851185D01*
X165745506Y-95930537D01*
X165855820Y-95989502D01*
X165975518Y-96025812D01*
X166100000Y-96038072D01*
X167463271Y-96038072D01*
X168936201Y-97511003D01*
X168959999Y-97540001D01*
X168988997Y-97563799D01*
X169075723Y-97634974D01*
X169207753Y-97705546D01*
X169351014Y-97749003D01*
X169462667Y-97760000D01*
X169462677Y-97760000D01*
X169500000Y-97763676D01*
X169537323Y-97760000D01*
X175242678Y-97760000D01*
X175280000Y-97763676D01*
X175317322Y-97760000D01*
X175317333Y-97760000D01*
X175428986Y-97749003D01*
X175572247Y-97705546D01*
X175704276Y-97634974D01*
X175820001Y-97540001D01*
X175843804Y-97510997D01*
X176150997Y-97203804D01*
X176180001Y-97180001D01*
X176274974Y-97064276D01*
X176345546Y-96932247D01*
X176389003Y-96788986D01*
X176400000Y-96677333D01*
X176400000Y-96677323D01*
X176403676Y-96640000D01*
X176400000Y-96602677D01*
X176400000Y-95838313D01*
X176618505Y-95692312D01*
X176832312Y-95478505D01*
X177000299Y-95227095D01*
X177116011Y-94947743D01*
X177175000Y-94651184D01*
X177175000Y-94348816D01*
X177116011Y-94052257D01*
X177000299Y-93772905D01*
X176884768Y-93600000D01*
X177661928Y-93600000D01*
X177661928Y-95400000D01*
X177674188Y-95524482D01*
X177710498Y-95644180D01*
X177769463Y-95754494D01*
X177848815Y-95851185D01*
X177945506Y-95930537D01*
X178055820Y-95989502D01*
X178175518Y-96025812D01*
X178300000Y-96038072D01*
X180100000Y-96038072D01*
X180224482Y-96025812D01*
X180344180Y-95989502D01*
X180454494Y-95930537D01*
X180551185Y-95851185D01*
X180630537Y-95754494D01*
X180689502Y-95644180D01*
X180695056Y-95625873D01*
X180761495Y-95692312D01*
X181012905Y-95860299D01*
X181292257Y-95976011D01*
X181588816Y-96035000D01*
X181891184Y-96035000D01*
X182187743Y-95976011D01*
X182467095Y-95860299D01*
X182718505Y-95692312D01*
X182932312Y-95478505D01*
X183078313Y-95260000D01*
X183761928Y-95260000D01*
X183761928Y-95400000D01*
X183774188Y-95524482D01*
X183810498Y-95644180D01*
X183869463Y-95754494D01*
X183948815Y-95851185D01*
X184045506Y-95930537D01*
X184155820Y-95989502D01*
X184275518Y-96025812D01*
X184400000Y-96038072D01*
X186200000Y-96038072D01*
X186324482Y-96025812D01*
X186444180Y-95989502D01*
X186554494Y-95930537D01*
X186651185Y-95851185D01*
X186730537Y-95754494D01*
X186789502Y-95644180D01*
X186792813Y-95633265D01*
X186839578Y-95680030D01*
X186955526Y-95564082D01*
X187039208Y-95818261D01*
X187311775Y-95949158D01*
X187604642Y-96024365D01*
X187906553Y-96040991D01*
X188205907Y-95998397D01*
X188491199Y-95898222D01*
X188640792Y-95818261D01*
X188724475Y-95564080D01*
X187840000Y-94679605D01*
X187825858Y-94693748D01*
X187646253Y-94514143D01*
X187660395Y-94500000D01*
X188019605Y-94500000D01*
X188904080Y-95384475D01*
X189158261Y-95300792D01*
X189289158Y-95028225D01*
X189364365Y-94735358D01*
X189380991Y-94433447D01*
X189338397Y-94134093D01*
X189238222Y-93848801D01*
X189158261Y-93699208D01*
X188904080Y-93615525D01*
X188019605Y-94500000D01*
X187660395Y-94500000D01*
X187646253Y-94485858D01*
X187825858Y-94306253D01*
X187840000Y-94320395D01*
X188560395Y-93600000D01*
X189861928Y-93600000D01*
X189861928Y-95400000D01*
X189874188Y-95524482D01*
X189910498Y-95644180D01*
X189969463Y-95754494D01*
X190048815Y-95851185D01*
X190145506Y-95930537D01*
X190255820Y-95989502D01*
X190375518Y-96025812D01*
X190500000Y-96038072D01*
X190640001Y-96038072D01*
X190640001Y-97362668D01*
X190636324Y-97400000D01*
X190640001Y-97437333D01*
X190650998Y-97548986D01*
X190664180Y-97592442D01*
X190694454Y-97692246D01*
X190765026Y-97824276D01*
X190831297Y-97905026D01*
X190860000Y-97940001D01*
X190888998Y-97963799D01*
X191887126Y-98961928D01*
X190500000Y-98961928D01*
X190375518Y-98974188D01*
X190255820Y-99010498D01*
X190145506Y-99069463D01*
X190048815Y-99148815D01*
X189969463Y-99245506D01*
X189910498Y-99355820D01*
X189874188Y-99475518D01*
X189861928Y-99600000D01*
X189861928Y-101400000D01*
X189874188Y-101524482D01*
X189910498Y-101644180D01*
X189969463Y-101754494D01*
X190048815Y-101851185D01*
X190145506Y-101930537D01*
X190255820Y-101989502D01*
X190375518Y-102025812D01*
X190500000Y-102038072D01*
X192300000Y-102038072D01*
X192424482Y-102025812D01*
X192544180Y-101989502D01*
X192654494Y-101930537D01*
X192751185Y-101851185D01*
X192830537Y-101754494D01*
X192889502Y-101644180D01*
X192895056Y-101625873D01*
X192961495Y-101692312D01*
X193212905Y-101860299D01*
X193492257Y-101976011D01*
X193788816Y-102035000D01*
X194091184Y-102035000D01*
X194387743Y-101976011D01*
X194667095Y-101860299D01*
X194918505Y-101692312D01*
X195132312Y-101478505D01*
X195300299Y-101227095D01*
X195416011Y-100947743D01*
X195475000Y-100651184D01*
X195475000Y-100348816D01*
X195416011Y-100052257D01*
X195300299Y-99772905D01*
X195184768Y-99600000D01*
X195961928Y-99600000D01*
X195961928Y-101400000D01*
X195974188Y-101524482D01*
X196010498Y-101644180D01*
X196069463Y-101754494D01*
X196148815Y-101851185D01*
X196245506Y-101930537D01*
X196355820Y-101989502D01*
X196475518Y-102025812D01*
X196600000Y-102038072D01*
X196740074Y-102038072D01*
X196750998Y-102148986D01*
X196752657Y-102154454D01*
X196794454Y-102292246D01*
X196865026Y-102424276D01*
X196931759Y-102505589D01*
X196960000Y-102540001D01*
X196988998Y-102563799D01*
X199280000Y-104854803D01*
X199280000Y-105161687D01*
X199061495Y-105307688D01*
X198995056Y-105374127D01*
X198989502Y-105355820D01*
X198930537Y-105245506D01*
X198851185Y-105148815D01*
X198754494Y-105069463D01*
X198644180Y-105010498D01*
X198524482Y-104974188D01*
X198400000Y-104961928D01*
X196600000Y-104961928D01*
X196475518Y-104974188D01*
X196355820Y-105010498D01*
X196245506Y-105069463D01*
X196148815Y-105148815D01*
X196069463Y-105245506D01*
X196010498Y-105355820D01*
X195974188Y-105475518D01*
X195961928Y-105600000D01*
X195961928Y-107400000D01*
X195974188Y-107524482D01*
X196010498Y-107644180D01*
X196069463Y-107754494D01*
X196148815Y-107851185D01*
X196245506Y-107930537D01*
X196355820Y-107989502D01*
X196475518Y-108025812D01*
X196600000Y-108038072D01*
X198400000Y-108038072D01*
X198524482Y-108025812D01*
X198644180Y-107989502D01*
X198754494Y-107930537D01*
X198851185Y-107851185D01*
X198930537Y-107754494D01*
X198989502Y-107644180D01*
X198995056Y-107625873D01*
X199061495Y-107692312D01*
X199312905Y-107860299D01*
X199592257Y-107976011D01*
X199888816Y-108035000D01*
X200191184Y-108035000D01*
X200487743Y-107976011D01*
X200767095Y-107860299D01*
X201018505Y-107692312D01*
X201232312Y-107478505D01*
X201400299Y-107227095D01*
X201516011Y-106947743D01*
X201575000Y-106651184D01*
X201575000Y-106348816D01*
X201516011Y-106052257D01*
X201400299Y-105772905D01*
X201232312Y-105521495D01*
X201018505Y-105307688D01*
X200800000Y-105161687D01*
X200800000Y-104577322D01*
X200803676Y-104539999D01*
X200800000Y-104502676D01*
X200800000Y-104502667D01*
X200789003Y-104391014D01*
X200745546Y-104247753D01*
X200674974Y-104115724D01*
X200632858Y-104064405D01*
X200603799Y-104028996D01*
X200603795Y-104028992D01*
X200580001Y-103999999D01*
X200551009Y-103976206D01*
X198582894Y-102008093D01*
X198644180Y-101989502D01*
X198754494Y-101930537D01*
X198851185Y-101851185D01*
X198930537Y-101754494D01*
X198989502Y-101644180D01*
X198992813Y-101633265D01*
X199039578Y-101680030D01*
X199155526Y-101564082D01*
X199239208Y-101818261D01*
X199511775Y-101949158D01*
X199804642Y-102024365D01*
X200106553Y-102040991D01*
X200405907Y-101998397D01*
X200691199Y-101898222D01*
X200840792Y-101818261D01*
X200924475Y-101564080D01*
X200040000Y-100679605D01*
X200025858Y-100693748D01*
X199846253Y-100514143D01*
X199860395Y-100500000D01*
X200219605Y-100500000D01*
X201104080Y-101384475D01*
X201358261Y-101300792D01*
X201489158Y-101028225D01*
X201564365Y-100735358D01*
X201580991Y-100433447D01*
X201538397Y-100134093D01*
X201438222Y-99848801D01*
X201358261Y-99699208D01*
X201104080Y-99615525D01*
X200219605Y-100500000D01*
X199860395Y-100500000D01*
X199846253Y-100485858D01*
X200025858Y-100306253D01*
X200040000Y-100320395D01*
X200924475Y-99435920D01*
X200840792Y-99181739D01*
X200568225Y-99050842D01*
X200275358Y-98975635D01*
X199973447Y-98959009D01*
X199674093Y-99001603D01*
X199388801Y-99101778D01*
X199239208Y-99181739D01*
X199155526Y-99435918D01*
X199039578Y-99319970D01*
X198992813Y-99366735D01*
X198989502Y-99355820D01*
X198930537Y-99245506D01*
X198851185Y-99148815D01*
X198754494Y-99069463D01*
X198644180Y-99010498D01*
X198524482Y-98974188D01*
X198400000Y-98961928D01*
X196600000Y-98961928D01*
X196475518Y-98974188D01*
X196355820Y-99010498D01*
X196245506Y-99069463D01*
X196148815Y-99148815D01*
X196069463Y-99245506D01*
X196010498Y-99355820D01*
X195974188Y-99475518D01*
X195961928Y-99600000D01*
X195184768Y-99600000D01*
X195132312Y-99521495D01*
X194918505Y-99307688D01*
X194667095Y-99139701D01*
X194387743Y-99023989D01*
X194091184Y-98965000D01*
X194039803Y-98965000D01*
X192160000Y-97085199D01*
X192160000Y-96038072D01*
X192300000Y-96038072D01*
X192424482Y-96025812D01*
X192544180Y-95989502D01*
X192654494Y-95930537D01*
X192751185Y-95851185D01*
X192830537Y-95754494D01*
X192889502Y-95644180D01*
X192892813Y-95633265D01*
X192939578Y-95680030D01*
X193055526Y-95564082D01*
X193139208Y-95818261D01*
X193411775Y-95949158D01*
X193704642Y-96024365D01*
X194006553Y-96040991D01*
X194305907Y-95998397D01*
X194591199Y-95898222D01*
X194740792Y-95818261D01*
X194824475Y-95564080D01*
X193940000Y-94679605D01*
X193925858Y-94693748D01*
X193746253Y-94514143D01*
X193760395Y-94500000D01*
X194119605Y-94500000D01*
X195004080Y-95384475D01*
X195258261Y-95300792D01*
X195389158Y-95028225D01*
X195464365Y-94735358D01*
X195480991Y-94433447D01*
X195438397Y-94134093D01*
X195338222Y-93848801D01*
X195258261Y-93699208D01*
X195004080Y-93615525D01*
X194119605Y-94500000D01*
X193760395Y-94500000D01*
X193746253Y-94485858D01*
X193925858Y-94306253D01*
X193940000Y-94320395D01*
X194824475Y-93435920D01*
X194740792Y-93181739D01*
X194468225Y-93050842D01*
X194175358Y-92975635D01*
X193873447Y-92959009D01*
X193574093Y-93001603D01*
X193288801Y-93101778D01*
X193139208Y-93181739D01*
X193055526Y-93435918D01*
X192939578Y-93319970D01*
X192892813Y-93366735D01*
X192889502Y-93355820D01*
X192830537Y-93245506D01*
X192751185Y-93148815D01*
X192654494Y-93069463D01*
X192544180Y-93010498D01*
X192424482Y-92974188D01*
X192300000Y-92961928D01*
X190500000Y-92961928D01*
X190375518Y-92974188D01*
X190255820Y-93010498D01*
X190145506Y-93069463D01*
X190048815Y-93148815D01*
X189969463Y-93245506D01*
X189910498Y-93355820D01*
X189874188Y-93475518D01*
X189861928Y-93600000D01*
X188560395Y-93600000D01*
X188724475Y-93435920D01*
X188640792Y-93181739D01*
X188368225Y-93050842D01*
X188075358Y-92975635D01*
X187773447Y-92959009D01*
X187474093Y-93001603D01*
X187188801Y-93101778D01*
X187039208Y-93181739D01*
X186955526Y-93435918D01*
X186839578Y-93319970D01*
X186792813Y-93366735D01*
X186789502Y-93355820D01*
X186730537Y-93245506D01*
X186651185Y-93148815D01*
X186554494Y-93069463D01*
X186444180Y-93010498D01*
X186324482Y-92974188D01*
X186200000Y-92961928D01*
X184400000Y-92961928D01*
X184275518Y-92974188D01*
X184155820Y-93010498D01*
X184045506Y-93069463D01*
X183948815Y-93148815D01*
X183869463Y-93245506D01*
X183810498Y-93355820D01*
X183774188Y-93475518D01*
X183761928Y-93600000D01*
X183761928Y-93740000D01*
X183078313Y-93740000D01*
X182932312Y-93521495D01*
X182718505Y-93307688D01*
X182467095Y-93139701D01*
X182187743Y-93023989D01*
X181891184Y-92965000D01*
X181588816Y-92965000D01*
X181292257Y-93023989D01*
X181012905Y-93139701D01*
X180761495Y-93307688D01*
X180695056Y-93374127D01*
X180689502Y-93355820D01*
X180630537Y-93245506D01*
X180551185Y-93148815D01*
X180454494Y-93069463D01*
X180344180Y-93010498D01*
X180224482Y-92974188D01*
X180100000Y-92961928D01*
X178300000Y-92961928D01*
X178175518Y-92974188D01*
X178055820Y-93010498D01*
X177945506Y-93069463D01*
X177848815Y-93148815D01*
X177769463Y-93245506D01*
X177710498Y-93355820D01*
X177674188Y-93475518D01*
X177661928Y-93600000D01*
X176884768Y-93600000D01*
X176832312Y-93521495D01*
X176618505Y-93307688D01*
X176367095Y-93139701D01*
X176087743Y-93023989D01*
X175791184Y-92965000D01*
X175488816Y-92965000D01*
X175192257Y-93023989D01*
X174912905Y-93139701D01*
X174661495Y-93307688D01*
X174595056Y-93374127D01*
X174589502Y-93355820D01*
X174530537Y-93245506D01*
X174451185Y-93148815D01*
X174354494Y-93069463D01*
X174244180Y-93010498D01*
X174124482Y-92974188D01*
X174000000Y-92961928D01*
X172200000Y-92961928D01*
X172075518Y-92974188D01*
X171955820Y-93010498D01*
X171845506Y-93069463D01*
X171748815Y-93148815D01*
X171669463Y-93245506D01*
X171610498Y-93355820D01*
X171574188Y-93475518D01*
X171561928Y-93600000D01*
X171561928Y-95400000D01*
X171574188Y-95524482D01*
X171610498Y-95644180D01*
X171669463Y-95754494D01*
X171748815Y-95851185D01*
X171845506Y-95930537D01*
X171955820Y-95989502D01*
X172075518Y-96025812D01*
X172200000Y-96038072D01*
X174000000Y-96038072D01*
X174124482Y-96025812D01*
X174244180Y-95989502D01*
X174354494Y-95930537D01*
X174451185Y-95851185D01*
X174530537Y-95754494D01*
X174589502Y-95644180D01*
X174595056Y-95625873D01*
X174661495Y-95692312D01*
X174880001Y-95838313D01*
X174880001Y-96240000D01*
X169814802Y-96240000D01*
X169614642Y-96039840D01*
X169905907Y-95998397D01*
X170191199Y-95898222D01*
X170340792Y-95818261D01*
X170424475Y-95564080D01*
X169540000Y-94679605D01*
X169525858Y-94693748D01*
X169346253Y-94514143D01*
X169360395Y-94500000D01*
X169719605Y-94500000D01*
X170604080Y-95384475D01*
X170858261Y-95300792D01*
X170989158Y-95028225D01*
X171064365Y-94735358D01*
X171080991Y-94433447D01*
X171038397Y-94134093D01*
X170938222Y-93848801D01*
X170858261Y-93699208D01*
X170604080Y-93615525D01*
X169719605Y-94500000D01*
X169360395Y-94500000D01*
X169346253Y-94485858D01*
X169525858Y-94306253D01*
X169540000Y-94320395D01*
X170424475Y-93435920D01*
X170340792Y-93181739D01*
X170068225Y-93050842D01*
X169775358Y-92975635D01*
X169473447Y-92959009D01*
X169174093Y-93001603D01*
X168888801Y-93101778D01*
X168739208Y-93181739D01*
X168655526Y-93435918D01*
X168539578Y-93319970D01*
X168492813Y-93366735D01*
X168489502Y-93355820D01*
X168430537Y-93245506D01*
X168351185Y-93148815D01*
X168254494Y-93069463D01*
X168144180Y-93010498D01*
X168024482Y-92974188D01*
X167900000Y-92961928D01*
X166100000Y-92961928D01*
X165975518Y-92974188D01*
X165855820Y-93010498D01*
X165745506Y-93069463D01*
X165648815Y-93148815D01*
X165569463Y-93245506D01*
X165510498Y-93355820D01*
X165474188Y-93475518D01*
X165461928Y-93600000D01*
X164684768Y-93600000D01*
X164632312Y-93521495D01*
X164418505Y-93307688D01*
X164167095Y-93139701D01*
X163887743Y-93023989D01*
X163591184Y-92965000D01*
X163288816Y-92965000D01*
X162992257Y-93023989D01*
X162712905Y-93139701D01*
X162461495Y-93307688D01*
X162395056Y-93374127D01*
X162389502Y-93355820D01*
X162330537Y-93245506D01*
X162251185Y-93148815D01*
X162154494Y-93069463D01*
X162044180Y-93010498D01*
X161924482Y-92974188D01*
X161800000Y-92961928D01*
X160000000Y-92961928D01*
X159875518Y-92974188D01*
X159755820Y-93010498D01*
X159645506Y-93069463D01*
X159548815Y-93148815D01*
X159469463Y-93245506D01*
X159410498Y-93355820D01*
X159374188Y-93475518D01*
X159361928Y-93600000D01*
X159361928Y-95400000D01*
X159374188Y-95524482D01*
X159410498Y-95644180D01*
X159461716Y-95740000D01*
X158166558Y-95740000D01*
X158224475Y-95564080D01*
X157340000Y-94679605D01*
X157325858Y-94693748D01*
X157146253Y-94514143D01*
X157160395Y-94500000D01*
X157519605Y-94500000D01*
X158404080Y-95384475D01*
X158658261Y-95300792D01*
X158789158Y-95028225D01*
X158864365Y-94735358D01*
X158880991Y-94433447D01*
X158838397Y-94134093D01*
X158738222Y-93848801D01*
X158658261Y-93699208D01*
X158404080Y-93615525D01*
X157519605Y-94500000D01*
X157160395Y-94500000D01*
X157146253Y-94485858D01*
X157325858Y-94306253D01*
X157340000Y-94320395D01*
X158224475Y-93435920D01*
X158140792Y-93181739D01*
X157868225Y-93050842D01*
X157575358Y-92975635D01*
X157273447Y-92959009D01*
X156974093Y-93001603D01*
X156688801Y-93101778D01*
X156539208Y-93181739D01*
X156455526Y-93435918D01*
X156339578Y-93319970D01*
X156292813Y-93366735D01*
X156289502Y-93355820D01*
X156230537Y-93245506D01*
X156151185Y-93148815D01*
X156054494Y-93069463D01*
X155944180Y-93010498D01*
X155824482Y-92974188D01*
X155700000Y-92961928D01*
X153900000Y-92961928D01*
X153775518Y-92974188D01*
X153655820Y-93010498D01*
X153545506Y-93069463D01*
X153448815Y-93148815D01*
X153369463Y-93245506D01*
X153310498Y-93355820D01*
X153274188Y-93475518D01*
X153261928Y-93600000D01*
X152484768Y-93600000D01*
X152432312Y-93521495D01*
X152218505Y-93307688D01*
X152000000Y-93161687D01*
X152000000Y-92777322D01*
X152003676Y-92739999D01*
X152000000Y-92702676D01*
X152000000Y-92702667D01*
X151989003Y-92591014D01*
X151945546Y-92447753D01*
X151932997Y-92424276D01*
X151874974Y-92315723D01*
X151803799Y-92228997D01*
X151780001Y-92199999D01*
X151751002Y-92176201D01*
X151063803Y-91489002D01*
X151040001Y-91459999D01*
X150924276Y-91365026D01*
X150792247Y-91294454D01*
X150648986Y-91250997D01*
X150537333Y-91240000D01*
X150537322Y-91240000D01*
X150500000Y-91236324D01*
X150462678Y-91240000D01*
X145137323Y-91240000D01*
X145100000Y-91236324D01*
X145062677Y-91240000D01*
X145062667Y-91240000D01*
X144951014Y-91250997D01*
X144807753Y-91294454D01*
X144675723Y-91365026D01*
X144592083Y-91433668D01*
X144559999Y-91459999D01*
X144536201Y-91488997D01*
X143063271Y-92961928D01*
X141700000Y-92961928D01*
X141575518Y-92974188D01*
X141455820Y-93010498D01*
X141345506Y-93069463D01*
X141248815Y-93148815D01*
X141169463Y-93245506D01*
X141110498Y-93355820D01*
X141074188Y-93475518D01*
X141061928Y-93600000D01*
X139760395Y-93600000D01*
X139924475Y-93435920D01*
X139840792Y-93181739D01*
X139568225Y-93050842D01*
X139275358Y-92975635D01*
X138973447Y-92959009D01*
X138674093Y-93001603D01*
X138388801Y-93101778D01*
X138239208Y-93181739D01*
X138155526Y-93435918D01*
X138039578Y-93319970D01*
X137992813Y-93366735D01*
X137989502Y-93355820D01*
X137930537Y-93245506D01*
X137851185Y-93148815D01*
X137754494Y-93069463D01*
X137644180Y-93010498D01*
X137524482Y-92974188D01*
X137400000Y-92961928D01*
X135600000Y-92961928D01*
X135475518Y-92974188D01*
X135355820Y-93010498D01*
X135245506Y-93069463D01*
X135148815Y-93148815D01*
X135069463Y-93245506D01*
X135010498Y-93355820D01*
X134974188Y-93475518D01*
X134961928Y-93600000D01*
X129627000Y-93600000D01*
X129627000Y-87600000D01*
X134961928Y-87600000D01*
X134961928Y-89400000D01*
X134974188Y-89524482D01*
X135010498Y-89644180D01*
X135069463Y-89754494D01*
X135148815Y-89851185D01*
X135245506Y-89930537D01*
X135355820Y-89989502D01*
X135475518Y-90025812D01*
X135600000Y-90038072D01*
X137400000Y-90038072D01*
X137524482Y-90025812D01*
X137644180Y-89989502D01*
X137754494Y-89930537D01*
X137851185Y-89851185D01*
X137930537Y-89754494D01*
X137989502Y-89644180D01*
X137992813Y-89633265D01*
X138039578Y-89680030D01*
X138155526Y-89564082D01*
X138239208Y-89818261D01*
X138511775Y-89949158D01*
X138804642Y-90024365D01*
X139106553Y-90040991D01*
X139405907Y-89998397D01*
X139691199Y-89898222D01*
X139840792Y-89818261D01*
X139924475Y-89564080D01*
X139040000Y-88679605D01*
X139025858Y-88693748D01*
X138846253Y-88514143D01*
X138860395Y-88500000D01*
X139219605Y-88500000D01*
X140104080Y-89384475D01*
X140358261Y-89300792D01*
X140489158Y-89028225D01*
X140564365Y-88735358D01*
X140580991Y-88433447D01*
X140538397Y-88134093D01*
X140438222Y-87848801D01*
X140358261Y-87699208D01*
X140104080Y-87615525D01*
X139219605Y-88500000D01*
X138860395Y-88500000D01*
X138846253Y-88485858D01*
X139025858Y-88306253D01*
X139040000Y-88320395D01*
X139924475Y-87435920D01*
X139866558Y-87260000D01*
X141161716Y-87260000D01*
X141110498Y-87355820D01*
X141074188Y-87475518D01*
X141061928Y-87600000D01*
X141061928Y-89400000D01*
X141074188Y-89524482D01*
X141110498Y-89644180D01*
X141169463Y-89754494D01*
X141248815Y-89851185D01*
X141345506Y-89930537D01*
X141455820Y-89989502D01*
X141575518Y-90025812D01*
X141700000Y-90038072D01*
X143500000Y-90038072D01*
X143624482Y-90025812D01*
X143744180Y-89989502D01*
X143854494Y-89930537D01*
X143951185Y-89851185D01*
X144030537Y-89754494D01*
X144089502Y-89644180D01*
X144095056Y-89625873D01*
X144161495Y-89692312D01*
X144412905Y-89860299D01*
X144692257Y-89976011D01*
X144988816Y-90035000D01*
X145291184Y-90035000D01*
X145587743Y-89976011D01*
X145867095Y-89860299D01*
X146118505Y-89692312D01*
X146332312Y-89478505D01*
X146500299Y-89227095D01*
X146616011Y-88947743D01*
X146675000Y-88651184D01*
X146675000Y-88348816D01*
X146616011Y-88052257D01*
X146500299Y-87772905D01*
X146384768Y-87600000D01*
X147161928Y-87600000D01*
X147161928Y-89400000D01*
X147174188Y-89524482D01*
X147210498Y-89644180D01*
X147269463Y-89754494D01*
X147348815Y-89851185D01*
X147445506Y-89930537D01*
X147555820Y-89989502D01*
X147675518Y-90025812D01*
X147800000Y-90038072D01*
X149600000Y-90038072D01*
X149724482Y-90025812D01*
X149844180Y-89989502D01*
X149954494Y-89930537D01*
X150051185Y-89851185D01*
X150130537Y-89754494D01*
X150189502Y-89644180D01*
X150192813Y-89633265D01*
X150239578Y-89680030D01*
X150355526Y-89564082D01*
X150439208Y-89818261D01*
X150711775Y-89949158D01*
X151004642Y-90024365D01*
X151306553Y-90040991D01*
X151605907Y-89998397D01*
X151891199Y-89898222D01*
X152040792Y-89818261D01*
X152124475Y-89564080D01*
X151240000Y-88679605D01*
X151225858Y-88693748D01*
X151046253Y-88514143D01*
X151060395Y-88500000D01*
X151419605Y-88500000D01*
X152304080Y-89384475D01*
X152558261Y-89300792D01*
X152689158Y-89028225D01*
X152764365Y-88735358D01*
X152780991Y-88433447D01*
X152738397Y-88134093D01*
X152638222Y-87848801D01*
X152558261Y-87699208D01*
X152304080Y-87615525D01*
X151419605Y-88500000D01*
X151060395Y-88500000D01*
X151046253Y-88485858D01*
X151225858Y-88306253D01*
X151240000Y-88320395D01*
X152124475Y-87435920D01*
X152066558Y-87260000D01*
X153361716Y-87260000D01*
X153310498Y-87355820D01*
X153274188Y-87475518D01*
X153261928Y-87600000D01*
X153261928Y-89400000D01*
X153274188Y-89524482D01*
X153310498Y-89644180D01*
X153369463Y-89754494D01*
X153448815Y-89851185D01*
X153545506Y-89930537D01*
X153655820Y-89989502D01*
X153775518Y-90025812D01*
X153900000Y-90038072D01*
X155700000Y-90038072D01*
X155824482Y-90025812D01*
X155944180Y-89989502D01*
X156054494Y-89930537D01*
X156151185Y-89851185D01*
X156230537Y-89754494D01*
X156289502Y-89644180D01*
X156295056Y-89625873D01*
X156361495Y-89692312D01*
X156612905Y-89860299D01*
X156892257Y-89976011D01*
X157188816Y-90035000D01*
X157491184Y-90035000D01*
X157787743Y-89976011D01*
X158067095Y-89860299D01*
X158318505Y-89692312D01*
X158532312Y-89478505D01*
X158700299Y-89227095D01*
X158816011Y-88947743D01*
X158875000Y-88651184D01*
X158875000Y-88348816D01*
X158816011Y-88052257D01*
X158700299Y-87772905D01*
X158584768Y-87600000D01*
X159361928Y-87600000D01*
X159361928Y-89400000D01*
X159374188Y-89524482D01*
X159410498Y-89644180D01*
X159469463Y-89754494D01*
X159548815Y-89851185D01*
X159645506Y-89930537D01*
X159755820Y-89989502D01*
X159875518Y-90025812D01*
X160000000Y-90038072D01*
X161800000Y-90038072D01*
X161924482Y-90025812D01*
X162044180Y-89989502D01*
X162154494Y-89930537D01*
X162251185Y-89851185D01*
X162330537Y-89754494D01*
X162389502Y-89644180D01*
X162392813Y-89633265D01*
X162439578Y-89680030D01*
X162555526Y-89564082D01*
X162639208Y-89818261D01*
X162911775Y-89949158D01*
X163204642Y-90024365D01*
X163506553Y-90040991D01*
X163805907Y-89998397D01*
X164091199Y-89898222D01*
X164240792Y-89818261D01*
X164324475Y-89564080D01*
X163440000Y-88679605D01*
X163425858Y-88693748D01*
X163246253Y-88514143D01*
X163260395Y-88500000D01*
X163619605Y-88500000D01*
X164504080Y-89384475D01*
X164758261Y-89300792D01*
X164889158Y-89028225D01*
X164964365Y-88735358D01*
X164980991Y-88433447D01*
X164938397Y-88134093D01*
X164838222Y-87848801D01*
X164758261Y-87699208D01*
X164504080Y-87615525D01*
X163619605Y-88500000D01*
X163260395Y-88500000D01*
X163246253Y-88485858D01*
X163425858Y-88306253D01*
X163440000Y-88320395D01*
X164324475Y-87435920D01*
X164266558Y-87260000D01*
X165561716Y-87260000D01*
X165510498Y-87355820D01*
X165474188Y-87475518D01*
X165461928Y-87600000D01*
X165461928Y-89400000D01*
X165474188Y-89524482D01*
X165510498Y-89644180D01*
X165569463Y-89754494D01*
X165648815Y-89851185D01*
X165745506Y-89930537D01*
X165855820Y-89989502D01*
X165975518Y-90025812D01*
X166100000Y-90038072D01*
X167900000Y-90038072D01*
X168024482Y-90025812D01*
X168144180Y-89989502D01*
X168254494Y-89930537D01*
X168351185Y-89851185D01*
X168430537Y-89754494D01*
X168489502Y-89644180D01*
X168495056Y-89625873D01*
X168561495Y-89692312D01*
X168812905Y-89860299D01*
X169092257Y-89976011D01*
X169388816Y-90035000D01*
X169691184Y-90035000D01*
X169987743Y-89976011D01*
X170267095Y-89860299D01*
X170518505Y-89692312D01*
X170732312Y-89478505D01*
X170900299Y-89227095D01*
X171016011Y-88947743D01*
X171075000Y-88651184D01*
X171075000Y-88348816D01*
X171016011Y-88052257D01*
X170900299Y-87772905D01*
X170784768Y-87600000D01*
X171561928Y-87600000D01*
X171561928Y-89400000D01*
X171574188Y-89524482D01*
X171610498Y-89644180D01*
X171669463Y-89754494D01*
X171748815Y-89851185D01*
X171845506Y-89930537D01*
X171955820Y-89989502D01*
X172075518Y-90025812D01*
X172200000Y-90038072D01*
X174000000Y-90038072D01*
X174124482Y-90025812D01*
X174244180Y-89989502D01*
X174354494Y-89930537D01*
X174451185Y-89851185D01*
X174530537Y-89754494D01*
X174589502Y-89644180D01*
X174592813Y-89633265D01*
X174639578Y-89680030D01*
X174755526Y-89564082D01*
X174839208Y-89818261D01*
X175111775Y-89949158D01*
X175404642Y-90024365D01*
X175706553Y-90040991D01*
X176005907Y-89998397D01*
X176291199Y-89898222D01*
X176440792Y-89818261D01*
X176524475Y-89564080D01*
X175640000Y-88679605D01*
X175625858Y-88693748D01*
X175446253Y-88514143D01*
X175460395Y-88500000D01*
X175819605Y-88500000D01*
X176704080Y-89384475D01*
X176958261Y-89300792D01*
X177089158Y-89028225D01*
X177164365Y-88735358D01*
X177180991Y-88433447D01*
X177138397Y-88134093D01*
X177038222Y-87848801D01*
X176958261Y-87699208D01*
X176704080Y-87615525D01*
X175819605Y-88500000D01*
X175460395Y-88500000D01*
X175446253Y-88485858D01*
X175625858Y-88306253D01*
X175640000Y-88320395D01*
X176524475Y-87435920D01*
X176466558Y-87260000D01*
X177761716Y-87260000D01*
X177710498Y-87355820D01*
X177674188Y-87475518D01*
X177661928Y-87600000D01*
X177661928Y-89400000D01*
X177674188Y-89524482D01*
X177710498Y-89644180D01*
X177769463Y-89754494D01*
X177848815Y-89851185D01*
X177945506Y-89930537D01*
X178055820Y-89989502D01*
X178175518Y-90025812D01*
X178300000Y-90038072D01*
X180100000Y-90038072D01*
X180224482Y-90025812D01*
X180344180Y-89989502D01*
X180454494Y-89930537D01*
X180551185Y-89851185D01*
X180630537Y-89754494D01*
X180689502Y-89644180D01*
X180695056Y-89625873D01*
X180761495Y-89692312D01*
X181012905Y-89860299D01*
X181292257Y-89976011D01*
X181588816Y-90035000D01*
X181891184Y-90035000D01*
X182187743Y-89976011D01*
X182467095Y-89860299D01*
X182718505Y-89692312D01*
X182932312Y-89478505D01*
X183100299Y-89227095D01*
X183216011Y-88947743D01*
X183275000Y-88651184D01*
X183275000Y-88348816D01*
X183216011Y-88052257D01*
X183100299Y-87772905D01*
X182932312Y-87521495D01*
X182718505Y-87307688D01*
X182500000Y-87161687D01*
X182500000Y-86797333D01*
X182503677Y-86760000D01*
X182489003Y-86611014D01*
X182470803Y-86551015D01*
X182445546Y-86467753D01*
X182374974Y-86335724D01*
X182280001Y-86219999D01*
X182250997Y-86196196D01*
X182043804Y-85989003D01*
X182020001Y-85959999D01*
X181904276Y-85865026D01*
X181772247Y-85794454D01*
X181628986Y-85750997D01*
X181517333Y-85740000D01*
X181517322Y-85740000D01*
X181480000Y-85736324D01*
X181442678Y-85740000D01*
X175137322Y-85740000D01*
X175099999Y-85736324D01*
X175062676Y-85740000D01*
X175062667Y-85740000D01*
X174951014Y-85750997D01*
X174807753Y-85794454D01*
X174675723Y-85865026D01*
X174597776Y-85928996D01*
X174559999Y-85959999D01*
X174536201Y-85988997D01*
X173563270Y-86961928D01*
X172200000Y-86961928D01*
X172075518Y-86974188D01*
X171955820Y-87010498D01*
X171845506Y-87069463D01*
X171748815Y-87148815D01*
X171669463Y-87245506D01*
X171610498Y-87355820D01*
X171574188Y-87475518D01*
X171561928Y-87600000D01*
X170784768Y-87600000D01*
X170732312Y-87521495D01*
X170518505Y-87307688D01*
X170300000Y-87161687D01*
X170300000Y-86577333D01*
X170303677Y-86540000D01*
X170289003Y-86391015D01*
X170289003Y-86391014D01*
X170245546Y-86247753D01*
X170174974Y-86115724D01*
X170080001Y-85999999D01*
X170058031Y-85981969D01*
X170040001Y-85959999D01*
X169924276Y-85865026D01*
X169792247Y-85794454D01*
X169648986Y-85750997D01*
X169537333Y-85740000D01*
X169537322Y-85740000D01*
X169500000Y-85736324D01*
X169462678Y-85740000D01*
X162937322Y-85740000D01*
X162899999Y-85736324D01*
X162862676Y-85740000D01*
X162862667Y-85740000D01*
X162751014Y-85750997D01*
X162607753Y-85794454D01*
X162475723Y-85865026D01*
X162397776Y-85928996D01*
X162359999Y-85959999D01*
X162336201Y-85988997D01*
X161363270Y-86961928D01*
X160000000Y-86961928D01*
X159875518Y-86974188D01*
X159755820Y-87010498D01*
X159645506Y-87069463D01*
X159548815Y-87148815D01*
X159469463Y-87245506D01*
X159410498Y-87355820D01*
X159374188Y-87475518D01*
X159361928Y-87600000D01*
X158584768Y-87600000D01*
X158532312Y-87521495D01*
X158318505Y-87307688D01*
X158100000Y-87161687D01*
X158100000Y-86877333D01*
X158103677Y-86840000D01*
X158089003Y-86691014D01*
X158045546Y-86547753D01*
X158041402Y-86540000D01*
X157974974Y-86415724D01*
X157880001Y-86299999D01*
X157850997Y-86276196D01*
X157563804Y-85989003D01*
X157540001Y-85959999D01*
X157424276Y-85865026D01*
X157292247Y-85794454D01*
X157148986Y-85750997D01*
X157037333Y-85740000D01*
X157037322Y-85740000D01*
X157000000Y-85736324D01*
X156962678Y-85740000D01*
X150737322Y-85740000D01*
X150699999Y-85736324D01*
X150662676Y-85740000D01*
X150662667Y-85740000D01*
X150551014Y-85750997D01*
X150407753Y-85794454D01*
X150275723Y-85865026D01*
X150197776Y-85928996D01*
X150159999Y-85959999D01*
X150136201Y-85988997D01*
X149163270Y-86961928D01*
X147800000Y-86961928D01*
X147675518Y-86974188D01*
X147555820Y-87010498D01*
X147445506Y-87069463D01*
X147348815Y-87148815D01*
X147269463Y-87245506D01*
X147210498Y-87355820D01*
X147174188Y-87475518D01*
X147161928Y-87600000D01*
X146384768Y-87600000D01*
X146332312Y-87521495D01*
X146118505Y-87307688D01*
X145867095Y-87139701D01*
X145760000Y-87095341D01*
X145760000Y-86537333D01*
X145763677Y-86500000D01*
X145749003Y-86351014D01*
X145705546Y-86207753D01*
X145634974Y-86075724D01*
X145540001Y-85959999D01*
X145424276Y-85865026D01*
X145292247Y-85794454D01*
X145148986Y-85750997D01*
X145037333Y-85740000D01*
X145000000Y-85736323D01*
X144962667Y-85740000D01*
X138537322Y-85740000D01*
X138499999Y-85736324D01*
X138462676Y-85740000D01*
X138462667Y-85740000D01*
X138351014Y-85750997D01*
X138207753Y-85794454D01*
X138075723Y-85865026D01*
X137997776Y-85928996D01*
X137959999Y-85959999D01*
X137936201Y-85988997D01*
X136963270Y-86961928D01*
X135600000Y-86961928D01*
X135475518Y-86974188D01*
X135355820Y-87010498D01*
X135245506Y-87069463D01*
X135148815Y-87148815D01*
X135069463Y-87245506D01*
X135010498Y-87355820D01*
X134974188Y-87475518D01*
X134961928Y-87600000D01*
X129627000Y-87600000D01*
X129627000Y-75600000D01*
X134961928Y-75600000D01*
X134961928Y-77400000D01*
X134974188Y-77524482D01*
X135010498Y-77644180D01*
X135069463Y-77754494D01*
X135148815Y-77851185D01*
X135245506Y-77930537D01*
X135355820Y-77989502D01*
X135475518Y-78025812D01*
X135600000Y-78038072D01*
X135740001Y-78038072D01*
X135740000Y-79922677D01*
X135736324Y-79960000D01*
X135740000Y-79997322D01*
X135740000Y-79997332D01*
X135750997Y-80108985D01*
X135780958Y-80207754D01*
X135794454Y-80252246D01*
X135865026Y-80384276D01*
X135884604Y-80408131D01*
X135959999Y-80500001D01*
X135989003Y-80523804D01*
X136427127Y-80961928D01*
X135600000Y-80961928D01*
X135475518Y-80974188D01*
X135355820Y-81010498D01*
X135245506Y-81069463D01*
X135148815Y-81148815D01*
X135069463Y-81245506D01*
X135010498Y-81355820D01*
X134974188Y-81475518D01*
X134961928Y-81600000D01*
X134961928Y-83400000D01*
X134974188Y-83524482D01*
X135010498Y-83644180D01*
X135069463Y-83754494D01*
X135148815Y-83851185D01*
X135245506Y-83930537D01*
X135355820Y-83989502D01*
X135475518Y-84025812D01*
X135600000Y-84038072D01*
X137400000Y-84038072D01*
X137524482Y-84025812D01*
X137644180Y-83989502D01*
X137754494Y-83930537D01*
X137851185Y-83851185D01*
X137930537Y-83754494D01*
X137989502Y-83644180D01*
X137995056Y-83625873D01*
X138061495Y-83692312D01*
X138312905Y-83860299D01*
X138592257Y-83976011D01*
X138888816Y-84035000D01*
X139191184Y-84035000D01*
X139487743Y-83976011D01*
X139767095Y-83860299D01*
X140018505Y-83692312D01*
X140232312Y-83478505D01*
X140400299Y-83227095D01*
X140516011Y-82947743D01*
X140575000Y-82651184D01*
X140575000Y-82348816D01*
X140516011Y-82052257D01*
X140400299Y-81772905D01*
X140284768Y-81600000D01*
X141061928Y-81600000D01*
X141061928Y-83400000D01*
X141074188Y-83524482D01*
X141110498Y-83644180D01*
X141169463Y-83754494D01*
X141248815Y-83851185D01*
X141345506Y-83930537D01*
X141455820Y-83989502D01*
X141575518Y-84025812D01*
X141700000Y-84038072D01*
X143500000Y-84038072D01*
X143624482Y-84025812D01*
X143744180Y-83989502D01*
X143854494Y-83930537D01*
X143951185Y-83851185D01*
X144030537Y-83754494D01*
X144089502Y-83644180D01*
X144092813Y-83633265D01*
X144139578Y-83680030D01*
X144255526Y-83564082D01*
X144339208Y-83818261D01*
X144611775Y-83949158D01*
X144904642Y-84024365D01*
X145206553Y-84040991D01*
X145505907Y-83998397D01*
X145791199Y-83898222D01*
X145940792Y-83818261D01*
X146024475Y-83564080D01*
X145140000Y-82679605D01*
X145125858Y-82693748D01*
X144946253Y-82514143D01*
X144960395Y-82500000D01*
X145319605Y-82500000D01*
X146204080Y-83384475D01*
X146458261Y-83300792D01*
X146589158Y-83028225D01*
X146664365Y-82735358D01*
X146680991Y-82433447D01*
X146638397Y-82134093D01*
X146538222Y-81848801D01*
X146458261Y-81699208D01*
X146204080Y-81615525D01*
X145319605Y-82500000D01*
X144960395Y-82500000D01*
X144946253Y-82485858D01*
X145125858Y-82306253D01*
X145140000Y-82320395D01*
X146024475Y-81435920D01*
X145966558Y-81260000D01*
X147261716Y-81260000D01*
X147210498Y-81355820D01*
X147174188Y-81475518D01*
X147161928Y-81600000D01*
X147161928Y-83400000D01*
X147174188Y-83524482D01*
X147210498Y-83644180D01*
X147269463Y-83754494D01*
X147348815Y-83851185D01*
X147445506Y-83930537D01*
X147555820Y-83989502D01*
X147675518Y-84025812D01*
X147800000Y-84038072D01*
X149600000Y-84038072D01*
X149724482Y-84025812D01*
X149844180Y-83989502D01*
X149954494Y-83930537D01*
X150051185Y-83851185D01*
X150130537Y-83754494D01*
X150189502Y-83644180D01*
X150195056Y-83625873D01*
X150261495Y-83692312D01*
X150512905Y-83860299D01*
X150792257Y-83976011D01*
X151088816Y-84035000D01*
X151391184Y-84035000D01*
X151687743Y-83976011D01*
X151967095Y-83860299D01*
X152218505Y-83692312D01*
X152432312Y-83478505D01*
X152600299Y-83227095D01*
X152716011Y-82947743D01*
X152775000Y-82651184D01*
X152775000Y-82348816D01*
X152716011Y-82052257D01*
X152600299Y-81772905D01*
X152432312Y-81521495D01*
X152218505Y-81307688D01*
X152000000Y-81161687D01*
X152000000Y-80777322D01*
X152003676Y-80739999D01*
X152000000Y-80702676D01*
X152000000Y-80702667D01*
X151989003Y-80591014D01*
X151945546Y-80447753D01*
X151874974Y-80315724D01*
X151780001Y-80199999D01*
X151750997Y-80176196D01*
X151563804Y-79989003D01*
X151540001Y-79959999D01*
X151424276Y-79865026D01*
X151292247Y-79794454D01*
X151148986Y-79750997D01*
X151037333Y-79740000D01*
X151037322Y-79740000D01*
X151000000Y-79736324D01*
X150962678Y-79740000D01*
X144637322Y-79740000D01*
X144599999Y-79736324D01*
X144562676Y-79740000D01*
X144562667Y-79740000D01*
X144451014Y-79750997D01*
X144307753Y-79794454D01*
X144175723Y-79865026D01*
X144102961Y-79924741D01*
X144059999Y-79959999D01*
X144036201Y-79988997D01*
X143063270Y-80961928D01*
X141700000Y-80961928D01*
X141575518Y-80974188D01*
X141455820Y-81010498D01*
X141345506Y-81069463D01*
X141248815Y-81148815D01*
X141169463Y-81245506D01*
X141110498Y-81355820D01*
X141074188Y-81475518D01*
X141061928Y-81600000D01*
X140284768Y-81600000D01*
X140232312Y-81521495D01*
X140018505Y-81307688D01*
X139767095Y-81139701D01*
X139487743Y-81023989D01*
X139191184Y-80965000D01*
X138888816Y-80965000D01*
X138631071Y-81016268D01*
X137260000Y-79645199D01*
X137260000Y-78038072D01*
X137400000Y-78038072D01*
X137524482Y-78025812D01*
X137644180Y-77989502D01*
X137754494Y-77930537D01*
X137851185Y-77851185D01*
X137930537Y-77754494D01*
X137989502Y-77644180D01*
X137992813Y-77633265D01*
X138039578Y-77680030D01*
X138155526Y-77564082D01*
X138239208Y-77818261D01*
X138511775Y-77949158D01*
X138804642Y-78024365D01*
X139106553Y-78040991D01*
X139405907Y-77998397D01*
X139691199Y-77898222D01*
X139840792Y-77818261D01*
X139924475Y-77564080D01*
X139040000Y-76679605D01*
X139025858Y-76693748D01*
X138846253Y-76514143D01*
X138860395Y-76500000D01*
X139219605Y-76500000D01*
X140104080Y-77384475D01*
X140358261Y-77300792D01*
X140489158Y-77028225D01*
X140564365Y-76735358D01*
X140580991Y-76433447D01*
X140538397Y-76134093D01*
X140438222Y-75848801D01*
X140358261Y-75699208D01*
X140104080Y-75615525D01*
X139219605Y-76500000D01*
X138860395Y-76500000D01*
X138846253Y-76485858D01*
X139025858Y-76306253D01*
X139040000Y-76320395D01*
X139760395Y-75600000D01*
X141061928Y-75600000D01*
X141061928Y-77400000D01*
X141074188Y-77524482D01*
X141110498Y-77644180D01*
X141169463Y-77754494D01*
X141248815Y-77851185D01*
X141345506Y-77930537D01*
X141455820Y-77989502D01*
X141575518Y-78025812D01*
X141700000Y-78038072D01*
X143500000Y-78038072D01*
X143624482Y-78025812D01*
X143744180Y-77989502D01*
X143854494Y-77930537D01*
X143951185Y-77851185D01*
X144030537Y-77754494D01*
X144089502Y-77644180D01*
X144092813Y-77633265D01*
X144139578Y-77680030D01*
X144255526Y-77564082D01*
X144339208Y-77818261D01*
X144611775Y-77949158D01*
X144904642Y-78024365D01*
X145206553Y-78040991D01*
X145505907Y-77998397D01*
X145791199Y-77898222D01*
X145940792Y-77818261D01*
X146024475Y-77564080D01*
X145140000Y-76679605D01*
X145125858Y-76693748D01*
X144946253Y-76514143D01*
X144960395Y-76500000D01*
X145319605Y-76500000D01*
X146204080Y-77384475D01*
X146458261Y-77300792D01*
X146589158Y-77028225D01*
X146664365Y-76735358D01*
X146680991Y-76433447D01*
X146638397Y-76134093D01*
X146538222Y-75848801D01*
X146458261Y-75699208D01*
X146204080Y-75615525D01*
X145319605Y-76500000D01*
X144960395Y-76500000D01*
X144946253Y-76485858D01*
X145125858Y-76306253D01*
X145140000Y-76320395D01*
X146024475Y-75435920D01*
X145966558Y-75260000D01*
X147261716Y-75260000D01*
X147210498Y-75355820D01*
X147174188Y-75475518D01*
X147161928Y-75600000D01*
X147161928Y-77400000D01*
X147174188Y-77524482D01*
X147210498Y-77644180D01*
X147269463Y-77754494D01*
X147348815Y-77851185D01*
X147445506Y-77930537D01*
X147555820Y-77989502D01*
X147675518Y-78025812D01*
X147800000Y-78038072D01*
X149600000Y-78038072D01*
X149724482Y-78025812D01*
X149844180Y-77989502D01*
X149954494Y-77930537D01*
X150051185Y-77851185D01*
X150130537Y-77754494D01*
X150189502Y-77644180D01*
X150195056Y-77625873D01*
X150261495Y-77692312D01*
X150512905Y-77860299D01*
X150792257Y-77976011D01*
X151088816Y-78035000D01*
X151391184Y-78035000D01*
X151687743Y-77976011D01*
X151967095Y-77860299D01*
X152218505Y-77692312D01*
X152432312Y-77478505D01*
X152600299Y-77227095D01*
X152716011Y-76947743D01*
X152775000Y-76651184D01*
X152775000Y-76348816D01*
X152716011Y-76052257D01*
X152600299Y-75772905D01*
X152432312Y-75521495D01*
X152218505Y-75307688D01*
X151967095Y-75139701D01*
X151687743Y-75023989D01*
X151391184Y-74965000D01*
X151088816Y-74965000D01*
X150831070Y-75016269D01*
X149803804Y-73989003D01*
X149780001Y-73959999D01*
X149664276Y-73865026D01*
X149532247Y-73794454D01*
X149388986Y-73750997D01*
X149277333Y-73740000D01*
X149277322Y-73740000D01*
X149240000Y-73736324D01*
X149202678Y-73740000D01*
X143037322Y-73740000D01*
X142999999Y-73736324D01*
X142962676Y-73740000D01*
X142962667Y-73740000D01*
X142851014Y-73750997D01*
X142707753Y-73794454D01*
X142575724Y-73865026D01*
X142459999Y-73959999D01*
X142436200Y-73988998D01*
X142088998Y-74336201D01*
X142060000Y-74359999D01*
X142036202Y-74388997D01*
X142036201Y-74388998D01*
X141965026Y-74475724D01*
X141894454Y-74607754D01*
X141881947Y-74648986D01*
X141850998Y-74751014D01*
X141847425Y-74787290D01*
X141836324Y-74900000D01*
X141840001Y-74937332D01*
X141840001Y-74961928D01*
X141700000Y-74961928D01*
X141575518Y-74974188D01*
X141455820Y-75010498D01*
X141345506Y-75069463D01*
X141248815Y-75148815D01*
X141169463Y-75245506D01*
X141110498Y-75355820D01*
X141074188Y-75475518D01*
X141061928Y-75600000D01*
X139760395Y-75600000D01*
X139924475Y-75435920D01*
X139840792Y-75181739D01*
X139568225Y-75050842D01*
X139275358Y-74975635D01*
X138973447Y-74959009D01*
X138674093Y-75001603D01*
X138388801Y-75101778D01*
X138239208Y-75181739D01*
X138155526Y-75435918D01*
X138039578Y-75319970D01*
X137992813Y-75366735D01*
X137989502Y-75355820D01*
X137930537Y-75245506D01*
X137851185Y-75148815D01*
X137754494Y-75069463D01*
X137644180Y-75010498D01*
X137524482Y-74974188D01*
X137400000Y-74961928D01*
X135600000Y-74961928D01*
X135475518Y-74974188D01*
X135355820Y-75010498D01*
X135245506Y-75069463D01*
X135148815Y-75148815D01*
X135069463Y-75245506D01*
X135010498Y-75355820D01*
X134974188Y-75475518D01*
X134961928Y-75600000D01*
X129627000Y-75600000D01*
X129627000Y-72127000D01*
X154373000Y-72127000D01*
X154373000Y-82000000D01*
%TD*%
M02*
